<?xml version="1.0" encoding="UTF-8" standalone="no"?>
<!-- Created with Inkscape (http://www.inkscape.org/) -->

<svg
   width="1080"
   height="1080"
   viewBox="0 0 285.74999 285.75"
   version="1.1"
   id="svg1"
   xml:space="preserve"
   inkscape:version="1.3.2 (091e20e, 2023-11-25, custom)"
   sodipodi:docname="Artybylogo.svg"
   xmlns:inkscape="http://www.inkscape.org/namespaces/inkscape"
   xmlns:sodipodi="http://sodipodi.sourceforge.net/DTD/sodipodi-0.dtd"
   xmlns="http://www.w3.org/2000/svg"
   xmlns:svg="http://www.w3.org/2000/svg"><sodipodi:namedview
     id="namedview1"
     pagecolor="#ffffff"
     bordercolor="#660000"
     borderopacity="0.24705882"
     inkscape:showpageshadow="2"
     inkscape:pageopacity="0.0"
     inkscape:pagecheckerboard="0"
     inkscape:deskcolor="#0e0025"
     inkscape:document-units="px"
     inkscape:zoom="0.39259258"
     inkscape:cx="-287.8302"
     inkscape:cy="631.69813"
     inkscape:window-width="1920"
     inkscape:window-height="1046"
     inkscape:window-x="-11"
     inkscape:window-y="-11"
     inkscape:window-maximized="1"
     inkscape:current-layer="layer2" /><defs
     id="defs1"><inkscape:path-effect
       effect="spiro"
       id="path-effect33"
       is_visible="true"
       lpeversion="1" /><inkscape:path-effect
       effect="spiro"
       id="path-effect31"
       is_visible="true"
       lpeversion="1" /><inkscape:path-effect
       effect="spiro"
       id="path-effect12"
       is_visible="true"
       lpeversion="1" /><inkscape:path-effect
       effect="spiro"
       id="path-effect10"
       is_visible="true"
       lpeversion="1" /></defs><g
     inkscape:groupmode="layer"
     id="layer2"
     inkscape:label="Lienzo"><g
       id="g58"
       inkscape:label="pepe"
       transform="matrix(3.7901654,0,0,3.7901654,-507.68322,-412.87346)"
       style="display:inline"><path
         style="display:inline;opacity:1;fill:#020000;fill-opacity:0;stroke:#000000;stroke-width:1.7145;stroke-linecap:round;stroke-dasharray:none;stroke-opacity:1;paint-order:stroke fill markers"
         d="m 148.14647,146.24194 c 9.40815,32.9219 36.22317,38.93088 48.45109,-0.43001"
         id="path55"
         sodipodi:nodetypes="cc" /><path
         style="fill:#020000;fill-opacity:0;stroke:#000000;stroke-width:1.7145;stroke-linecap:round;stroke-dasharray:none;stroke-opacity:1;paint-order:stroke fill markers"
         d="m 136.38834,137.9047 c 0,0 33.69693,33.27572 70.51083,0.25273"
         id="path56"
         sodipodi:nodetypes="cc" /><path
         style="display:inline;fill:#020000;fill-opacity:0;stroke:#000000;stroke-width:1.7145;stroke-linecap:round;stroke-dasharray:none;stroke-opacity:1;paint-order:stroke fill markers"
         d="m 136.38834,137.9047 14.50943,-6.93324 c 25.20335,-14.80118 16.62885,-14.00083 39.57581,-0.6824 l 16.42559,7.86837"
         id="path57"
         sodipodi:nodetypes="cccc" /><path
         style="fill:#803b00;fill-opacity:1;stroke:#000000;stroke-width:4.12641;stroke-linecap:round;stroke-dasharray:none;stroke-opacity:1;paint-order:stroke fill markers"
         d="m 644.43396,650.45738 c -13.91666,-2.12394 -26.56259,-9.09291 -39.24054,-21.62483 -12.89965,-12.75107 -22.45612,-27.34741 -31.4385,-48.01845 -3.00707,-6.92014 -8.15022,-20.75514 -7.71571,-20.75514 0.12569,0 2.91667,1.24765 6.20218,2.77256 17.83995,8.28008 37.40618,13.99388 57.22795,16.71189 10.953,1.5019 33.10527,1.51719 43.93868,0.0303 19.1029,-2.62184 36.81728,-7.93647 54.70777,-16.41333 4.34695,-2.05967 8.00694,-3.64144 8.13333,-3.51505 0.1264,0.12639 -0.78803,2.92181 -2.03206,6.21204 -11.08944,29.32964 -23.30198,49.76118 -38.60905,64.59285 -6.91849,6.70362 -15.00396,12.52432 -21.20965,15.26878 -9.43698,4.17348 -21.33636,6.05516 -29.9644,4.73836 z"
         id="path60"
         transform="scale(0.26458333)" /><g
         id="g69"
         style="display:inline"
         transform="translate(-2.9484817,-0.4854336)"><path
           style="fill:#ffffff;fill-opacity:0;stroke:#000000;stroke-width:0.345077;stroke-linecap:round;stroke-dasharray:none;stroke-opacity:1;paint-order:stroke fill markers"
           d="m 187.88589,155.65156 c -4.45349,1.08979 -7.90732,2.40012 -7.97272,2.38945"
           id="path61"
           sodipodi:nodetypes="cc" /><path
           style="fill:#ffffff;fill-opacity:0;stroke:#000000;stroke-width:0.345077;stroke-linecap:round;stroke-dasharray:none;stroke-opacity:1;paint-order:stroke fill markers"
           d="m 179.91317,158.04101 c 4.97172,1.46327 7.58065,-0.92953 7.97272,-2.38945"
           id="path62"
           sodipodi:nodetypes="cc" /><path
           style="fill:#150c00;fill-opacity:1;stroke:#150c00;stroke-width:0.0676616;stroke-linecap:round;stroke-dasharray:none;stroke-opacity:1;paint-order:stroke fill markers"
           id="path63"
           sodipodi:type="arc"
           sodipodi:cx="-176.62967"
           sodipodi:cy="-165.8708"
           sodipodi:rx="0.97919196"
           sodipodi:ry="0.84048575"
           sodipodi:start="2.995179"
           sodipodi:end="2.9677492"
           sodipodi:open="true"
           sodipodi:arc-type="arc"
           d="m -177.59838,-165.74818 a 0.97919196,0.84048575 0 0 1 0.81922,-0.95326 0.97919196,0.84048575 0 0 1 1.11616,0.69662 0.97919196,0.84048575 0 0 1 -0.80392,0.96281 0.97919196,0.84048575 0 0 1 -1.12718,-0.68342"
           transform="rotate(177.38381)" /><path
           style="fill:#000000;fill-opacity:1;stroke:#000000;stroke-width:0.0139798;stroke-linecap:round;stroke-dasharray:none;stroke-opacity:1;paint-order:stroke fill markers"
           id="path66"
           sodipodi:type="arc"
           sodipodi:cx="-176.58412"
           sodipodi:cy="-165.87079"
           sodipodi:rx="0.18876959"
           sodipodi:ry="0.18611582"
           sodipodi:start="2.995179"
           sodipodi:end="2.9677492"
           sodipodi:open="true"
           sodipodi:arc-type="arc"
           d="m -176.77087,-165.84364 a 0.18876959,0.18611582 0 0 1 0.15793,-0.21108 0.18876959,0.18611582 0 0 1 0.21517,0.15426 0.18876959,0.18611582 0 0 1 -0.15498,0.2132 0.18876959,0.18611582 0 0 1 -0.2173,-0.15134"
           transform="rotate(177.38381)" /><path
           style="fill:#150c00;fill-opacity:0;stroke:#150c00;stroke-width:0.0731903;stroke-linecap:round;stroke-dasharray:none;stroke-opacity:1;paint-order:stroke fill markers"
           d="m 689.56663,598.33995 c -1.78557,-0.10512 -3.35415,-0.29349 -4.95504,-0.59506 -0.77304,-0.14562 -2.14391,-0.44611 -2.20459,-0.48324 -0.0429,-0.0263 0.53845,-0.22973 3.31897,-1.16157 2.50162,-0.83836 6.44675,-2.11202 6.54197,-2.11202 0.016,0 -0.0163,0.0594 -0.0717,0.13202 -0.0554,0.0726 -0.17135,0.28305 -0.25771,0.46764 -0.54283,1.16027 -0.29141,2.46905 0.654,3.4045 l 0.32614,0.32271 -0.38254,0.0253 c -0.36654,0.0243 -2.55575,0.0241 -2.96951,-3.1e-4 z"
           id="path75"
           transform="scale(0.26458333)" /><path
           style="fill:#ffffff;fill-opacity:1;stroke:#150c00;stroke-width:0.0731903;stroke-linecap:round;stroke-dasharray:none;stroke-opacity:1;paint-order:stroke fill markers"
           d="m 698.99271,597.1594 c 0.26453,-0.62401 0.3447,-0.95071 0.3447,-1.40454 0,-0.45715 -0.0986,-0.85913 -0.32595,-1.32858 -0.18248,-0.37683 -0.24134,-0.45625 -0.60474,-0.81589 -0.48679,-0.48175 -0.76028,-0.64848 -1.59044,-0.96957 -0.0815,-0.0315 -0.047,-0.0421 2.68033,-0.82586 3.33151,-0.95735 9.48805,-2.60035 9.54193,-2.54646 0.008,0.008 -0.0761,0.18609 -0.18641,0.39629 -1.61818,3.08406 -4.87665,5.71352 -8.95752,7.22839 -0.6537,0.24265 -0.92598,0.32303 -0.9019,0.26622 z"
           id="path76"
           transform="scale(0.26458333)" /><g
           id="path77"
           transform="scale(0.26458333)"><path
             style="color:#000000;fill:#ffffff;stroke-linecap:round;-inkscape-stroke:none;paint-order:stroke fill markers"
             d="m 692.07031,594.07031 c -10e-4,0 -0.007,0.001 -0.01,0.002 -0.003,4.7e-4 -0.006,10e-4 -0.01,0.002 -0.007,10e-4 -0.0156,0.003 -0.0254,0.006 -0.0195,0.005 -0.045,0.0118 -0.0781,0.0215 -0.0662,0.0194 -0.15881,0.0477 -0.2754,0.084 -0.23316,0.0726 -0.56099,0.17656 -0.95312,0.30273 -0.78426,0.25234 -1.82845,0.59452 -2.90234,0.94727 -2.14779,0.70548 -4.40984,1.45915 -4.94532,1.65625 -0.0881,0.0324 -0.15645,0.0555 -0.20117,0.0762 -0.0224,0.0104 -0.0382,0.0181 -0.0527,0.0332 -0.007,0.008 -0.0142,0.0182 -0.0156,0.0332 -0.001,0.015 0.004,0.0302 0.0117,0.0391 0.0155,0.0177 0.033,0.0245 0.0566,0.0332 0.0237,0.009 0.0537,0.0177 0.0918,0.0273 0.0762,0.0194 0.18532,0.0421 0.33008,0.0742 1.91221,0.42428 3.66995,0.69602 5.39648,0.83399 0.28456,0.0228 0.59009,0.0477 0.67774,0.0547 0.005,4.2e-4 0.0308,0.002 0.0391,0.002 0.0339,0.002 0.0744,0.002 0.16015,0.004 0.10676,0.002 0.25112,0.002 0.42188,0.004 0.34153,0.004 0.79133,0.008 1.26562,0.01 l 1.80664,0.008 -0.29882,-0.33203 c -0.64471,-0.70933 -0.90427,-1.335 -0.90625,-2.17774 -8.5e-4,-0.46991 0.0966,-0.87025 0.32617,-1.34179 0.0475,-0.0975 0.0844,-0.18694 0.10742,-0.25196 0.0115,-0.0325 0.0197,-0.0585 0.0234,-0.0801 0.002,-0.0108 0.002,-0.0188 0,-0.0312 -5.1e-4,-0.003 -4.9e-4,-0.008 -0.002,-0.0117 -10e-4,-0.004 -0.007,-0.0111 -0.008,-0.0117 -4.9e-4,-5.9e-4 -0.013,-0.0114 -0.0137,-0.0117 -6.4e-4,-3e-4 -0.0168,-0.004 -0.0176,-0.004 z m -0.0391,0.084 c -0.004,0.0132 -0.005,0.0239 -0.0117,0.043 -0.0216,0.0608 -0.0589,0.14662 -0.10547,0.24218 -0.23321,0.479 -0.33485,0.89482 -0.33398,1.375 0.002,0.85786 0.27313,1.51045 0.92578,2.22852 l 0.18945,0.20703 -1.64258,-0.008 c -0.47417,-0.002 -0.92431,-0.004 -1.26562,-0.008 -0.17066,-0.002 -0.31347,-0.004 -0.41992,-0.006 -0.10646,-0.002 -0.17758,-0.004 -0.19532,-0.006 -0.0875,-0.007 -0.39315,-0.0299 -0.67773,-0.0527 -1.72286,-0.13767 -3.47732,-0.41032 -5.38672,-0.83398 -0.14493,-0.0322 -0.25233,-0.0555 -0.32617,-0.0742 -0.0369,-0.009 -0.0666,-0.0163 -0.0859,-0.0234 0.003,-0.002 0.002,-0.002 0.006,-0.004 0.0383,-0.0177 0.10487,-0.0416 0.19336,-0.0742 0.52948,-0.19489 2.79773,-0.95083 4.94531,-1.65625 1.07379,-0.35271 2.11833,-0.69306 2.90235,-0.94532 0.39201,-0.12613 0.71842,-0.23023 0.95117,-0.30273 0.11637,-0.0362 0.20989,-0.0648 0.27539,-0.084 0.0269,-0.008 0.0452,-0.0129 0.0625,-0.0176 z"
             id="path7" /><path
             style="color:#000000;fill:#ffffff;stroke-linecap:round;-inkscape-stroke:none;paint-order:stroke fill markers"
             d="m 689.16863,598.26011 c -0.0876,-0.007 -0.39202,-0.0315 -0.67659,-0.0543 -1.7247,-0.13782 -3.48202,-0.40938 -5.39283,-0.83335 -0.57939,-0.12856 -0.56949,-0.11725 -0.21639,-0.24722 1.06495,-0.39198 9.05901,-3.01781 9.18741,-3.01781 0.0256,0 -0.0294,0.15523 -0.12342,0.34825 -0.2314,0.47527 -0.33067,0.8845 -0.32981,1.35955 0.002,0.8503 0.26698,1.4888 0.91566,2.2025 l 0.24417,0.26865 -1.7245,-0.007 c -0.94847,-0.004 -1.79614,-0.0125 -1.8837,-0.0196 z"
             id="path8" /></g><path
           style="fill:#ffffff;fill-opacity:1;stroke:#ffffff;stroke-width:0.0731903;stroke-linecap:round;stroke-dasharray:none;stroke-opacity:1;paint-order:stroke fill markers"
           d="m 699.04109,597.09971 c 0.0157,-0.0368 0.0843,-0.21922 0.15248,-0.40528 0.1192,-0.32534 0.12389,-0.36192 0.12251,-0.95519 -0.001,-0.57794 -0.009,-0.63574 -0.11377,-0.91539 -0.22615,-0.60092 -0.36067,-0.80414 -0.839,-1.26752 -0.45119,-0.43709 -0.72474,-0.61318 -1.33427,-0.8589 l -0.1791,-0.0722 0.1592,-0.0573 c 0.23802,-0.0857 3.66467,-1.06779 5.23364,-1.50001 2.64455,-0.72851 6.62497,-1.7762 6.74824,-1.7762 0.0541,0 -0.44798,0.88916 -0.79895,1.41474 -1.39641,2.09121 -3.55946,3.91572 -6.22354,5.2495 -0.94212,0.47168 -2.02155,0.92316 -2.7239,1.1393 -0.21462,0.066 -0.22993,0.0664 -0.20354,0.004 z"
           id="path78"
           transform="scale(0.26458333)" /></g><g
         id="g86"
         style="display:inline"
         transform="rotate(36.110455,174.25614,124.76928)"><path
           style="fill:#ffffff;fill-opacity:0;stroke:#000000;stroke-width:0.345077;stroke-linecap:round;stroke-dasharray:none;stroke-opacity:1;paint-order:stroke fill markers"
           d="m 187.88589,155.65156 c -4.45349,1.08979 -7.90732,2.40012 -7.97272,2.38945"
           id="path79"
           sodipodi:nodetypes="cc" /><path
           style="fill:#ffffff;fill-opacity:0;stroke:#000000;stroke-width:0.345077;stroke-linecap:round;stroke-dasharray:none;stroke-opacity:1;paint-order:stroke fill markers"
           d="m 179.91317,158.04101 c 4.97172,1.46327 7.58065,-0.92953 7.97272,-2.38945"
           id="path80"
           sodipodi:nodetypes="cc" /><path
           style="fill:#150c00;fill-opacity:1;stroke:#150c00;stroke-width:0.0676616;stroke-linecap:round;stroke-dasharray:none;stroke-opacity:1;paint-order:stroke fill markers"
           id="path81"
           sodipodi:type="arc"
           sodipodi:cx="-176.62967"
           sodipodi:cy="-165.8708"
           sodipodi:rx="0.97919196"
           sodipodi:ry="0.84048575"
           sodipodi:start="2.995179"
           sodipodi:end="2.9677492"
           sodipodi:open="true"
           sodipodi:arc-type="arc"
           d="m -177.59838,-165.74818 a 0.97919196,0.84048575 0 0 1 0.81922,-0.95326 0.97919196,0.84048575 0 0 1 1.11616,0.69662 0.97919196,0.84048575 0 0 1 -0.80392,0.96281 0.97919196,0.84048575 0 0 1 -1.12718,-0.68342"
           transform="rotate(177.38381)" /><path
           style="fill:#000000;fill-opacity:1;stroke:#000000;stroke-width:0.0139798;stroke-linecap:round;stroke-dasharray:none;stroke-opacity:1;paint-order:stroke fill markers"
           id="path82"
           sodipodi:type="arc"
           sodipodi:cx="-176.58412"
           sodipodi:cy="-165.87079"
           sodipodi:rx="0.18876959"
           sodipodi:ry="0.18611582"
           sodipodi:start="2.995179"
           sodipodi:end="2.9677492"
           sodipodi:open="true"
           sodipodi:arc-type="arc"
           d="m -176.77087,-165.84364 a 0.18876959,0.18611582 0 0 1 0.15793,-0.21108 0.18876959,0.18611582 0 0 1 0.21517,0.15426 0.18876959,0.18611582 0 0 1 -0.15498,0.2132 0.18876959,0.18611582 0 0 1 -0.2173,-0.15134"
           transform="rotate(177.38381)" /><path
           style="fill:#150c00;fill-opacity:0;stroke:#150c00;stroke-width:0.0731903;stroke-linecap:round;stroke-dasharray:none;stroke-opacity:1;paint-order:stroke fill markers"
           d="m 689.56663,598.33995 c -1.78557,-0.10512 -3.35415,-0.29349 -4.95504,-0.59506 -0.77304,-0.14562 -2.14391,-0.44611 -2.20459,-0.48324 -0.0429,-0.0263 0.53845,-0.22973 3.31897,-1.16157 2.50162,-0.83836 6.44675,-2.11202 6.54197,-2.11202 0.016,0 -0.0163,0.0594 -0.0717,0.13202 -0.0554,0.0726 -0.17135,0.28305 -0.25771,0.46764 -0.54283,1.16027 -0.29141,2.46905 0.654,3.4045 l 0.32614,0.32271 -0.38254,0.0253 c -0.36654,0.0243 -2.55575,0.0241 -2.96951,-3.1e-4 z"
           id="path83"
           transform="scale(0.26458333)" /><path
           style="fill:#ffffff;fill-opacity:1;stroke:#150c00;stroke-width:0.0731903;stroke-linecap:round;stroke-dasharray:none;stroke-opacity:1;paint-order:stroke fill markers"
           d="m 698.99271,597.1594 c 0.26453,-0.62401 0.3447,-0.95071 0.3447,-1.40454 0,-0.45715 -0.0986,-0.85913 -0.32595,-1.32858 -0.18248,-0.37683 -0.24134,-0.45625 -0.60474,-0.81589 -0.48679,-0.48175 -0.76028,-0.64848 -1.59044,-0.96957 -0.0815,-0.0315 -0.047,-0.0421 2.68033,-0.82586 3.33151,-0.95735 9.48805,-2.60035 9.54193,-2.54646 0.008,0.008 -0.0761,0.18609 -0.18641,0.39629 -1.61818,3.08406 -4.87665,5.71352 -8.95752,7.22839 -0.6537,0.24265 -0.92598,0.32303 -0.9019,0.26622 z"
           id="path84"
           transform="scale(0.26458333)" /><path
           style="fill:#ffffff;fill-opacity:1;stroke:#ffffff;stroke-width:0.0731903;stroke-linecap:round;stroke-dasharray:none;stroke-opacity:1;paint-order:stroke fill markers"
           d="m 689.16863,598.26011 c -0.0876,-0.007 -0.39202,-0.0315 -0.67659,-0.0543 -1.7247,-0.13782 -3.48202,-0.40938 -5.39283,-0.83335 -0.57939,-0.12856 -0.56949,-0.11725 -0.21639,-0.24722 1.06495,-0.39198 9.05901,-3.01781 9.18741,-3.01781 0.0256,0 -0.0294,0.15523 -0.12342,0.34825 -0.2314,0.47527 -0.33067,0.8845 -0.32981,1.35955 0.002,0.8503 0.26698,1.4888 0.91566,2.2025 l 0.24417,0.26865 -1.7245,-0.007 c -0.94847,-0.004 -1.79614,-0.0125 -1.8837,-0.0196 z"
           id="path85"
           transform="scale(0.26458333)" /><path
           style="fill:#ffffff;fill-opacity:1;stroke:#ffffff;stroke-width:0.0731903;stroke-linecap:round;stroke-dasharray:none;stroke-opacity:1;paint-order:stroke fill markers"
           d="m 699.04109,597.09971 c 0.0157,-0.0368 0.0843,-0.21922 0.15248,-0.40528 0.1192,-0.32534 0.12389,-0.36192 0.12251,-0.95519 -0.001,-0.57794 -0.009,-0.63574 -0.11377,-0.91539 -0.22615,-0.60092 -0.36067,-0.80414 -0.839,-1.26752 -0.45119,-0.43709 -0.72474,-0.61318 -1.33427,-0.8589 l -0.1791,-0.0722 0.1592,-0.0573 c 0.23802,-0.0857 3.66467,-1.06779 5.23364,-1.50001 2.64455,-0.72851 6.62497,-1.7762 6.74824,-1.7762 0.0541,0 -0.44798,0.88916 -0.79895,1.41474 -1.39641,2.09121 -3.55946,3.91572 -6.22354,5.2495 -0.94212,0.47168 -2.02155,0.92316 -2.7239,1.1393 -0.21462,0.066 -0.22993,0.0664 -0.20354,0.004 z"
           id="path86"
           transform="scale(0.26458333)" /></g><path
         style="fill:#162643;fill-opacity:0;stroke:#162643;stroke-width:0.486561;stroke-linecap:round;stroke-dasharray:none;stroke-opacity:1;paint-order:stroke fill markers"
         d="m 151.14105,152.05807 c 14.15659,3.95273 26.11704,5.19143 42.34148,-0.35393"
         id="path87"
         sodipodi:nodetypes="cc" /><path
         style="fill:#162643;fill-opacity:0;stroke:#162643;stroke-width:0.486561;stroke-linecap:round;stroke-dasharray:none;stroke-opacity:1;paint-order:stroke fill markers"
         d="m 154.12135,158.5555 c 12.19669,2.44343 24.26891,2.9922 36.10895,0.007"
         id="path88"
         sodipodi:nodetypes="cc" /><path
         style="fill:#ffffff;fill-opacity:1;stroke:#44403c;stroke-width:0.207013;stroke-linecap:round;stroke-dasharray:none;stroke-opacity:1;paint-order:stroke fill markers"
         d="m 586.94032,584.78277 c -22.23078,-0.30539 -45.5598,-4.08664 -74.94579,-12.1475 -1.22404,-0.33576 -2.36798,-0.61048 -2.54208,-0.61048 -0.25738,0 -0.33907,-0.0684 -0.43701,-0.36585 -0.0663,-0.20122 -0.62545,-1.68293 -1.24267,-3.29268 -1.31587,-3.43185 -2.94222,-7.98316 -3.27023,-9.15163 l -0.23059,-0.82144 0.24611,0.0769 c 0.13536,0.0423 1.68983,0.73499 3.45436,1.53937 7.05689,3.21693 10.08749,4.51441 14.52154,6.21704 12.69916,4.87634 25.69823,8.41887 39.23067,10.69123 4.08184,0.68542 7.1429,1.10447 9.84988,1.34844 11.37164,1.02485 28.85732,0.9217 38.66782,-0.22812 8.0081,-0.93858 18.35688,-3.05546 26.90899,-5.50434 10.00086,-2.86372 18.27861,-6.00178 29.30117,-11.10793 5.32465,-2.46663 7.85339,-3.55483 7.97591,-3.4323 0.13404,0.13403 -1.84862,5.69573 -3.78805,10.6261 -0.75667,1.92362 -0.82659,2.05441 -1.09821,2.05441 -0.15954,0 -1.99226,0.56167 -4.07269,1.24817 -27.31079,9.01194 -52.95672,13.21195 -78.52913,12.86065 z"
         id="path89"
         transform="matrix(0.26458333,0,0,0.26458333,16.343013,0.46333283)" /><path
         style="fill:#ffffff;fill-opacity:1;stroke:#ffffff;stroke-width:0.207013;stroke-linecap:round;stroke-dasharray:none;stroke-opacity:1;paint-order:stroke fill markers"
         d="m 584.21294,648.85399 c -4.57694,-0.52115 -9.85644,-1.88965 -14.59428,-3.78299 -2.30197,-0.91992 -6.69391,-3.10488 -8.9691,-4.46209 -13.45613,-8.02686 -27.00932,-22.26587 -37.10086,-38.97819 -1.78017,-2.94809 -1.78626,-2.95947 -1.54445,-2.88513 0.5678,0.17457 9.93321,1.87527 13.66041,2.48064 6.46183,1.04953 9.20237,1.45031 14.69039,2.14832 25.27355,3.21451 48.0573,3.68516 70.58143,1.45802 10.91976,-1.07972 22.3146,-2.97414 32.90706,-5.47088 1.32031,-0.31121 2.42847,-0.53794 2.46257,-0.50383 0.11397,0.11395 -2.84487,5.0332 -5.10863,8.49342 -5.1594,7.88629 -10.42996,14.36905 -16.76972,20.62665 -4.66815,4.60765 -9.21047,8.33596 -14.05413,11.53552 -2.66239,1.75869 -3.7386,2.38718 -6.13507,3.58278 -5.67077,2.82915 -12.52284,4.77757 -19.86861,5.64973 -2.17763,0.25855 -8.26636,0.32331 -10.15701,0.10803 z"
         id="path90"
         transform="matrix(0.26458333,0,0,0.26458333,16.343013,0.46333283)" /><path
         style="fill:#162643;fill-opacity:1;stroke:#162643;stroke-width:1.17104;stroke-linecap:round;stroke-dasharray:none;stroke-opacity:1;paint-order:stroke fill markers"
         d="m 578.84434,571.78487 c -21.51544,-2.14239 -36.89725,-5.74024 -54.76415,-12.80947 -15.50786,-6.13586 -29.46732,-13.58005 -44.25708,-23.60107 -8.07766,-5.47314 -19.10377,-14.01509 -19.10377,-14.79973 0,-0.23647 11.39062,-5.87674 25.3125,-12.53393 20.37292,-9.74197 28.23275,-13.8812 40.27712,-21.21117 43.33392,-26.37219 47.02285,-28.40796 55.01386,-30.36004 9.10976,-2.22538 14.53287,-0.0365 40.97743,16.5397 28.97838,18.16441 32.58608,20.15434 62.03143,34.21508 15.53149,7.4166 28.43549,13.67014 28.67556,13.89676 0.85576,0.8078 -14.64012,12.8542 -26.54498,20.63588 -23.05484,15.06993 -47.95337,24.78359 -73.18789,28.55276 -7.92171,1.18323 -28.50533,2.06518 -34.43003,1.47523 z"
         id="path91"
         transform="matrix(0.26458333,0,0,0.26458333,16.343013,0.46333283)" /><g
         id="text58"
         inkscape:label="initials"
         transform="matrix(0.44176735,-0.33266808,0.25440185,0.33783351,86.176332,147.32952)"><path
           style="color:#000000;-inkscape-font-specification:'French Script MT, Normal';fill:#000000;fill-opacity:0;stroke-linecap:round;-inkscape-stroke:none;paint-order:stroke fill markers"
           d="m 175.3418,145.02734 -0.71875,0.67969 c -0.0986,-0.0189 -0.22954,-0.0459 -0.40039,-0.084 l -0.008,-0.002 c -0.43219,-0.10017 -0.84012,-0.156 -1.22851,-0.16015 -0.81602,-0.008 -1.59032,0.21449 -2.19141,0.69726 -0.58363,0.46857 -0.9656,1.17516 -0.97265,1.91407 -0.004,0.41917 0.12958,0.87998 0.43554,1.21289 l 0.006,0.006 0.006,0.006 c 0.0606,0.0633 0.16471,0.0478 0.23633,0.0996 -0.18844,0.10155 -0.42964,0.0765 -0.58984,0.22071 -0.37921,0.33982 -0.49881,0.85192 -0.61719,1.34375 l -0.27539,0.29492 c -0.2114,0.22762 -0.17548,0.18957 -0.21875,0.2168 -0.0384,-0.16237 -0.0698,-0.26145 -0.12891,-0.64649 l -0.002,-0.002 -0.11719,-0.74024 v -0.006 c -0.0288,-0.16995 -0.11875,-0.29485 -0.18555,-0.43554 0.12188,-0.0927 0.29234,-0.10197 0.39649,-0.21485 0.38045,-0.4123 0.63544,-0.93173 0.71679,-1.48437 0.10205,-0.69302 -0.10634,-1.43406 -0.58398,-1.94336 -0.47433,-0.50748 -1.14011,-0.78575 -1.87891,-0.89453 -1.079,-0.15889 -2.14334,0.0768 -3.02343,0.68555 -0.85729,0.59616 -1.44405,1.45088 -1.58789,2.42773 -0.0752,0.51036 -0.011,1.05065 0.26953,1.49805 0.0645,0.10289 0.21415,0.10592 0.30078,0.19336 l -0.72656,0.082 -0.008,0.75586 c -0.006,0.56875 0.1795,1.14737 0.56055,1.57226 0.35826,0.3995 0.86409,0.66408 1.39453,0.74219 0.76076,0.11202 1.54896,-0.15793 2.12305,-0.68359 0.11004,-0.10073 0.10732,-0.27992 0.20117,-0.39454 0.0441,0.1848 0.077,0.37291 0.16211,0.54102 l 0.002,0.004 0.002,0.004 c 0.13755,0.26562 0.32676,0.50918 0.5625,0.70117 0.2442,0.19894 0.55141,0.33998 0.86914,0.38672 0.60826,0.0896 1.15871,-0.17811 1.66211,-0.55468 0.0123,0.0115 0.007,0.0338 0.0195,0.0449 l 0.002,0.002 0.002,0.002 c 0.47472,0.41773 1.10793,0.60917 1.75586,0.61524 0.87885,0.009 1.71969,-0.32765 2.34571,-0.94141 0.23192,-0.2273 0.21803,-0.57201 0.37304,-0.84765 0.14313,0.51481 0.41984,1.00365 0.86328,1.30664 0.44909,0.3068 1.01836,0.42036 1.55469,0.35351 0.55711,-0.0694 1.03766,-0.36267 1.45313,-0.73633 0.38005,0.25748 0.81711,0.43387 1.25781,0.37891 0.66562,-0.083 1.23969,-0.55204 1.5625,-1.13086 v -0.002 l 0.002,-0.002 c 0.32222,-0.5833 0.43405,-1.26374 0.34961,-1.9414 -0.07,-0.5619 -0.28382,-1.09738 -0.67187,-1.49805 -0.16903,-0.17452 -0.42929,-0.2004 -0.64258,-0.3125 0.12614,-0.37651 0.38126,-0.72049 0.33203,-1.11523 -0.0807,-0.64729 -0.43235,-1.26573 -0.9707,-1.63282 -0.53932,-0.37239 -1.21739,-0.48972 -1.88672,-0.40625 -0.62388,0.0778 -1.19327,0.36661 -1.72656,0.7168 z m 3.64648,1.01563 0.004,0.002 c -0.001,-7.5e-4 -0.003,7.5e-4 -0.004,0 -1.3e-4,-9e-5 1.3e-4,-0.002 0,-0.002 z m -13.41797,1.17773 c -0.12442,0.23914 -0.17525,0.53983 -0.24804,0.82032 l -0.17188,-0.17774 -0.52344,0.49414 c -0.008,-0.046 -0.0277,-0.0577 -0.0117,-0.16601 0.0585,-0.39705 0.20639,-0.63265 0.60157,-0.88868 h 0.002 l 0.002,-0.002 c 0.11826,-0.0772 0.2369,-0.0333 0.34961,-0.0801 z m 11.13867,0.4668 c -0.0682,0.31086 -0.0506,0.64612 -0.041,0.97852 l -0.63867,-0.26563 c 0.0669,-0.13624 0.015,-0.25567 0.15039,-0.41406 0.16222,-0.18831 0.3601,-0.19271 0.52929,-0.29883 z m 3.38282,1.25781 0.008,0.006 c -0.002,-0.001 -0.004,-5.7e-4 -0.006,-0.002 -10e-4,-9.7e-4 -8.2e-4,-0.003 -0.002,-0.004 z m -15.04688,1.41992 c -0.007,0.0608 -0.005,0.13485 -0.0137,0.19336 -0.0171,0.11623 -0.071,0.14381 -0.10156,0.21875 l -0.23438,-0.35547 c 0.11624,-0.031 0.23957,-0.006 0.34961,-0.0566 z m 14.03516,0.10743 c 0.0628,0.0994 0.13969,0.16192 0.16601,0.37304 0.004,0.0327 -0.006,0.0278 -0.004,0.0566 l -0.21875,-0.16992 c 0.006,-0.0908 0.0571,-0.16793 0.0566,-0.25976 z m -2.14844,0.10937 c 0.001,0.009 0.007,0.0369 0.008,0.0449 0.0526,0.42227 -0.0105,0.66547 -0.11523,0.83594 l -0.002,0.002 v 0.002 c -0.11578,0.19102 -0.14822,0.19913 -0.28907,0.21679 l 0.0996,-0.24218 -0.17969,-0.42188 c 0.10775,-0.073 0.25278,-0.0804 0.3418,-0.17187 0.0712,-0.0732 0.0782,-0.18347 0.13672,-0.26563 z m -12.01562,0.22656 c -0.0414,0.09 -0.0645,0.21944 -0.12891,0.2793 -0.0654,0.0607 -0.10456,0.0403 -0.14063,0.0469 z"
           id="path5" /><path
           style="color:#000000;-inkscape-font-specification:'French Script MT, Normal';fill:#ffffff;stroke-linecap:round;-inkscape-stroke:none;paint-order:stroke fill markers"
           d="m 169.78271,151.97987 q -0.76717,0.90594 -1.53541,0.79282 -0.24812,-0.0365 -0.45272,-0.20317 -0.20459,-0.16663 -0.34124,-0.43051 -0.13595,-0.26865 -0.15542,-0.50064 l -0.0514,-0.74372 q -0.0626,-0.83311 -0.13776,-1.11719 -0.0697,-0.28814 -0.3122,-0.36285 l 0.0162,-0.10975 q 0.4209,-0.0111 0.78349,-0.4209 0.36737,-0.40904 0.44466,-0.93393 0.0998,-0.67758 -0.31486,-1.17252 -0.40987,-0.49424 -1.16379,-0.60525 -0.96388,-0.14193 -1.8107,0.41102 -0.84612,0.54818 -0.98383,1.48343 -0.0731,0.49625 0.11984,0.84154 0.19291,0.34529 0.54602,0.39729 0.38173,0.0562 0.69336,-0.23916 l 0.089,0.0911 q -0.43997,0.63723 -1.12709,0.53605 -0.45331,-0.0667 -0.68229,-0.43197 -0.22898,-0.36523 -0.14747,-0.91874 0.16301,-1.10703 1.22754,-1.84731 1.06931,-0.73957 2.41015,-0.54213 0.91616,0.1349 1.37921,0.6321 0.46783,0.4979 0.35963,1.23274 -0.0857,0.58214 -0.49759,1.02851 -0.41186,0.44637 -1.00162,0.54478 0.19871,0.10727 0.36947,0.37129 0.17145,0.25925 0.20538,0.45926 l 0.11621,0.73375 q 0.13934,0.9078 0.25072,1.17771 0.11616,0.27061 0.46449,0.3219 0.4724,0.0696 1.10971,-0.61662 z m -2.52432,-5.10546 q -0.53367,0.37968 -0.63766,1.08588 -0.0408,0.27676 -0.0309,1.00461 0.0146,0.72854 -0.0557,1.20571 -0.14545,0.98774 -0.78779,1.57567 -0.63686,0.58387 -1.41942,0.46864 -0.53443,-0.0787 -0.88199,-0.46626 -0.34757,-0.38756 -0.34157,-0.99119 l 0.72884,-0.0828 0.0359,0.054 q -0.1481,0.17807 -0.18112,0.40234 -0.0436,0.29584 0.15582,0.56408 0.19938,0.26824 0.57158,0.32305 0.54397,0.0801 0.95624,-0.30283 0.41227,-0.38293 0.50783,-1.03188 0.0787,-0.53443 0.0813,-1.14831 0.008,-0.61795 0.0306,-0.77064 0.11031,-0.74916 0.35095,-1.19149 0.24064,-0.44233 0.8501,-0.8401 z m 7.87267,-0.27917 q -0.40383,0.35294 -0.98258,0.34722 -0.22185,-0.002 -0.30842,-0.0272 -0.3992,0.37227 -0.40579,1.03783 -0.004,0.40995 0.24508,1.06839 0.25394,0.65849 0.30881,0.96291 0.0549,0.29959 0.0524,0.55038 -0.009,0.93564 -0.7301,1.64237 -0.72085,0.70673 -1.73848,0.69666 -0.74755,-0.007 -1.19704,-0.40253 -0.44467,-0.39509 -0.43842,-1.02689 0.007,-0.70414 0.552,-1.19074 0.54508,-0.49141 1.29745,-0.48397 0.4003,0.004 0.62015,0.20872 0.2199,0.19993 0.21641,0.552 -0.004,0.44371 -0.35927,0.72478 -0.35002,0.27629 -1.01586,0.29864 l 0.001,-0.12539 q 0.89825,-0.1117 0.9044,-0.73386 0.003,-0.29419 -0.18824,-0.47455 -0.18633,-0.1803 -0.50464,-0.18345 -0.46782,-0.005 -0.77471,0.30103 -0.3069,0.30566 -0.312,0.82171 -0.006,0.61251 0.40465,1.02656 0.41554,0.41409 1.04252,0.4203 0.70896,0.007 1.20581,-0.48489 0.50167,-0.49184 0.50873,-1.20563 0.004,-0.44853 -0.28614,-1.30514 -0.2857,-0.86139 -0.28146,-1.29062 0.008,-0.8199 0.64597,-1.42616 -0.70252,-0.17094 -1.2041,-0.1759 -0.62698,-0.006 -1.00617,0.29392 -0.37914,0.2953 -0.38411,0.79688 -0.003,0.31349 0.16867,0.5033 0.17658,0.18986 0.42738,0.19234 0.16397,0.002 0.30021,-0.11762 0.14105,-0.11919 0.18665,-0.34061 l 0.13022,0.001 q -0.0619,0.89653 -0.77089,0.88952 -0.35207,-0.003 -0.57168,-0.23235 -0.21474,-0.23365 -0.21088,-0.6243 0.007,-0.73308 0.6539,-1.25244 0.64664,-0.51935 1.64498,-0.50947 0.46782,0.005 1.05011,0.14062 0.58715,0.13121 0.70772,0.1324 0.19774,0.002 0.33407,-0.12692 z m 3.91676,2.20379 q 1.2688,0.19664 1.4281,1.47452 0.0984,0.7897 -0.25052,1.42133 -0.34958,0.62683 -0.91912,0.69784 -0.6222,0.0776 -0.95764,-0.42985 0.0802,-0.0975 0.43503,-0.33128 0.0431,0.0335 0.0562,0.061 0.16975,0.46488 0.6005,0.41118 0.34459,-0.043 0.53615,-0.41679 0.19096,-0.37862 0.11996,-0.94817 -0.0925,-0.74184 -0.56017,-1.14042 -0.4635,-0.40396 -1.13356,-0.32043 l -0.0299,-0.0838 q 0.38713,-0.20866 0.58348,-0.62197 0.20115,-0.41392 0.14864,-0.83509 -0.077,-0.61741 -0.60987,-0.99327 -0.52812,-0.37647 -1.21253,-0.29115 -1.02423,0.12769 -1.75435,0.97695 -0.72534,0.84866 -0.6084,1.78673 0.0561,0.44989 0.2965,0.70183 0.23981,0.24715 0.56526,0.20657 0.38289,-0.0477 0.64571,-0.62973 l 0.10766,0.0449 q -0.0953,0.44446 -0.35379,0.70999 -0.25852,0.26553 -0.60791,0.30909 -0.3781,0.0471 -0.64841,-0.2108 -0.26554,-0.25852 -0.32222,-0.7132 -0.0925,-0.74184 0.28766,-1.55233 0.38015,-0.81048 1.10838,-1.36301 0.73243,-0.55792 1.59392,-0.66532 0.78014,-0.0973 1.2963,0.26126 0.52035,0.35313 0.60507,1.03275 0.0955,0.76578 -0.44616,1.45058 z m -0.99308,-1.8058 q -0.26639,0.55328 -0.19002,1.1659 0.0406,0.32545 0.22521,0.98776 0.18942,0.66171 0.23238,1.00631 0.12411,0.9955 -0.37566,1.74313 -0.49977,0.74764 -1.3517,0.85384 -0.55518,0.0692 -0.96429,-0.21029 -0.4091,-0.27952 -0.55488,-0.86404 0.24773,-0.15725 0.60013,-0.29354 l 0.0275,0.0646 q -0.082,0.19979 -0.0564,0.40559 0.0394,0.31588 0.32288,0.52356 0.28349,0.20768 0.66638,0.15995 0.5839,-0.0728 0.9185,-0.62486 0.33938,-0.55266 0.23496,-1.39022 -0.0328,-0.26324 -0.14511,-0.77417 -0.11231,-0.51093 -0.14393,-0.76459 -0.15454,-1.2396 0.4679,-2.05599 z"
           id="path6" /></g><g
         id="text91"
         transform="matrix(1.1099185,0.02719391,-0.02449346,0.99969999,-16.240331,-6.8542381)"><path
           style="color:#000000;-inkscape-font-specification:'French Script MT, Normal';fill:#ffffff;stroke-linecap:round;-inkscape-stroke:none;paint-order:stroke fill markers"
           d="m 181.66406,165.24805 -0.10937,0.0625 c -0.44187,0.25752 -0.95416,0.53427 -1.52735,0.82812 l -0.6289,0.0293 0.73242,1.8125 0.35351,-0.0273 0.0293,0.0703 -0.16406,0.0215 0.0195,-0.043 -0.17383,0.0625 -0.0293,0.002 0.002,0.008 -0.78711,0.2793 0.25781,0.72265 0.89453,-0.31836 c -0.15694,0.18956 -0.28833,0.39124 -0.51367,0.54688 l -0.22461,0.15625 0.67774,0.54883 0.12695,-0.0996 c 0.36728,-0.28747 0.63821,-0.61638 0.8457,-0.96875 0.0158,-0.007 0.0311,-0.0113 0.0488,-0.0234 0.0343,-0.0234 0.0862,-0.064 0.10352,-0.15039 0.0173,-0.0864 -0.0286,-0.17075 -0.0645,-0.20703 -0.0358,-0.0363 -0.0661,-0.0524 -0.0957,-0.0664 l -0.006,-0.002 -0.006,-0.004 -0.0664,-0.0254 0.42579,-0.15234 -0.125,0.31054 0.18945,0.0762 c 0.48517,0.19412 0.9983,0.26537 1.52734,0.21093 l 0.16602,-0.0176 0.084,-0.82421 -0.24804,0.0234 c -0.31034,0.0288 -0.52819,-0.0357 -0.77344,-0.0723 l 0.83984,-0.29883 -0.25781,-0.7207 -0.96094,0.34179 -0.125,-0.34765 0.71875,-0.25586 -0.24023,-0.67578 -2.11524,0.7539 -0.0352,-0.0898 c 0.56415,-0.25387 1.106,-0.50142 1.60156,-0.74024 l -0.0859,0.0195 c 0.0661,-0.001 0.1192,0.0131 0.2168,-0.0566 0.0488,-0.0349 0.10327,-0.12952 0.0957,-0.20704 -0.008,-0.0775 -0.0416,-0.11642 -0.0664,-0.14453 l -0.0195,-0.0215 -0.0234,-0.0156 z m -17.18554,0.64648 -0.20508,0.6875 0.31054,0.0918 -0.54101,1.82422 -0.4043,-0.10157 -0.0644,0.71094 0.0293,0.0547 c 0.0154,0.0284 0.0331,0.0606 0.0762,0.0937 0.0431,0.0332 0.12943,0.0589 0.19922,0.041 0.0349,-0.009 0.0233,-0.0296 0.0449,-0.043 l 1.07812,0.14648 -0.16992,-0.25977 0.25586,-0.0195 0.084,0.0156 -0.16406,0.55273 -0.11523,-0.0351 0.13867,0.25586 0.22461,-0.75782 0.004,-0.0156 0.01,-0.0293 0.3457,-0.0254 0.57422,-1.92969 0.0899,0.0254 -0.56446,1.89649 0.34766,-0.0273 -0.23438,0.78711 -0.35156,0.043 -0.10351,0.34766 0.70312,0.20898 0.15235,-0.51172 0.5039,0.14844 c 0.18105,0.0538 0.37876,0.039 0.5293,-0.0664 0.11903,-0.0833 0.17957,-0.22773 0.23828,-0.375 l -0.54688,0.0664 c 0.0324,-0.0121 0.0705,0.005 0.0977,-0.0156 0.0988,-0.0761 0.14885,-0.18196 0.18359,-0.29883 0.0358,-0.12043 -0.0874,-0.28224 -0.0996,-0.41406 l 0.29882,-0.0234 c -0.0328,-0.19715 -0.0181,-0.38865 -0.13086,-0.5918 l 0.26563,-0.33984 c 0.049,0.087 0.0937,0.1759 0.13281,0.26367 l 0.0195,0.0449 -0.0684,0.60547 0.2793,-0.0195 -0.008,0.0781 -0.0684,0.59961 -0.28125,0.0352 -0.0586,0.5293 c -0.0133,-5.3e-4 -0.0297,-0.001 -0.043,-0.002 l -0.2168,-0.008 0.004,0.2168 0.01,0.50781 0.19727,0.004 c 0.52209,0.007 1.15084,0.0227 1.88672,0.0488 l 0.18945,0.008 0.0215,-0.18946 c 10e-4,-0.013 0.004,-0.0242 0.006,-0.0371 l 0.0664,-0.0742 c 0.2239,-0.24858 0.35759,-0.53183 0.5332,-0.79883 l -0.16211,1.44336 0.69531,0.0801 0.16602,-1.46289 c 0.10273,0.28542 0.16657,0.60191 0.30859,0.85546 l 0.1875,0.33204 0.17383,-0.33985 c 0.0633,-0.1229 0.12391,-0.22475 0.17969,-0.30664 l 0.0117,-0.0195 0.01,-0.0215 0.0352,0.70117 0.73242,-0.0371 -0.0156,-0.32227 0.30468,-0.0156 0.01,0.19336 0.73242,-0.0371 -0.0742,-1.45703 0.0527,0.0586 0.0781,-0.0977 c 0.17814,0.15232 0.34247,0.32476 0.49414,0.51953 l 0.1543,0.19727 0.16406,-0.18945 0.32032,-0.375 0.006,0.64648 c -8.9e-4,0.0681 -0.0171,0.0971 -0.0176,0.0977 -4.5e-4,5.9e-4 0.0142,-0.002 -0.0176,0 l -0.66016,0.0351 0.15039,0.70899 0.62891,-0.0312 c 0.21128,-0.0108 0.40883,-0.10096 0.52734,-0.26563 0.11781,-0.16368 0.1561,-0.37445 0.15039,-0.61523 v -0.004 l -0.0176,-1.24023 0.006,0.0254 1.5254,-0.31445 0.22851,1.10742 -1.33398,0.27539 0.15429,0.75 3.40235,-0.69922 -0.1543,-0.75 -1.30273,0.26758 -0.22852,-1.10938 0.56445,-0.11523 -0.94531,0.11523 -0.0449,-0.21679 1.95703,-0.14844 -0.14453,-0.70117 -0.20117,0.041 -1.33985,0.27539 -0.11914,-0.58203 c 0.001,-0.002 0.003,-0.003 0.004,-0.006 0.0234,-0.0426 0.0513,-0.11533 0.0215,-0.20312 -0.0298,-0.0878 -0.10811,-0.134 -0.1582,-0.15039 -0.0501,-0.0164 -0.0886,-0.0178 -0.12891,-0.0176 h -0.0215 l -0.56836,0.11719 0.20508,1 -1.38672,0.28515 -0.006,-0.42187 -1.11328,0.0566 c 0.0105,-0.0499 0.0245,-0.10222 0.0332,-0.15039 0.0401,-0.0259 0.093,-0.0544 0.10352,-0.14649 0.0131,-0.11433 -0.0595,-0.18461 -0.0977,-0.21289 -0.0381,-0.0283 -0.0692,-0.0395 -0.10351,-0.0527 l -0.01,-0.004 -0.5918,-0.16406 -0.0215,0.24414 c -0.0288,0.31513 -0.18258,0.47616 -0.27149,0.7168 l -0.01,-0.17969 -0.51172,0.0254 c 0.0162,-0.0545 0.0396,-0.11466 0.0508,-0.16602 0.0245,-0.0189 0.0476,-0.002 0.0703,-0.0449 0.0339,-0.0636 0.0279,-0.1534 0.006,-0.20312 -0.0221,-0.0497 -0.0483,-0.076 -0.0723,-0.0977 l -0.0332,-0.0293 -0.66796,-0.21289 -0.0352,0.23828 c -0.0313,0.21186 -0.0701,0.3853 -0.10938,0.55469 l -0.46484,0.0254 0.0215,0.43164 -0.58008,-0.0664 0.041,-0.36914 c 0.20827,-0.003 0.41597,-0.006 0.60742,-0.0137 l 0.24024,-0.01 -0.14649,-0.70117 -0.17382,0.01 c -0.53064,0.0285 -1.10113,0.0261 -1.71094,-0.008 l -0.26563,-0.0156 0.0234,0.11328 -0.69922,-0.0781 c 0.0155,-0.0246 0.0316,-0.0473 0.0469,-0.0723 l 0.13086,-0.21485 -0.69141,-0.25195 -0.0859,0.15234 c -0.0858,0.15284 -0.2037,0.2471 -0.30078,0.37891 l -0.34375,-0.45313 -0.20117,0.10938 -0.87109,-0.25977 0.004,-0.0156 z m 0.80859,0.98828 0.19922,0.0586 -0.0352,0.12109 -0.19922,-0.0586 z m 16.12305,0.35547 0.125,0.34766 -0.66211,0.23633 -0.13672,-0.34375 z m -11.72266,0.0996 0.0117,0.0566 c 0.0186,0.0918 0.0373,0.19102 0.0547,0.29688 l 0.0273,0.16601 0.16797,0.006 c 0.15117,0.004 0.29591,0.007 0.4414,0.01 l -0.0332,0.28906 -0.56445,-0.0625 0.0117,-0.10938 -0.31836,-0.0351 c 0.0392,-0.0473 0.0747,-0.0864 0.11523,-0.13672 l 0.0371,-0.0469 z m -2.71094,0.0645 0.0781,0.0234 -0.15039,0.21875 z m 7.00196,0.11524 c -0.0222,0.12236 -0.0463,0.24799 -0.082,0.38672 l -0.043,0.16601 -0.0274,0.002 -0.041,0.13867 c -0.0271,0.09 -0.10104,0.17359 -0.14063,0.26172 l 0.38672,-0.0293 -0.0391,0.0293 0.11133,-0.006 c 0.004,-0.0107 0.0119,-0.0206 0.0156,-0.0312 l 0.59961,-0.0449 v 0.0449 l 0.21289,-0.01 -0.0508,-0.0469 0.18164,-0.0137 0.006,0.33008 -0.34766,0.043 0.006,0.625 -0.0371,-0.0469 c -0.1346,-0.17145 -0.31621,-0.33987 -0.51758,-0.50977 l -0.26757,0.0332 c 0.0337,-0.0609 0.069,-0.12144 0.0976,-0.18359 l -0.0469,-0.0391 -0.20508,0.24023 -0.21484,0.0274 -0.0605,-0.0664 c 0.0229,-0.0304 0.0234,-0.0816 0.0449,-0.11328 -0.0198,0.0336 -0.0329,0.0682 -0.0547,0.10156 l -0.0332,-0.0352 -0.0156,-0.28125 0.1914,-0.0156 c 0.15673,-0.28939 0.312,-0.57964 0.3711,-0.95703 z m -8.93165,0.17383 0.19922,0.0586 -0.0312,0.10547 -0.19922,-0.0586 z m 3.47657,0.0996 0.18945,0.0215 c -0.0137,0.0163 -0.0251,0.0346 -0.0391,0.0508 l -0.19141,-0.0234 c 0.0137,-0.0165 0.0274,-0.0321 0.041,-0.0488 z m 13.33789,0.0586 -0.041,0.0137 -1.23437,0.15234 -0.0273,-0.0684 z m -4.54688,0.34375 0.0449,0.2207 -0.26953,0.0332 -0.12109,-0.0801 0.0195,0.0918 -1.51172,0.18555 -0.004,-0.31055 1.01953,-0.0781 -0.88867,0.18359 0.24023,0.15821 -0.0293,-0.14844 1.08399,-0.22461 z m -1.9414,0.14844 0.0644,0.30859 -0.30859,0.0371 -0.002,-0.32813 z m 7.66601,0.11718 c 0.048,-3e-5 0.0856,0.0154 0.13477,0.0137 v 0.006 c -0.0467,0.002 -0.0886,-0.0195 -0.13477,-0.0195 z m -18.22656,0.0254 0.19727,0.0586 -0.041,0.14062 -0.20508,-0.0391 z m 8.37305,0.0234 c -0.0389,0.0553 -0.0363,0.16141 -0.0801,0.21094 l -0.0117,-0.20508 z m -0.17578,0.0117 0.0156,0.29883 -0.0527,0.0586 0.0586,0.0625 v 0.008 l -0.25586,0.0312 0.13086,-0.14454 -0.20508,0.01 0.006,0.14258 -0.30078,0.0371 -0.008,-0.16407 -0.20508,0.01 0.17578,0.16016 -0.28711,0.0351 -0.0234,-0.47265 0.32422,-0.0234 -0.002,-0.0117 0.30469,-0.0176 v 0.006 l 0.20507,-0.0156 z m -6.36915,0.0156 c 0.0855,0.18518 0.11826,0.33051 0.12696,0.45898 l 0.29492,-0.0234 c 0.0248,0.14256 0.14593,0.31846 0.10937,0.44141 -0.0447,0.15023 -0.10278,0.22664 -0.14453,0.25586 -0.0417,0.0292 -0.079,0.0391 -0.17773,0.01 l -0.20703,-0.0605 0.0195,-0.13672 -0.26172,0.16992 0.26953,0.0801 -0.40039,0.0488 0.16406,-0.54688 -0.14648,-0.043 -0.0801,0.59766 -0.28711,0.0352 0.23242,-0.78125 0.34571,-0.0274 z m 5.33399,0.0645 0.0234,0.47461 -0.32227,0.0391 0.0547,1.10352 -0.0137,-0.0215 c -0.17941,-0.26178 -0.29591,-0.6615 -0.42383,-1.03515 l -0.24414,0.0312 c -0.0213,-0.0863 -0.0679,-0.14901 -0.0859,-0.23829 l -0.18555,0.008 c 0.007,0.0247 0.0185,0.0401 0.0254,0.0644 l -0.16601,0.006 -0.0801,-0.0215 -0.008,0.0644 -0.15625,-0.043 c 0.0109,-0.0198 0.0284,-0.0367 0.0391,-0.0566 l -0.15039,-0.043 c -0.0632,0.13637 -0.1821,0.25447 -0.25781,0.38672 l -0.35938,0.043 c -0.005,0.007 -0.0103,0.0144 -0.0156,0.0215 l 0.002,-0.0195 -0.28125,0.0352 0.0273,-0.24805 0.0195,-0.16406 0.0215,-0.19531 0.23242,-0.0176 0.0469,0.006 v -0.01 l 0.38867,-0.0293 c -0.0142,0.0272 -0.04,0.0492 -0.0547,0.0762 l 0.33984,0.0391 -0.0742,-0.13086 0.30078,-0.0234 0.041,-0.0879 0.0195,0.084 0.40235,-0.0312 -0.21289,0.24218 0.33789,0.0391 c -0.0317,-0.10758 -0.0857,-0.16538 -0.11328,-0.28125 l 0.0488,-0.004 0.32813,0.0371 -0.008,0.0703 0.18164,-0.14453 0.008,-0.002 0.0195,0.37695 0.17383,0.0195 0.0469,-0.41406 z m 9.08008,0.18164 0.002,0.002 c -0.14991,0.24197 -0.35256,0.47023 -0.60352,0.68555 l -0.0215,-0.0176 c 0.24517,-0.19932 0.45802,-0.42041 0.62305,-0.66992 z m -11.75196,0.0195 -0.0195,0.16992 -0.53711,-0.0586 v -0.002 l 0.008,-0.0664 0.26953,-0.0215 -0.01,0.0801 0.10938,-0.0879 z m -0.68359,0.0527 -0.006,0.041 -0.2207,-0.0234 z M 168.05469,169 l 0.0723,0.008 0.46875,0.0527 -0.0488,0.43945 -0.18359,0.0215 0.11914,-0.0937 -0.19531,-0.0215 0.0156,-0.13477 0.19532,0.0234 -0.17969,-0.22656 -0.0391,0.33594 -0.19532,-0.0215 0.125,0.15821 -0.21875,0.0273 z m 0.67383,0.0762 0.5371,0.0586 -0.0332,0.27929 -0.26953,0.0332 0.0117,-0.0996 0.19141,0.0215 -0.17969,-0.22461 -0.0352,0.30469 -0.13281,0.0176 -0.0625,-0.008 0.01,0.0137 -0.084,0.01 z m 5.28515,0.14453 c 0.0863,0.0789 0.16891,0.15666 0.23633,0.23242 l -0.006,0.008 c -0.0741,-0.0841 -0.15082,-0.16383 -0.23047,-0.24024 z m -3.7793,0.0332 -0.004,0.0371 -0.0254,0.004 c 0.009,-0.0141 0.0205,-0.0269 0.0293,-0.041 z m -3.42773,0.0898 c -4e-4,5.8e-4 -0.006,0.0121 -0.006,0.0117 0.004,-0.003 0.0338,-0.003 0.0117,-0.01 z m 5.92969,0.2168 0.0234,0.43359 -0.30274,0.0156 -0.0234,-0.4336 z m -7.36133,0.33007 -0.79492,0.0977 0.70312,0.20899 z m 2.83789,0.17188 0.66016,0.0742 -0.006,0.0586 c -0.22939,-0.008 -0.44797,-0.0155 -0.66602,-0.0234 z"
           id="path1" /><path
           style="color:#000000;-inkscape-font-specification:'French Script MT, Normal';fill:#000000;stroke-linecap:round;-inkscape-stroke:none;paint-order:stroke fill markers"
           d="m 165.02882,169.19826 -1.15451,-0.15715 q -0.0479,0.10419 -0.0916,0.0235 l 0.0378,-0.41173 0.36215,0.0908 0.65628,-2.20735 -0.31089,-0.0924 0.0878,-0.29535 1.78764,0.53149 -0.0878,0.29535 -0.26426,-0.0786 -0.90585,3.04676 -0.3109,-0.0924 z m 0.0832,-0.2798 0.15252,-0.51298 -0.5907,-0.17562 -0.171,0.57515 z m 0.38823,-1.30576 -0.5907,-0.17562 -0.1479,0.49743 0.5907,0.17562 z m 0.0878,-0.29535 0.15251,-0.51297 -0.5907,-0.17562 -0.15251,0.51297 z m 1.25156,-0.16929 -0.90122,3.03122 -0.3109,-0.0924 0.98904,-3.32656 0.93268,0.2773 0.121,-0.0655 0.23065,0.30544 q 0.0437,0.0807 -0.0697,0.0639 l -0.7386,0.9478 q 0.43188,0.65288 0.27475,1.1814 -0.15714,0.52852 -0.57685,0.40374 l -0.37307,-0.11092 0.0412,-0.30922 0.29535,0.0878 q 0.20208,0.0601 0.28527,-0.21972 0.12478,-0.41971 -0.28231,-1.09906 l 0.62685,-0.91335 z m 0.90142,0.75353 q 0.46637,-0.40837 0.80865,-1.01844 l 0.29396,0.10664 q -0.11002,0.17934 -0.22673,0.34568 l 0.85408,0.0965 -0.0291,0.25783 q -0.18982,0.23561 -0.35806,0.42469 l 0.49553,0.056 -0.21751,1.92571 -0.27395,-0.0309 0.0123,-0.10878 -1.0676,-0.12058 -0.0196,0.17323 -0.27395,-0.0309 0.20795,-1.84111 q -0.0314,0.025 -0.0592,0.0545 -0.0651,-0.14608 -0.14677,-0.28995 z m 3.80799,2.40895 q -0.0929,0.13638 -0.19222,0.32917 -0.40745,-0.72739 -0.59338,-1.64601 l -0.24026,2.12714 -0.29007,-0.0328 0.23389,-2.07074 q -0.36138,0.77928 -0.98183,1.46809 -0.0542,-0.20605 -0.11396,-0.36376 0.671,-0.66678 1.04317,-1.46932 l -0.72516,-0.0819 0.0309,-0.27395 0.81783,0.0924 0.081,-0.71711 q -0.3219,-0.004 -0.6635,-0.0137 -0.0266,-0.16212 -0.0554,-0.3041 0.92445,0.0514 1.73312,0.008 l 0.0608,0.29247 q -0.36896,0.0154 -0.78131,0.0178 l -0.0846,0.74934 0.86617,0.0978 -0.0309,0.27395 -0.77351,-0.0874 q 0.23193,0.98094 0.65927,1.6045 z m -4.08465,0.0405 q 0.89762,0.0361 1.93852,0.068 -0.024,0.14009 -0.0413,0.29318 -1.10535,-0.0392 -1.89154,-0.0504 z m 1.64312,-2.69903 -0.66877,-0.0755 q -0.17636,0.22488 -0.36208,0.42423 l 0.68488,0.0774 q 0.18214,-0.20383 0.34597,-0.42606 z m -1.04671,1.93406 0.39884,0.0451 0.061,-0.53985 -0.39884,-0.045 z m 0.0883,-0.78157 0.39884,0.0451 0.0605,-0.53581 -0.39884,-0.0451 z m 0.58451,0.85756 0.39481,0.0446 0.061,-0.53984 -0.39481,-0.0446 z m 0.54361,-1.27279 -0.39481,-0.0446 -0.0605,0.53582 0.39481,0.0446 z m 4.70375,-0.12041 q -0.13885,0.46175 -0.47454,0.88481 l -0.25779,-0.27915 q 0.5226,-0.57873 0.61637,-1.60652 l 0.3459,0.096 q 0.14907,0.0574 -0.0112,0.098 -0.037,0.22922 -0.10481,0.49248 l 1.16612,-0.0594 0.0313,2.20681 q 0.0168,0.64867 -0.48527,0.67425 l -0.45349,0.0231 -0.0643,-0.30525 0.4211,-0.0215 q 0.22675,-0.0115 0.22809,-0.30391 l -0.0181,-1.94766 z m 0.27111,1.49634 q -0.24325,-0.31236 -0.53179,-0.55747 l 0.26047,-0.30556 q 0.33878,0.27502 0.54717,0.54045 z m -2.00359,-1.71658 q 0.0815,-0.31268 0.14185,-0.72171 l 0.39613,0.12596 q 0.0681,0.0615 -0.0445,0.0835 -0.0379,0.21302 -0.1534,0.49496 l 0.59926,-0.0305 0.13618,2.67237 -0.32392,0.0165 -0.01,-0.19436 -0.71263,0.0363 0.0165,0.32392 -0.32393,0.0165 -0.14278,-2.80194 z m 0.63114,0.27637 -0.71263,0.0363 0.0363,0.71263 0.71263,-0.0363 z m 0.052,1.02036 -0.71263,0.0363 0.0429,0.8422 0.71263,-0.0363 z m 6.07148,-1.76205 0.0719,0.34945 -1.54078,0.31707 0.31053,1.50902 1.30252,-0.26804 0.0719,0.34945 -3.00214,0.6178 -0.0719,-0.34946 1.33428,-0.27457 -0.31053,-1.50901 -1.5249,0.3138 -0.0719,-0.34946 1.5249,-0.3138 -0.20594,-1.00071 0.34946,-0.0719 q 0.16538,-9.1e-4 0.042,0.12381 l 0.17979,0.87364 z m 2.34656,1.09569 q 0.1036,0.0492 -0.0186,0.0927 -0.29164,0.53433 -0.85702,0.97684 l -0.33908,-0.27514 q 0.56644,-0.39123 0.87336,-0.93101 z m 0.68821,-2.94819 q 0.0578,0.0655 -0.0961,0.0687 -0.8228,0.39651 -1.77326,0.8213 l 0.1786,0.45284 2.10811,-0.75125 0.10343,0.29024 -0.71798,0.25587 0.26131,0.73325 0.9624,-0.34296 0.11976,0.33608 -3.42186,1.21942 -0.11977,-0.33608 0.79436,-0.28308 -0.74053,-1.83647 0.38946,-0.0183 q 0.8883,-0.45428 1.57256,-0.85307 z m -0.24137,1.97979 -0.2613,-0.73326 -1.06934,0.38107 0.29186,0.72237 z m 0.26586,0.45617 q 0.55294,0.19893 1.33625,0.12638 l -0.0428,0.41124 q -0.74731,0.0769 -1.43001,-0.19626 z"
           id="path2" /></g><g
         id="path92"><path
           style="color:#000000;fill:#3affff;fill-opacity:0;stroke-linecap:round;-inkscape-stroke:none;paint-order:stroke fill markers"
           d="m 187.1582,166.20898 a 0.26963249,0.26963249 0 0 0 -0.20508,0.0254 c -11.22739,6.37882 -21.34948,4.32744 -26.73046,0.74219 a 0.26963249,0.26963249 0 0 0 -0.37305,0.0742 0.26963249,0.26963249 0 0 0 0.0742,0.375 c 5.56163,3.70561 15.90523,5.74948 27.29687,-0.72266 a 0.26963249,0.26963249 0 0 0 0.10157,-0.36718 0.26963249,0.26963249 0 0 0 -0.16407,-0.12696 z"
           id="path3" /><path
           style="color:#000000;fill:#48ffff;fill-opacity:0;stroke-linecap:round;-inkscape-stroke:none;paint-order:stroke fill markers"
           d="m 160.07404,167.20102 c 5.47131,3.64543 15.70352,5.69277 27.01305,-0.73271"
           id="path4" /></g></g><path
       style="fill:#ffffff;fill-opacity:1;stroke:#000000;stroke-width:0;stroke-linecap:round;stroke-dasharray:none;stroke-opacity:1;paint-order:stroke fill markers"
       d="m 32.581153,109.7186 c 0.122766,-0.0751 0.57107,-0.3089 0.997011,-0.51755 0.426045,-0.20845 0.919567,-0.49946 1.097056,-0.64588 0.284269,-0.23424 0.322931,-0.307 0.322172,-0.60753 -4.92e-4,-0.18761 -0.03024,-0.40637 -0.06823,-0.48574 -0.07315,-0.15691 0.114421,-0.32482 0.594177,-0.53172 0.534598,-0.23045 1.390116,-1.44004 1.239579,-1.75216 -0.05452,-0.11295 0.251669,-0.50152 0.595012,-0.75524 0.361205,-0.2672 0.518417,-0.61639 0.459374,-1.02178 -0.05528,-0.3808 0.01519,-0.52028 0.447156,-0.86795 0.393462,-0.31724 0.495265,-0.59381 0.400971,-1.08736 -0.140644,-0.73756 -0.161474,-0.9884 -0.08835,-1.0893 0.04321,-0.0598 0.129619,-0.24408 0.192552,-0.409375 0.06257,-0.16525 0.176238,-0.37599 0.253175,-0.46783 0.206184,-0.24787 0.205051,-0.43014 -0.0074,-1.16657 -0.106525,-0.36727 -0.164483,-0.70986 -0.129172,-0.76133 0.03412,-0.0511 0.224763,-0.16335 0.420637,-0.24939 0.195949,-0.0861 0.463426,-0.22476 0.595012,-0.30776 l 0.238783,-0.15199 0.284268,0.39623 c 0.156154,0.21793 0.357035,0.50641 0.446218,0.64107 0.204665,0.30965 0.489038,0.48067 0.788354,0.47377 0.433361,-0.0113 1.026868,0.20504 1.199352,0.4348 0.0891,0.11865 0.346053,0.38747 0.570876,0.59737 0.442583,0.41321 0.738249,0.50371 1.251139,0.38277 0.29525,-0.0694 0.716184,0.0541 0.804772,0.236895 0.121723,0.2509 0.529666,0.42056 0.934645,0.38853 0.616168,-0.0489 1.143228,-0.0151 1.187164,0.0759 0.06928,0.14402 0.681917,0.36006 1.015187,0.35854 0.176625,-9.4e-4 0.462295,0.007 0.634211,0.0189 0.171694,0.0113 0.42913,-0.0265 0.571518,-0.0895 0.142581,-0.0614 0.364989,-0.13568 0.494847,-0.16411 0.209968,-0.0462 0.257346,-0.0189 0.431617,0.23196 0.379934,0.55234 0.789845,0.55616 2.21156,0.0189 1.046697,-0.39429 1.399486,-0.46513 0.983288,-0.19747 -0.979192,0.62954 -0.949394,0.59696 -1.259616,1.37113 -0.180037,0.4494 -0.350971,0.75511 -0.444862,0.79552 -0.08373,0.0342 -0.407318,0.23385 -0.718806,0.43969 -0.670774,0.44281 -0.772994,0.63789 -0.642689,1.22559 l 0.08715,0.39426 -0.469907,0.26455 c -0.591304,0.33316 -0.729147,0.55401 -0.638234,1.02312 0.09401,0.486 0.05647,0.56678 -0.380903,0.82183 -0.411727,0.23991 -0.658436,0.65622 -0.537442,0.90698 0.07121,0.1482 -0.210744,0.72806 -0.539188,1.10938 -0.250537,0.29071 -0.260013,0.60468 -0.03412,1.09262 0.140197,0.30246 0.07583,0.48011 -0.220591,0.60806 -0.270234,0.11673 -0.536117,0.49788 -0.540588,0.77499 -0.0045,0.25317 0.2312,1.03956 0.526568,1.76067 l 0.127384,0.31232 -0.749884,0.32367 -0.749886,0.32368 -0.195948,-0.36423 c -0.320279,-0.59377 -0.858363,-1.36294 -1.05598,-1.50954 -0.202773,-0.15048 -0.68667,-0.18686 -0.95464,-0.0709 -0.286145,0.12355 -0.46058,0.0303 -0.707468,-0.37447 -0.296396,-0.48624 -0.521412,-0.61624 -0.948038,-0.54715 -0.412667,0.0667 -0.977211,-0.10271 -1.08481,-0.32558 -0.129322,-0.26758 -0.618672,-0.38799 -1.059928,-0.26076 -0.443939,0.12773 -0.613592,0.0781 -0.915202,-0.26873 -0.119339,-0.1372 -0.287293,-0.27441 -0.373721,-0.3051 -0.193297,-0.0682 -0.670773,-0.001 -1.005414,0.14061 -0.341495,0.14516 -0.426805,0.11864 -0.635314,-0.19747 -0.218311,-0.33125 -0.507228,-0.51413 -0.784941,-0.49711 -0.113677,0.008 -0.512846,0.10077 -0.886328,0.20808 -0.53801,0.15464 -0.699662,0.17397 -0.778312,0.0918 -0.118297,-0.12356 -0.781113,-0.30322 -0.911075,-0.24712 -0.04962,0.0228 -0.105032,0.0113 -0.122765,-0.0265 -0.06869,-0.14289 -0.514679,-0.12279 -1.195195,0.0541 -0.392315,0.10239 -0.73074,0.17928 -0.752016,0.1717 -0.0228,-0.008 0.06183,-0.0759 0.184208,-0.15161 z"
       id="path17-8"
       inkscape:label="dinamond" /><path
       style="fill:#ffffff;fill-opacity:1;stroke:#000000;stroke-width:0;stroke-linecap:round;stroke-dasharray:none;stroke-opacity:1;paint-order:stroke fill markers"
       d="m 207.45891,82.224464 c 0.12276,-0.07505 0.57105,-0.308898 0.997,-0.517546 0.42606,-0.208459 0.91956,-0.499467 1.09706,-0.645882 0.28426,-0.234233 0.32292,-0.307003 0.32217,-0.607526 -5e-4,-0.187613 -0.0304,-0.40638 -0.0682,-0.485747 -0.0732,-0.156913 0.11443,-0.324817 0.59419,-0.531723 0.53461,-0.230441 1.39012,-1.440034 1.23957,-1.752155 -0.0546,-0.112948 0.25167,-0.501516 0.59503,-0.755228 0.36119,-0.267206 0.51841,-0.616394 0.45936,-1.02179 -0.0552,-0.380798 0.0152,-0.520277 0.44718,-0.86795 0.39343,-0.317236 0.49524,-0.593803 0.40094,-1.08736 -0.14063,-0.737565 -0.16145,-0.988399 -0.0883,-1.089292 0.0432,-0.05988 0.12961,-0.244088 0.19254,-0.409376 0.0625,-0.165252 0.17623,-0.375985 0.25317,-0.467821 0.20618,-0.247876 0.20505,-0.430145 -0.008,-1.166575 -0.10658,-0.367267 -0.1645,-0.70986 -0.12918,-0.76133 0.0342,-0.05116 0.22475,-0.163357 0.42062,-0.249392 0.19597,-0.08604 0.46343,-0.224758 0.59503,-0.307762 l 0.23878,-0.151986 0.28426,0.396224 c 0.15615,0.217934 0.35703,0.506403 0.44621,0.641069 0.20467,0.309656 0.48906,0.480668 0.78836,0.47377 0.43338,-0.01132 1.02687,0.205047 1.19937,0.434807 0.0891,0.118639 0.34604,0.38747 0.57087,0.597369 0.44257,0.413203 0.73825,0.503713 1.25113,0.382768 0.29526,-0.06935 0.7162,0.0542 0.80477,0.236886 0.12173,0.250909 0.52967,0.420556 0.93466,0.38853 0.61616,-0.0489 1.14323,-0.01517 1.18715,0.07581 0.0694,0.144027 0.68193,0.360067 1.0152,0.358552 0.17661,-9.48e-4 0.46228,0.0076 0.6342,0.01895 0.1717,0.01132 0.42913,-0.02654 0.57152,-0.08945 0.14258,-0.0614 0.365,-0.135684 0.49485,-0.164115 0.20997,-0.04624 0.25735,-0.01895 0.43163,0.231959 0.37991,0.552341 0.78982,0.556168 2.21155,0.01895 1.04669,-0.394291 1.39947,-0.465129 0.98328,-0.197468 -0.97917,0.629546 -0.94939,0.59695 -1.25962,1.37113 -0.18003,0.4494 -0.35097,0.755116 -0.44485,0.795518 -0.0837,0.03412 -0.40733,0.233853 -0.7188,0.439697 -0.67079,0.442805 -0.77301,0.637885 -0.64271,1.225588 l 0.0871,0.394253 -0.46991,0.264553 c -0.5913,0.333156 -0.72914,0.554009 -0.63822,1.023118 0.094,0.486013 0.0565,0.566781 -0.38091,0.821821 -0.41173,0.239918 -0.65842,0.65623 -0.53745,0.906986 0.0712,0.148198 -0.21073,0.728054 -0.53919,1.109383 -0.25053,0.290704 -0.26001,0.604683 -0.0341,1.092627 0.14019,0.302456 0.0759,0.480102 -0.22059,0.608057 -0.27025,0.116732 -0.53612,0.497877 -0.54059,0.774976 -0.004,0.253182 0.23119,1.039566 0.52656,1.760683 l 0.12738,0.31231 -0.74987,0.323681 -0.74989,0.323678 -0.19596,-0.364234 c -0.32026,-0.593767 -0.85835,-1.362943 -1.05598,-1.509547 -0.20276,-0.150471 -0.68667,-0.186855 -0.95462,-0.07088 -0.28616,0.123556 -0.46057,0.03032 -0.70748,-0.374468 -0.29638,-0.48624 -0.52142,-0.616243 -0.94802,-0.547148 -0.41268,0.0667 -0.97723,-0.102711 -1.08483,-0.325576 -0.12917,-0.267585 -0.61867,-0.387999 -1.05991,-0.260762 -0.44395,0.127727 -0.61359,0.07809 -0.91522,-0.268723 -0.11933,-0.137203 -0.28729,-0.274408 -0.3737,-0.305109 -0.19331,-0.06822 -0.67079,-0.0014 -1.00543,0.140614 -0.34149,0.145159 -0.42681,0.118639 -0.63531,-0.197468 -0.2183,-0.331261 -0.50723,-0.514136 -0.78493,-0.497118 -0.11368,0.0076 -0.51284,0.10082 -0.88633,0.20808 -0.53803,0.154639 -0.69968,0.173969 -0.77832,0.09172 -0.11829,-0.123555 -0.78111,-0.303212 -0.91108,-0.247118 -0.0496,0.02273 -0.10508,0.01132 -0.12277,-0.02654 -0.0686,-0.142894 -0.51467,-0.122795 -1.19519,0.0542 -0.39232,0.102345 -0.73074,0.179276 -0.752,0.171695 -0.0228,-0.0076 0.0618,-0.07581 0.18419,-0.151607 z"
       id="path93"
       inkscape:label="dinamond" /></g></svg>
