<?xml version="1.0" encoding="UTF-8" standalone="no"?>
<!-- Created with Inkscape (http://www.inkscape.org/) -->

<svg
   width="1080"
   height="1080"
   viewBox="0 0 285.74999 285.75"
   version="1.1"
   id="svg1"
   xml:space="preserve"
   inkscape:version="1.3.2 (091e20e, 2023-11-25)"
   sodipodi:docname="ArtybylogoName2.svg"
   xmlns:inkscape="http://www.inkscape.org/namespaces/inkscape"
   xmlns:sodipodi="http://sodipodi.sourceforge.net/DTD/sodipodi-0.dtd"
   xmlns:xlink="http://www.w3.org/1999/xlink"
   xmlns="http://www.w3.org/2000/svg"
   xmlns:svg="http://www.w3.org/2000/svg"><sodipodi:namedview
     id="namedview1"
     pagecolor="#ffffff"
     bordercolor="#660000"
     borderopacity="0.24705882"
     inkscape:showpageshadow="2"
     inkscape:pageopacity="0.0"
     inkscape:pagecheckerboard="0"
     inkscape:deskcolor="#0e0025"
     inkscape:document-units="px"
     inkscape:zoom="0.61627508"
     inkscape:cx="527.3619"
     inkscape:cy="511.94671"
     inkscape:window-width="1280"
     inkscape:window-height="688"
     inkscape:window-x="0"
     inkscape:window-y="23"
     inkscape:window-maximized="0"
     inkscape:current-layer="layer2" /><defs
     id="defs1"><inkscape:path-effect
       effect="spiro"
       id="path-effect33"
       is_visible="true"
       lpeversion="1" /><inkscape:path-effect
       effect="spiro"
       id="path-effect31"
       is_visible="true"
       lpeversion="1" /><inkscape:path-effect
       effect="spiro"
       id="path-effect12"
       is_visible="true"
       lpeversion="1" /><inkscape:path-effect
       effect="spiro"
       id="path-effect10"
       is_visible="true"
       lpeversion="1" /><filter
       style="color-interpolation-filters:sRGB;"
       inkscape:label="Drop Shadow"
       id="filter2"
       x="-0.029437667"
       y="-0.071750583"
       width="1.0834067"
       height="1.2032933"><feFlood
         result="flood"
         in="SourceGraphic"
         flood-opacity="0.607843"
         flood-color="rgb(0,127,219)"
         id="feFlood1" /><feGaussianBlur
         result="blur"
         in="SourceGraphic"
         stdDeviation="3.000000"
         id="feGaussianBlur1" /><feOffset
         result="offset"
         in="blur"
         dx="6.000000"
         dy="6.000000"
         id="feOffset1" /><feComposite
         result="comp1"
         operator="in"
         in="flood"
         in2="offset"
         id="feComposite1" /><feComposite
         result="comp2"
         operator="over"
         in="SourceGraphic"
         in2="comp1"
         id="feComposite2" /></filter></defs><g
     inkscape:groupmode="layer"
     id="layer2"
     inkscape:label="Lienzo"><g
       id="g58"
       inkscape:label="pepe"
       transform="translate(-16.343013,-0.46333283)"
       style="display:none"><path
         style="display:inline;opacity:1;fill:#020000;fill-opacity:0;stroke:#000000;stroke-width:1.7145;stroke-linecap:round;stroke-dasharray:none;stroke-opacity:1;paint-order:stroke fill markers"
         d="m 148.14647,146.24194 c 9.40815,32.9219 36.22317,38.93088 48.45109,-0.43001"
         id="path55"
         sodipodi:nodetypes="cc"
         sodipodi:insensitive="true" /><path
         style="fill:#020000;fill-opacity:0;stroke:#000000;stroke-width:1.7145;stroke-linecap:round;stroke-dasharray:none;stroke-opacity:1;paint-order:stroke fill markers"
         d="m 136.38834,137.9047 c 0,0 33.69693,33.27572 70.51083,0.25273"
         id="path56"
         sodipodi:nodetypes="cc"
         sodipodi:insensitive="true" /><path
         style="display:inline;fill:#020000;fill-opacity:0;stroke:#000000;stroke-width:1.7145;stroke-linecap:round;stroke-dasharray:none;stroke-opacity:1;paint-order:stroke fill markers"
         d="m 136.38834,137.9047 14.50943,-6.93324 c 25.20335,-14.80118 16.62885,-14.00083 39.57581,-0.6824 l 16.42559,7.86837"
         id="path57"
         sodipodi:nodetypes="cccc"
         sodipodi:insensitive="true" /><path
         style="fill:#803b00;fill-opacity:1;stroke:#000000;stroke-width:4.12641;stroke-linecap:round;stroke-dasharray:none;stroke-opacity:1;paint-order:stroke fill markers"
         d="m 644.43396,650.45738 c -13.91666,-2.12394 -26.56259,-9.09291 -39.24054,-21.62483 -12.89965,-12.75107 -22.45612,-27.34741 -31.4385,-48.01845 -3.00707,-6.92014 -8.15022,-20.75514 -7.71571,-20.75514 0.12569,0 2.91667,1.24765 6.20218,2.77256 17.83995,8.28008 37.40618,13.99388 57.22795,16.71189 10.953,1.5019 33.10527,1.51719 43.93868,0.0303 19.1029,-2.62184 36.81728,-7.93647 54.70777,-16.41333 4.34695,-2.05967 8.00694,-3.64144 8.13333,-3.51505 0.1264,0.12639 -0.78803,2.92181 -2.03206,6.21204 -11.08944,29.32964 -23.30198,49.76118 -38.60905,64.59285 -6.91849,6.70362 -15.00396,12.52432 -21.20965,15.26878 -9.43698,4.17348 -21.33636,6.05516 -29.9644,4.73836 z"
         id="path60"
         transform="scale(0.26458333)"
         sodipodi:insensitive="true" /><g
         id="g69"
         style="display:inline"
         transform="translate(-2.9484817,-0.4854336)"
         sodipodi:insensitive="true"><path
           style="fill:#ffffff;fill-opacity:0;stroke:#000000;stroke-width:0.345077;stroke-linecap:round;stroke-dasharray:none;stroke-opacity:1;paint-order:stroke fill markers"
           d="m 187.88589,155.65156 c -4.45349,1.08979 -7.90732,2.40012 -7.97272,2.38945"
           id="path61"
           sodipodi:nodetypes="cc" /><path
           style="fill:#ffffff;fill-opacity:0;stroke:#000000;stroke-width:0.345077;stroke-linecap:round;stroke-dasharray:none;stroke-opacity:1;paint-order:stroke fill markers"
           d="m 179.91317,158.04101 c 4.97172,1.46327 7.58065,-0.92953 7.97272,-2.38945"
           id="path62"
           sodipodi:nodetypes="cc" /><path
           style="fill:#150c00;fill-opacity:1;stroke:#150c00;stroke-width:0.0676616;stroke-linecap:round;stroke-dasharray:none;stroke-opacity:1;paint-order:stroke fill markers"
           id="path63"
           sodipodi:type="arc"
           sodipodi:cx="-176.62967"
           sodipodi:cy="-165.8708"
           sodipodi:rx="0.97919196"
           sodipodi:ry="0.84048575"
           sodipodi:start="2.995179"
           sodipodi:end="2.9677492"
           sodipodi:open="true"
           sodipodi:arc-type="arc"
           d="m -177.59838,-165.74818 a 0.97919196,0.84048575 0 0 1 0.81922,-0.95326 0.97919196,0.84048575 0 0 1 1.11616,0.69662 0.97919196,0.84048575 0 0 1 -0.80392,0.96281 0.97919196,0.84048575 0 0 1 -1.12718,-0.68342"
           transform="rotate(177.38381)" /><path
           style="fill:#000000;fill-opacity:1;stroke:#000000;stroke-width:0.0139798;stroke-linecap:round;stroke-dasharray:none;stroke-opacity:1;paint-order:stroke fill markers"
           id="path66"
           sodipodi:type="arc"
           sodipodi:cx="-176.58412"
           sodipodi:cy="-165.87079"
           sodipodi:rx="0.18876959"
           sodipodi:ry="0.18611582"
           sodipodi:start="2.995179"
           sodipodi:end="2.9677492"
           sodipodi:open="true"
           sodipodi:arc-type="arc"
           d="m -176.77087,-165.84364 a 0.18876959,0.18611582 0 0 1 0.15793,-0.21108 0.18876959,0.18611582 0 0 1 0.21517,0.15426 0.18876959,0.18611582 0 0 1 -0.15498,0.2132 0.18876959,0.18611582 0 0 1 -0.2173,-0.15134"
           transform="rotate(177.38381)" /><path
           style="fill:#150c00;fill-opacity:0;stroke:#150c00;stroke-width:0.0731903;stroke-linecap:round;stroke-dasharray:none;stroke-opacity:1;paint-order:stroke fill markers"
           d="m 689.56663,598.33995 c -1.78557,-0.10512 -3.35415,-0.29349 -4.95504,-0.59506 -0.77304,-0.14562 -2.14391,-0.44611 -2.20459,-0.48324 -0.0429,-0.0263 0.53845,-0.22973 3.31897,-1.16157 2.50162,-0.83836 6.44675,-2.11202 6.54197,-2.11202 0.016,0 -0.0163,0.0594 -0.0717,0.13202 -0.0554,0.0726 -0.17135,0.28305 -0.25771,0.46764 -0.54283,1.16027 -0.29141,2.46905 0.654,3.4045 l 0.32614,0.32271 -0.38254,0.0253 c -0.36654,0.0243 -2.55575,0.0241 -2.96951,-3.1e-4 z"
           id="path75"
           transform="scale(0.26458333)" /><path
           style="fill:#ffffff;fill-opacity:1;stroke:#150c00;stroke-width:0.0731903;stroke-linecap:round;stroke-dasharray:none;stroke-opacity:1;paint-order:stroke fill markers"
           d="m 698.99271,597.1594 c 0.26453,-0.62401 0.3447,-0.95071 0.3447,-1.40454 0,-0.45715 -0.0986,-0.85913 -0.32595,-1.32858 -0.18248,-0.37683 -0.24134,-0.45625 -0.60474,-0.81589 -0.48679,-0.48175 -0.76028,-0.64848 -1.59044,-0.96957 -0.0815,-0.0315 -0.047,-0.0421 2.68033,-0.82586 3.33151,-0.95735 9.48805,-2.60035 9.54193,-2.54646 0.008,0.008 -0.0761,0.18609 -0.18641,0.39629 -1.61818,3.08406 -4.87665,5.71352 -8.95752,7.22839 -0.6537,0.24265 -0.92598,0.32303 -0.9019,0.26622 z"
           id="path76"
           transform="scale(0.26458333)" /><path
           style="fill:#ffffff;fill-opacity:1;stroke:#ffffff;stroke-width:0.0731903;stroke-linecap:round;stroke-dasharray:none;stroke-opacity:1;paint-order:stroke fill markers"
           d="m 689.16863,598.26011 c -0.0876,-0.007 -0.39202,-0.0315 -0.67659,-0.0543 -1.7247,-0.13782 -3.48202,-0.40938 -5.39283,-0.83335 -0.57939,-0.12856 -0.56949,-0.11725 -0.21639,-0.24722 1.06495,-0.39198 9.05901,-3.01781 9.18741,-3.01781 0.0256,0 -0.0294,0.15523 -0.12342,0.34825 -0.2314,0.47527 -0.33067,0.8845 -0.32981,1.35955 0.002,0.8503 0.26698,1.4888 0.91566,2.2025 l 0.24417,0.26865 -1.7245,-0.007 c -0.94847,-0.004 -1.79614,-0.0125 -1.8837,-0.0196 z"
           id="path77"
           transform="scale(0.26458333)" /><path
           style="fill:#ffffff;fill-opacity:1;stroke:#ffffff;stroke-width:0.0731903;stroke-linecap:round;stroke-dasharray:none;stroke-opacity:1;paint-order:stroke fill markers"
           d="m 699.04109,597.09971 c 0.0157,-0.0368 0.0843,-0.21922 0.15248,-0.40528 0.1192,-0.32534 0.12389,-0.36192 0.12251,-0.95519 -0.001,-0.57794 -0.009,-0.63574 -0.11377,-0.91539 -0.22615,-0.60092 -0.36067,-0.80414 -0.839,-1.26752 -0.45119,-0.43709 -0.72474,-0.61318 -1.33427,-0.8589 l -0.1791,-0.0722 0.1592,-0.0573 c 0.23802,-0.0857 3.66467,-1.06779 5.23364,-1.50001 2.64455,-0.72851 6.62497,-1.7762 6.74824,-1.7762 0.0541,0 -0.44798,0.88916 -0.79895,1.41474 -1.39641,2.09121 -3.55946,3.91572 -6.22354,5.2495 -0.94212,0.47168 -2.02155,0.92316 -2.7239,1.1393 -0.21462,0.066 -0.22993,0.0664 -0.20354,0.004 z"
           id="path78"
           transform="scale(0.26458333)" /></g><g
         id="g86"
         style="display:inline"
         transform="rotate(36.110455,174.25614,124.76928)"
         sodipodi:insensitive="true"><path
           style="fill:#ffffff;fill-opacity:0;stroke:#000000;stroke-width:0.345077;stroke-linecap:round;stroke-dasharray:none;stroke-opacity:1;paint-order:stroke fill markers"
           d="m 187.88589,155.65156 c -4.45349,1.08979 -7.90732,2.40012 -7.97272,2.38945"
           id="path79"
           sodipodi:nodetypes="cc" /><path
           style="fill:#ffffff;fill-opacity:0;stroke:#000000;stroke-width:0.345077;stroke-linecap:round;stroke-dasharray:none;stroke-opacity:1;paint-order:stroke fill markers"
           d="m 179.91317,158.04101 c 4.97172,1.46327 7.58065,-0.92953 7.97272,-2.38945"
           id="path80"
           sodipodi:nodetypes="cc" /><path
           style="fill:#150c00;fill-opacity:1;stroke:#150c00;stroke-width:0.0676616;stroke-linecap:round;stroke-dasharray:none;stroke-opacity:1;paint-order:stroke fill markers"
           id="path81"
           sodipodi:type="arc"
           sodipodi:cx="-176.62967"
           sodipodi:cy="-165.8708"
           sodipodi:rx="0.97919196"
           sodipodi:ry="0.84048575"
           sodipodi:start="2.995179"
           sodipodi:end="2.9677492"
           sodipodi:open="true"
           sodipodi:arc-type="arc"
           d="m -177.59838,-165.74818 a 0.97919196,0.84048575 0 0 1 0.81922,-0.95326 0.97919196,0.84048575 0 0 1 1.11616,0.69662 0.97919196,0.84048575 0 0 1 -0.80392,0.96281 0.97919196,0.84048575 0 0 1 -1.12718,-0.68342"
           transform="rotate(177.38381)" /><path
           style="fill:#000000;fill-opacity:1;stroke:#000000;stroke-width:0.0139798;stroke-linecap:round;stroke-dasharray:none;stroke-opacity:1;paint-order:stroke fill markers"
           id="path82"
           sodipodi:type="arc"
           sodipodi:cx="-176.58412"
           sodipodi:cy="-165.87079"
           sodipodi:rx="0.18876959"
           sodipodi:ry="0.18611582"
           sodipodi:start="2.995179"
           sodipodi:end="2.9677492"
           sodipodi:open="true"
           sodipodi:arc-type="arc"
           d="m -176.77087,-165.84364 a 0.18876959,0.18611582 0 0 1 0.15793,-0.21108 0.18876959,0.18611582 0 0 1 0.21517,0.15426 0.18876959,0.18611582 0 0 1 -0.15498,0.2132 0.18876959,0.18611582 0 0 1 -0.2173,-0.15134"
           transform="rotate(177.38381)" /><path
           style="fill:#150c00;fill-opacity:0;stroke:#150c00;stroke-width:0.0731903;stroke-linecap:round;stroke-dasharray:none;stroke-opacity:1;paint-order:stroke fill markers"
           d="m 689.56663,598.33995 c -1.78557,-0.10512 -3.35415,-0.29349 -4.95504,-0.59506 -0.77304,-0.14562 -2.14391,-0.44611 -2.20459,-0.48324 -0.0429,-0.0263 0.53845,-0.22973 3.31897,-1.16157 2.50162,-0.83836 6.44675,-2.11202 6.54197,-2.11202 0.016,0 -0.0163,0.0594 -0.0717,0.13202 -0.0554,0.0726 -0.17135,0.28305 -0.25771,0.46764 -0.54283,1.16027 -0.29141,2.46905 0.654,3.4045 l 0.32614,0.32271 -0.38254,0.0253 c -0.36654,0.0243 -2.55575,0.0241 -2.96951,-3.1e-4 z"
           id="path83"
           transform="scale(0.26458333)" /><path
           style="fill:#ffffff;fill-opacity:1;stroke:#150c00;stroke-width:0.0731903;stroke-linecap:round;stroke-dasharray:none;stroke-opacity:1;paint-order:stroke fill markers"
           d="m 698.99271,597.1594 c 0.26453,-0.62401 0.3447,-0.95071 0.3447,-1.40454 0,-0.45715 -0.0986,-0.85913 -0.32595,-1.32858 -0.18248,-0.37683 -0.24134,-0.45625 -0.60474,-0.81589 -0.48679,-0.48175 -0.76028,-0.64848 -1.59044,-0.96957 -0.0815,-0.0315 -0.047,-0.0421 2.68033,-0.82586 3.33151,-0.95735 9.48805,-2.60035 9.54193,-2.54646 0.008,0.008 -0.0761,0.18609 -0.18641,0.39629 -1.61818,3.08406 -4.87665,5.71352 -8.95752,7.22839 -0.6537,0.24265 -0.92598,0.32303 -0.9019,0.26622 z"
           id="path84"
           transform="scale(0.26458333)" /><path
           style="fill:#ffffff;fill-opacity:1;stroke:#ffffff;stroke-width:0.0731903;stroke-linecap:round;stroke-dasharray:none;stroke-opacity:1;paint-order:stroke fill markers"
           d="m 689.16863,598.26011 c -0.0876,-0.007 -0.39202,-0.0315 -0.67659,-0.0543 -1.7247,-0.13782 -3.48202,-0.40938 -5.39283,-0.83335 -0.57939,-0.12856 -0.56949,-0.11725 -0.21639,-0.24722 1.06495,-0.39198 9.05901,-3.01781 9.18741,-3.01781 0.0256,0 -0.0294,0.15523 -0.12342,0.34825 -0.2314,0.47527 -0.33067,0.8845 -0.32981,1.35955 0.002,0.8503 0.26698,1.4888 0.91566,2.2025 l 0.24417,0.26865 -1.7245,-0.007 c -0.94847,-0.004 -1.79614,-0.0125 -1.8837,-0.0196 z"
           id="path85"
           transform="scale(0.26458333)" /><path
           style="fill:#ffffff;fill-opacity:1;stroke:#ffffff;stroke-width:0.0731903;stroke-linecap:round;stroke-dasharray:none;stroke-opacity:1;paint-order:stroke fill markers"
           d="m 699.04109,597.09971 c 0.0157,-0.0368 0.0843,-0.21922 0.15248,-0.40528 0.1192,-0.32534 0.12389,-0.36192 0.12251,-0.95519 -0.001,-0.57794 -0.009,-0.63574 -0.11377,-0.91539 -0.22615,-0.60092 -0.36067,-0.80414 -0.839,-1.26752 -0.45119,-0.43709 -0.72474,-0.61318 -1.33427,-0.8589 l -0.1791,-0.0722 0.1592,-0.0573 c 0.23802,-0.0857 3.66467,-1.06779 5.23364,-1.50001 2.64455,-0.72851 6.62497,-1.7762 6.74824,-1.7762 0.0541,0 -0.44798,0.88916 -0.79895,1.41474 -1.39641,2.09121 -3.55946,3.91572 -6.22354,5.2495 -0.94212,0.47168 -2.02155,0.92316 -2.7239,1.1393 -0.21462,0.066 -0.22993,0.0664 -0.20354,0.004 z"
           id="path86"
           transform="scale(0.26458333)" /></g><path
         style="fill:#162643;fill-opacity:0;stroke:#162643;stroke-width:0.486561;stroke-linecap:round;stroke-dasharray:none;stroke-opacity:1;paint-order:stroke fill markers"
         d="m 151.14105,152.05807 c 14.15659,3.95273 26.11704,5.19143 42.34148,-0.35393"
         id="path87"
         sodipodi:nodetypes="cc"
         sodipodi:insensitive="true" /><path
         style="fill:#162643;fill-opacity:0;stroke:#162643;stroke-width:0.486561;stroke-linecap:round;stroke-dasharray:none;stroke-opacity:1;paint-order:stroke fill markers"
         d="m 154.12135,158.5555 c 12.19669,2.44343 24.26891,2.9922 36.10895,0.007"
         id="path88"
         sodipodi:nodetypes="cc"
         sodipodi:insensitive="true" /><path
         style="fill:#ffffff;fill-opacity:1;stroke:#44403c;stroke-width:0.207013;stroke-linecap:round;stroke-dasharray:none;stroke-opacity:1;paint-order:stroke fill markers"
         d="m 586.94032,584.78277 c -22.23078,-0.30539 -45.5598,-4.08664 -74.94579,-12.1475 -1.22404,-0.33576 -2.36798,-0.61048 -2.54208,-0.61048 -0.25738,0 -0.33907,-0.0684 -0.43701,-0.36585 -0.0663,-0.20122 -0.62545,-1.68293 -1.24267,-3.29268 -1.31587,-3.43185 -2.94222,-7.98316 -3.27023,-9.15163 l -0.23059,-0.82144 0.24611,0.0769 c 0.13536,0.0423 1.68983,0.73499 3.45436,1.53937 7.05689,3.21693 10.08749,4.51441 14.52154,6.21704 12.69916,4.87634 25.69823,8.41887 39.23067,10.69123 4.08184,0.68542 7.1429,1.10447 9.84988,1.34844 11.37164,1.02485 28.85732,0.9217 38.66782,-0.22812 8.0081,-0.93858 18.35688,-3.05546 26.90899,-5.50434 10.00086,-2.86372 18.27861,-6.00178 29.30117,-11.10793 5.32465,-2.46663 7.85339,-3.55483 7.97591,-3.4323 0.13404,0.13403 -1.84862,5.69573 -3.78805,10.6261 -0.75667,1.92362 -0.82659,2.05441 -1.09821,2.05441 -0.15954,0 -1.99226,0.56167 -4.07269,1.24817 -27.31079,9.01194 -52.95672,13.21195 -78.52913,12.86065 z"
         id="path89"
         transform="matrix(0.26458333,0,0,0.26458333,16.343013,0.46333283)"
         sodipodi:insensitive="true" /><path
         style="fill:#ffffff;fill-opacity:1;stroke:#ffffff;stroke-width:0.207013;stroke-linecap:round;stroke-dasharray:none;stroke-opacity:1;paint-order:stroke fill markers"
         d="m 584.21294,648.85399 c -4.57694,-0.52115 -9.85644,-1.88965 -14.59428,-3.78299 -2.30197,-0.91992 -6.69391,-3.10488 -8.9691,-4.46209 -13.45613,-8.02686 -27.00932,-22.26587 -37.10086,-38.97819 -1.78017,-2.94809 -1.78626,-2.95947 -1.54445,-2.88513 0.5678,0.17457 9.93321,1.87527 13.66041,2.48064 6.46183,1.04953 9.20237,1.45031 14.69039,2.14832 25.27355,3.21451 48.0573,3.68516 70.58143,1.45802 10.91976,-1.07972 22.3146,-2.97414 32.90706,-5.47088 1.32031,-0.31121 2.42847,-0.53794 2.46257,-0.50383 0.11397,0.11395 -2.84487,5.0332 -5.10863,8.49342 -5.1594,7.88629 -10.42996,14.36905 -16.76972,20.62665 -4.66815,4.60765 -9.21047,8.33596 -14.05413,11.53552 -2.66239,1.75869 -3.7386,2.38718 -6.13507,3.58278 -5.67077,2.82915 -12.52284,4.77757 -19.86861,5.64973 -2.17763,0.25855 -8.26636,0.32331 -10.15701,0.10803 z"
         id="path90"
         transform="matrix(0.26458333,0,0,0.26458333,16.343013,0.46333283)"
         sodipodi:insensitive="true" /><path
         style="fill:#162643;fill-opacity:1;stroke:#162643;stroke-width:1.17104;stroke-linecap:round;stroke-dasharray:none;stroke-opacity:1;paint-order:stroke fill markers"
         d="m 578.84434,571.78487 c -21.51544,-2.14239 -36.89725,-5.74024 -54.76415,-12.80947 -15.50786,-6.13586 -29.46732,-13.58005 -44.25708,-23.60107 -8.07766,-5.47314 -19.10377,-14.01509 -19.10377,-14.79973 0,-0.23647 11.39062,-5.87674 25.3125,-12.53393 20.37292,-9.74197 28.23275,-13.8812 40.27712,-21.21117 43.33392,-26.37219 47.02285,-28.40796 55.01386,-30.36004 9.10976,-2.22538 14.53287,-0.0365 40.97743,16.5397 28.97838,18.16441 32.58608,20.15434 62.03143,34.21508 15.53149,7.4166 28.43549,13.67014 28.67556,13.89676 0.85576,0.8078 -14.64012,12.8542 -26.54498,20.63588 -23.05484,15.06993 -47.95337,24.78359 -73.18789,28.55276 -7.92171,1.18323 -28.50533,2.06518 -34.43003,1.47523 z"
         id="path91"
         transform="matrix(0.26458333,0,0,0.26458333,16.343013,0.46333283)"
         sodipodi:insensitive="true" /><text
         xml:space="preserve"
         style="font-style:normal;font-variant:normal;font-weight:normal;font-stretch:normal;font-size:9.87778px;font-family:'French Script MT';-inkscape-font-specification:'French Script MT, Normal';font-variant-ligatures:normal;font-variant-caps:normal;font-variant-numeric:normal;font-variant-east-asian:normal;text-align:center;text-anchor:middle;display:inline;fill:#ffffff;fill-opacity:1;stroke:#000000;stroke-width:1.7145;stroke-linecap:round;stroke-dasharray:none;stroke-opacity:0;paint-order:stroke fill markers"
         id="text58"
         transform="matrix(0.44176735,-0.33266808,0.25440185,0.33783351,86.176332,147.32952)"
         inkscape:label="initials"
         sodipodi:insensitive="true"><textPath
           xlink:href="#path56"
           startOffset="50%"
           id="textPath58"><tspan
             id="tspan58"
             style="font-style:normal;font-variant:normal;font-weight:normal;font-stretch:normal;font-size:9.87778px;font-family:'French Script MT';-inkscape-font-specification:'French Script MT, Normal';font-variant-ligatures:normal;font-variant-caps:normal;font-variant-numeric:normal;font-variant-east-asian:normal;fill:#ffffff;fill-opacity:1;stroke:#000000;stroke-width:1.7145;stroke-opacity:0">RTB</tspan></textPath></text><text
         xml:space="preserve"
         style="font-style:normal;font-variant:normal;font-weight:normal;font-stretch:normal;font-size:4.1516px;font-family:'French Script MT';-inkscape-font-specification:'French Script MT, Normal';font-variant-ligatures:normal;font-variant-caps:normal;font-variant-numeric:normal;font-variant-east-asian:normal;text-align:center;text-anchor:middle;fill:#000000;fill-opacity:1;stroke:#ffffff;stroke-width:0.409001;stroke-linecap:round;stroke-dasharray:none;stroke-opacity:1;paint-order:stroke fill markers"
         id="text91"
         transform="matrix(1.1099185,0.02719391,-0.02449346,0.99969999,-16.240331,-6.8542381)"><textPath
           xlink:href="#path92"
           startOffset="50%"
           id="textPath92"><tspan
             id="tspan91"
             style="font-style:normal;font-variant:normal;font-weight:normal;font-stretch:normal;font-size:4.1516px;font-family:'French Script MT';-inkscape-font-specification:'French Script MT, Normal';font-variant-ligatures:normal;font-variant-caps:normal;font-variant-numeric:normal;font-variant-east-asian:normal;fill:#000000;fill-opacity:1;stroke-width:0.409001">耶稣的士兵</tspan></textPath></text><path
         style="fill:#48ffff;fill-opacity:0;stroke:#3affff;stroke-width:0.539265;stroke-linecap:round;stroke-dasharray:none;stroke-opacity:0;paint-order:stroke fill markers"
         d="m 160.07404,167.20102 c 5.47131,3.64543 15.70352,5.69277 27.01305,-0.73271"
         id="path92"
         sodipodi:nodetypes="cc" /></g><path
       style="display:none;fill:#ffffff;fill-opacity:1;stroke:#000000;stroke-width:0;stroke-linecap:round;stroke-dasharray:none;stroke-opacity:1;paint-order:stroke fill markers"
       d="m 126.20074,137.41774 c 0.0324,-0.0198 0.15067,-0.0815 0.26305,-0.13655 0.11241,-0.055 0.24262,-0.13178 0.28945,-0.17041 0.075,-0.0618 0.0852,-0.081 0.085,-0.16029 -1.3e-4,-0.0495 -0.008,-0.10722 -0.018,-0.12816 -0.0193,-0.0414 0.0302,-0.0857 0.15677,-0.14029 0.14105,-0.0608 0.36677,-0.37994 0.32705,-0.46229 -0.0144,-0.0298 0.0664,-0.13232 0.15699,-0.19926 0.0953,-0.0705 0.13678,-0.16263 0.1212,-0.26959 -0.0146,-0.10047 0.004,-0.13727 0.11798,-0.229 0.10381,-0.0837 0.13067,-0.15667 0.10579,-0.28689 -0.0371,-0.1946 -0.0426,-0.26078 -0.0233,-0.2874 0.0114,-0.0158 0.0342,-0.0644 0.0508,-0.10801 0.0165,-0.0436 0.0465,-0.0992 0.0668,-0.12343 0.0544,-0.0654 0.0541,-0.11349 -0.002,-0.30779 -0.0281,-0.0969 -0.0434,-0.18729 -0.0341,-0.20087 0.009,-0.0135 0.0593,-0.0431 0.11098,-0.0658 0.0517,-0.0227 0.12227,-0.0593 0.15699,-0.0812 l 0.063,-0.0401 0.075,0.10454 c 0.0412,0.0575 0.0942,0.13361 0.11773,0.16914 0.054,0.0817 0.12903,0.12682 0.208,0.125 0.11434,-0.003 0.27093,0.0541 0.31644,0.11472 0.0235,0.0313 0.0913,0.10223 0.15062,0.15761 0.11677,0.10902 0.19478,0.1329 0.3301,0.10099 0.0779,-0.0183 0.18896,0.0143 0.21233,0.0625 0.0321,0.0662 0.13975,0.11096 0.2466,0.10251 0.16257,-0.0129 0.30163,-0.004 0.31322,0.02 0.0183,0.038 0.17992,0.095 0.26785,0.0946 0.0466,-2.5e-4 0.12197,0.002 0.16733,0.005 0.0453,0.003 0.11322,-0.007 0.15079,-0.0236 0.0376,-0.0162 0.0963,-0.0358 0.13056,-0.0433 0.0554,-0.0122 0.0679,-0.005 0.11388,0.0612 0.10024,0.14573 0.20839,0.14674 0.5835,0.005 0.27616,-0.10403 0.36924,-0.12272 0.25943,-0.0521 -0.25835,0.1661 -0.25049,0.1575 -0.33234,0.36176 -0.0475,0.11857 -0.0926,0.19923 -0.11737,0.20989 -0.0221,0.009 -0.10747,0.0617 -0.18965,0.11601 -0.17698,0.11683 -0.20395,0.1683 -0.16957,0.32336 l 0.023,0.10402 -0.12398,0.0698 c -0.15601,0.0879 -0.19238,0.14617 -0.16839,0.26994 0.0248,0.12823 0.0149,0.14954 -0.1005,0.21683 -0.10863,0.0633 -0.17372,0.17314 -0.1418,0.2393 0.0188,0.0391 -0.0556,0.19209 -0.14226,0.2927 -0.0661,0.0767 -0.0686,0.15954 -0.009,0.28828 0.037,0.0798 0.02,0.12667 -0.0582,0.16043 -0.0713,0.0308 -0.14145,0.13136 -0.14263,0.20447 -10e-4,0.0668 0.061,0.27428 0.13893,0.46454 l 0.0336,0.0824 -0.19785,0.0854 -0.19785,0.0854 -0.0517,-0.0961 c -0.0845,-0.15666 -0.22647,-0.3596 -0.27861,-0.39828 -0.0535,-0.0397 -0.18117,-0.0493 -0.25187,-0.0187 -0.0755,0.0326 -0.12152,0.008 -0.18666,-0.0988 -0.0782,-0.12829 -0.13757,-0.16259 -0.25013,-0.14436 -0.10888,0.0176 -0.25783,-0.0271 -0.28622,-0.0859 -0.0341,-0.0706 -0.16323,-0.10237 -0.27965,-0.0688 -0.11713,0.0337 -0.16189,0.0206 -0.24147,-0.0709 -0.0315,-0.0362 -0.0758,-0.0724 -0.0986,-0.0805 -0.051,-0.018 -0.17698,-3.8e-4 -0.26527,0.0371 -0.0901,0.0383 -0.11261,0.0313 -0.16762,-0.0521 -0.0576,-0.0874 -0.13383,-0.13565 -0.2071,-0.13116 -0.03,0.002 -0.13531,0.0266 -0.23385,0.0549 -0.14195,0.0408 -0.1846,0.0459 -0.20535,0.0242 -0.0312,-0.0326 -0.20609,-0.08 -0.24038,-0.0652 -0.0131,0.006 -0.0277,0.003 -0.0324,-0.007 -0.0181,-0.0377 -0.13579,-0.0324 -0.31534,0.0143 -0.10351,0.027 -0.1928,0.0473 -0.19841,0.0453 -0.006,-0.002 0.0163,-0.02 0.0486,-0.04 z"
       id="path17-8"
       inkscape:label="dinamond" /><path
       style="display:none;fill:#ffffff;fill-opacity:1;stroke:#000000;stroke-width:0;stroke-linecap:round;stroke-dasharray:none;stroke-opacity:1;paint-order:stroke fill markers"
       d="m 172.34061,130.16367 c 0.0324,-0.0198 0.15067,-0.0815 0.26305,-0.13655 0.11241,-0.055 0.24262,-0.13178 0.28945,-0.17041 0.075,-0.0618 0.0852,-0.081 0.085,-0.16029 -1.3e-4,-0.0495 -0.008,-0.10722 -0.018,-0.12816 -0.0193,-0.0414 0.0302,-0.0857 0.15677,-0.14029 0.14105,-0.0608 0.36677,-0.37994 0.32705,-0.46229 -0.0144,-0.0298 0.0664,-0.13232 0.15699,-0.19926 0.0953,-0.0705 0.13678,-0.16263 0.1212,-0.26959 -0.0146,-0.10047 0.004,-0.13727 0.11798,-0.229 0.10381,-0.0837 0.13067,-0.15667 0.10579,-0.28689 -0.0371,-0.1946 -0.0426,-0.26078 -0.0233,-0.2874 0.0114,-0.0158 0.0342,-0.0644 0.0508,-0.10801 0.0165,-0.0436 0.0465,-0.0992 0.0668,-0.12343 0.0544,-0.0654 0.0541,-0.11349 -0.002,-0.30779 -0.0281,-0.0969 -0.0434,-0.18729 -0.0341,-0.20087 0.009,-0.0135 0.0593,-0.0431 0.11098,-0.0658 0.0517,-0.0227 0.12227,-0.0593 0.15699,-0.0812 l 0.063,-0.0401 0.075,0.10454 c 0.0412,0.0575 0.0942,0.13361 0.11773,0.16914 0.054,0.0817 0.12903,0.12682 0.208,0.125 0.11434,-0.003 0.27093,0.0541 0.31644,0.11472 0.0235,0.0313 0.0913,0.10223 0.15062,0.15761 0.11677,0.10902 0.19478,0.1329 0.3301,0.10099 0.0779,-0.0183 0.18896,0.0143 0.21233,0.0625 0.0321,0.0662 0.13975,0.11096 0.2466,0.10251 0.16257,-0.0129 0.30163,-0.004 0.31322,0.02 0.0183,0.038 0.17992,0.095 0.26785,0.0946 0.0466,-2.5e-4 0.12197,0.002 0.16733,0.005 0.0453,0.003 0.11322,-0.007 0.15079,-0.0236 0.0376,-0.0162 0.0963,-0.0358 0.13056,-0.0433 0.0554,-0.0122 0.0679,-0.005 0.11388,0.0612 0.10024,0.14573 0.20839,0.14674 0.5835,0.005 0.27616,-0.10403 0.36924,-0.12272 0.25943,-0.0521 -0.25835,0.1661 -0.25049,0.1575 -0.33234,0.36176 -0.0475,0.11857 -0.0926,0.19923 -0.11737,0.20989 -0.0221,0.009 -0.10747,0.0617 -0.18965,0.11601 -0.17698,0.11683 -0.20395,0.1683 -0.16957,0.32336 l 0.023,0.10402 -0.12398,0.0698 c -0.15601,0.0879 -0.19238,0.14617 -0.16839,0.26994 0.0248,0.12823 0.0149,0.14954 -0.1005,0.21683 -0.10863,0.0633 -0.17372,0.17314 -0.1418,0.2393 0.0188,0.0391 -0.0556,0.19209 -0.14226,0.2927 -0.0661,0.0767 -0.0686,0.15954 -0.009,0.28828 0.037,0.0798 0.02,0.12667 -0.0582,0.16043 -0.0713,0.0308 -0.14145,0.13136 -0.14263,0.20447 -10e-4,0.0668 0.061,0.27428 0.13893,0.46454 l 0.0336,0.0824 -0.19785,0.0854 -0.19785,0.0854 -0.0517,-0.0961 c -0.0845,-0.15666 -0.22647,-0.3596 -0.27861,-0.39828 -0.0535,-0.0397 -0.18117,-0.0493 -0.25187,-0.0187 -0.0755,0.0326 -0.12152,0.008 -0.18666,-0.0988 -0.0782,-0.12829 -0.13757,-0.16259 -0.25013,-0.14436 -0.10888,0.0176 -0.25783,-0.0271 -0.28622,-0.0859 -0.0341,-0.0706 -0.16323,-0.10237 -0.27965,-0.0688 -0.11713,0.0337 -0.16189,0.0206 -0.24147,-0.0709 -0.0315,-0.0362 -0.0758,-0.0724 -0.0986,-0.0805 -0.051,-0.018 -0.17698,-3.8e-4 -0.26527,0.0371 -0.0901,0.0383 -0.11261,0.0313 -0.16762,-0.0521 -0.0576,-0.0874 -0.13383,-0.13565 -0.2071,-0.13116 -0.03,0.002 -0.13531,0.0266 -0.23385,0.0549 -0.14195,0.0408 -0.1846,0.0459 -0.20535,0.0242 -0.0312,-0.0326 -0.20609,-0.08 -0.24038,-0.0652 -0.0131,0.006 -0.0277,0.003 -0.0324,-0.007 -0.0181,-0.0377 -0.13579,-0.0324 -0.31534,0.0143 -0.10351,0.027 -0.1928,0.0473 -0.19841,0.0453 -0.006,-0.002 0.0163,-0.02 0.0486,-0.04 z"
       id="path93"
       inkscape:label="dinamond" /><g
       id="text93"
       transform="scale(1.127907,0.88659791)"
       style="display:none"><path
         style="color:#000000;-inkscape-font-specification:'a Another Tag, Normal';fill:#14ff3b;fill-opacity:0;stroke-linecap:round;-inkscape-stroke:none;paint-order:stroke fill markers"
         d="m 65.070312,123.77539 -1.457031,1.45703 c -0.11327,0.0898 -0.291004,0.17968 -0.373047,0.26172 -0.246894,0.2469 -0.290815,0.38858 -0.410156,0.57422 -0.09948,0.0948 -0.234104,0.168 -0.320312,0.26758 -0.08047,0.093 -0.186488,0.16093 -0.25586,0.25586 l -0.279297,0.27929 -0.195312,0.28321 c -0.667092,0.97498 -1.286598,1.92991 -1.859375,2.86718 l -0.02734,0.0469 -1.90625,3.33594 1.285156,2.46289 h -0.373047 c -2.451113,0 -3.238755,1.20115 -4.039062,2.07422 l -0.115234,0.12695 -0.101563,0.13476 c -1.001837,1.31821 -1.846314,2.56406 -2.535156,3.76954 l -0.01953,0.0312 -0.01563,0.0312 c -0.450395,0.82573 -0.890625,1.6896 -0.890625,3.08593 0,1.22843 0.396266,2.03868 0.779296,2.70899 l 0.115235,0.20312 c 0.856039,1.73875 1.154297,3.06813 1.154297,3.01563 0,-0.32093 -0.03616,0.33745 -0.169922,1.14453 -6.7e-4,0.004 6.75e-4,0.002 0,0.006 -0.175564,0.95582 -0.29415,1.37516 -0.44336,2.06445 -3.397457,-1.11376 -6.126095,-1.80236 -8.505859,-1.99023 l -0.0059,-0.002 -4.951172,-0.37109 -3.269531,4.35938 v 0.15429 c -0.54349,0.79663 -1.103919,1.61217 -1.462891,2.20703 -0.252264,0.41804 -0.463528,0.78567 -0.658203,1.19727 -0.194675,0.4116 -0.513672,0.61896 -0.513672,2.0625 v 1.60351 l 1.080078,1.08008 c 0.498394,0.49846 1.066643,0.77358 1.607422,0.94141 l 0.572266,0.28711 h 0.148437 l 0.144531,0.0723 h 0.414063 l 0.222656,0.0742 h 0.150391 l 0.216797,0.0723 h 0.509765 l 0.222656,0.0742 h 0.683594 c 2.328888,0.17032 5.61554,1.05364 9.392578,2.40429 -0.09623,0.213 -0.125484,0.30661 -0.236328,0.54493 -1.805356,3.6151 -3.121146,6.46123 -4.013672,8.69531 -0.122273,0.25486 -0.210888,0.48307 -0.285156,0.70117 -1.201531,3.15313 -1.90039,5.96158 -1.900391,8.62695 v 0.8711 l 2.753907,5.50781 3.121093,-3.12305 0.441407,-0.2207 0.07227,-0.0723 0.148438,-0.0742 0.234375,-0.23438 c 0.08799,-0.0549 0.20107,-0.11191 0.285156,-0.16797 l 0.304688,-0.20312 0.585937,-0.58594 c 0.307915,-0.22127 0.596472,-0.45194 0.841797,-0.69727 l -0.5625,0.46289 c 0.382665,-0.25511 0.710548,-0.53672 1.001953,-0.82812 l -0.164062,0.15625 c 3.0962,-2.73722 6.305947,-4.77173 9.65625,-6.16406 l 4.763671,-1.98047 -3.33789,-3.78711 c 0.43404,0.34798 0.986361,0.61853 1.402344,0.97851 l 0.0039,0.002 3.800781,3.27148 0.896484,0.85352 4.451172,4.23828 3.138672,-3.92383 c 0.0091,0.009 0.01031,0.018 0.01953,0.0273 0.593767,0.60277 1.64991,1.40821 3.207032,1.40821 h 0.123047 l 0.121093,-0.008 c 2.177851,-0.14518 3.125021,-1.33698 3.871094,-2.25976 0.746073,-0.92278 1.336284,-1.95186 1.966797,-3.21289 l 0.01563,-0.0332 0.513672,-1.08008 c 4.017707,3.74147 5.69071,5.32478 14.300776,13.29492 l 0.002,0.004 10.43164,9.61914 3.40039,-4.18555 c 0.89117,-1.06942 1.69713,-2.25622 2.42773,-3.54883 l 0.0156,-0.0273 2,-3.69336 -2.47461,-3.89649 c 0.0463,-0.0366 0.0892,-0.0616 0.13672,-0.0996 l 0.0176,-0.0117 0.0156,-0.0137 c 2.85014,-2.33552 6.16841,-3.51004 10.49023,-3.55468 1.6618,10e-4 3.60235,0.19086 5.79493,0.59179 5.0408,0.99446 9.14749,2.65948 12.71875,4.70508 -0.48078,0.73746 -0.96636,1.47273 -1.35352,2.25781 l -0.0195,0.041 -0.0195,0.041 c -0.98408,2.12356 -1.64598,3.22949 -1.79492,5.31446 l -0.01,0.13086 v 11.99023 l 7.65039,-9.83789 0.0195,-0.0254 c 0.28774,-0.38365 0.56837,-0.8056 1.04688,-1.52344 l 0.004,-0.004 c 1.86537,-2.7317 3.66132,-4.3737 5.14453,-5.1543 2.12731,-1.0551 7.02051,-2.16432 14.10157,-2.68359 l 0.0332,-0.002 0.0312,-0.004 c 0.44631,-0.0406 0.82847,-0.0566 1.13086,-0.0566 h 0.17773 l 0.17774,-0.0176 c 1.14226,-0.11054 2.2029,-0.3481 3.24414,-0.77149 0.14653,-0.0682 0.25672,-0.12603 0.34961,-0.20117 0.53645,-0.25735 1.07458,-0.43746 1.60742,-0.92187 l 0.0644,-0.0586 0.0625,-0.0625 c 0.12747,-0.12747 0.26111,-0.30443 0.38867,-0.43945 2.75958,-2.12285 5.93111,-3.26603 10.05079,-3.30859 1.66179,0.001 3.60233,0.19086 5.79492,0.59179 6.0449,1.19255 10.99093,3.17504 14.93945,5.86524 l 0.0606,0.041 0.0625,0.0391 c 0.60897,0.3806 1.10011,0.67857 1.51562,0.91601 0.41552,0.23744 0.23227,0.36466 1.59375,0.70508 l 0.44141,0.11133 h 0.45508 c 1.89466,0 2.09973,-0.59727 2.43359,-0.84766 0.32113,-0.24085 0.52244,-0.43896 0.73242,-0.64844 1.65717,-1.6015 2.97333,-3.51523 3.88672,-5.64648 l -0.0918,0.19726 1.4668,-2.93359 -4.16015,-8.68359 -0.2793,-0.55664 -0.0117,-0.0234 -0.0156,-0.0332 c -4.39489,-9.17933 -8.25432,-17.98805 -11.57812,-26.41797 l 0.0684,0.1875 c -0.19827,-0.5948 -0.4427,-1.19542 -0.72852,-1.82422 l 0.0547,0.125 c -1.12078,-2.72886 -1.96011,-4.78735 -2.51562,-6.16406 -0.27776,-0.68836 -0.48521,-1.20747 -0.61524,-1.54102 -0.062,-0.15913 -0.1055,-0.2712 -0.125,-0.32422 0.008,0.0251 0.0205,0.0623 0.0469,0.16211 1.6e-4,6.2e-4 -1.7e-4,0.005 0,0.006 -0.17321,-0.69076 -0.51682,-1.93603 -2.14063,-2.74805 l -1,-0.5 -1.10937,0.13868 c -2.31797,0.28974 -2.51445,1.15851 -3.07813,1.75976 -0.56073,0.59812 -1.07358,1.26892 -1.66211,2.09766 -0.003,0.004 -0.005,0.007 -0.008,0.0117 -1.29978,1.7828 -2.33787,2.91407 -2.50391,5.40429 l -0.008,0.1211 v 0.12304 c 0,1.06933 0.16038,1.29856 0.30274,1.80469 0.14235,0.50613 0.32466,1.07031 0.55859,1.74609 l 0.0293,0.082 0.0332,0.082 c 0.68619,1.71548 1.3189,3.27137 1.93164,4.76562 v 0.01 c 0,0.24851 -0.15869,1.87355 -0.53125,4.11914 -0.20854,1.18779 -0.34994,1.64443 -0.53906,2.59375 -3.03983,-4.15933 -6.19543,-8.90997 -9.53321,-14.70313 l 0.0117,0.043 c -0.21316,-0.39507 -0.45751,-0.74266 -0.67187,-0.95703 l 0.58594,0.76367 c -0.92793,-1.60505 -1.67417,-2.82649 -2.31446,-3.75781 -0.32014,-0.46566 -0.59923,-0.85141 -0.97461,-1.26562 -0.18769,-0.20711 -0.38827,-0.42522 -0.76172,-0.70313 -0.37344,-0.27791 -0.91811,-0.80273 -2.36718,-0.80273 -2.21397,0 -2.5792,0.87666 -3.04688,1.31836 -0.46128,0.43565 -0.80726,0.85901 -1.1875,1.35546 -1.04014,1.33107 -1.9347,2.77711 -2.67773,4.32032 l -0.14649,0.30468 -0.4375,1.60743 v 0.49414 c 0,0.538 0.10904,0.71554 0.17383,1.04101 -1.79464,-1.58404 -2.96554,-2.75583 -5.94922,-5.16015 l 0.002,0.004 c -1.23438,-0.99699 -2.2665,-1.86527 -3.08399,-2.59179 l -0.002,-0.002 c -5.6e-4,-4.9e-4 -0.001,-0.001 -0.002,-0.002 -1.89549,-1.69034 -3.74544,-3.99184 -5.49414,-6.95117 -0.67865,-1.14849 -1.25846,-2.05022 -1.85742,-2.82031 -0.29948,-0.38505 -0.59417,-0.73891 -1.02734,-1.12305 -0.43317,-0.38414 -0.95784,-0.97511 -2.44727,-1.14063 l -0.20312,-0.0215 h -0.20508 c -1.78964,0 -2.39121,0.74343 -2.83789,1.14453 -0.44668,0.4011 -0.72453,0.7538 -1.01172,1.13672 -0.57438,0.76584 -1.12369,1.65965 -1.77539,2.80664 l -0.0488,0.084 -0.043,0.0879 c -0.16765,0.33532 -0.32143,0.57687 -0.20898,0.40821 l -0.0352,0.0527 -1.61523,2.60938 c -0.26579,-0.65301 -0.69588,-1.37521 -1.82422,-1.93946 l -1,-0.5 -1.10938,0.13868 c -2.31796,0.28974 -2.51249,1.15851 -3.07617,1.75976 -0.56073,0.59812 -1.07553,1.26892 -1.66406,2.09766 -0.003,0.004 -0.005,0.007 -0.008,0.0117 -1.29978,1.7828 -2.33787,2.91407 -2.50391,5.40429 l -0.008,0.1211 v 0.12304 c 0,1.06932 0.16038,1.29856 0.30273,1.80469 0.14235,0.50613 0.32467,1.07031 0.5586,1.74609 l 0.0293,0.082 0.0332,0.082 c 0.68619,1.71548 1.31889,3.27137 1.93164,4.76562 v 0.006 c -1.58411,0.23329 -3.51697,0.52853 -5.21289,0.78125 -0.79845,-1.22889 -1.63025,-2.65057 -2.44727,-3.98242 0.0572,-0.0944 0.15889,-0.22188 0.21289,-0.31445 0.54389,-0.93238 1.14258,-1.45989 1.14258,-3.4336 0,-0.68848 -0.22802,-1.86864 -1.13477,-2.77539 -0.90674,-0.90674 -2.08691,-1.13476 -2.77539,-1.13476 h -0.32421 l -0.31836,0.0566 c -0.40864,0.0721 -0.71832,0.12525 -0.91602,0.1582 -0.0127,0.002 -0.0136,0.002 -0.0254,0.004 h -0.11914 l -0.26758,0.0566 c -0.25201,-0.39911 -0.58338,-0.98581 -0.80664,-1.31055 -0.32014,-0.46566 -0.59923,-0.85141 -0.97461,-1.26562 -0.18769,-0.20711 -0.38827,-0.42522 -0.76172,-0.70313 -0.37344,-0.27791 -0.91811,-0.80273 -2.36719,-0.80273 -2.21396,0 -2.57919,0.87666 -3.04687,1.31836 -0.46128,0.43565 -0.80726,0.85901 -1.1875,1.35546 -0.62335,0.79769 -1.08606,1.71349 -1.60352,2.58985 -1.15782,0.0471 -2.23495,0.15234 -3.45703,0.15234 h -1.03515 c -4.081977,-0.0897 -9.156951,-0.9666 -15.130861,-2.70703 -0.756532,-0.25097 -1.399578,-0.45767 -1.910156,-0.60547 -0.546621,-0.15823 -0.428681,-0.3457 -1.904297,-0.3457 h -1.529297 l -1.154297,1.1543 c -0.315124,0.31512 -0.551304,0.62383 -0.753906,0.92773 l 0.460937,-0.5625 c -0.155044,0.15504 -0.240448,0.35244 -0.375,0.52344 -0.286412,0.28748 -0.527197,0.56866 -0.77539,0.8789 l -0.07617,0.0957 -0.07227,0.10156 c -0.130614,0.18776 -0.189046,0.30089 -0.310547,0.47851 -1.158877,-0.93413 -2.2329,-1.81156 -3.064453,-2.52343 -2.043233,-1.83311 -3.822427,-4.01155 -5.349609,-6.58594 l -0.0039,-0.008 -0.0059,-0.008 c -0.758902,-1.26483 -1.378708,-2.24438 -1.931641,-3.02148 -0.276466,-0.38855 -0.528496,-0.72339 -0.851562,-1.07812 -0.323066,-0.35474 -0.37221,-0.87058 -2.076172,-1.35743 z m -1.294921,6.92383 c -0.0084,-0.009 0.108394,0.14207 0.205078,0.26953 -0.190431,-0.15589 -0.198604,-0.26242 -0.205078,-0.26953 z m 69.013669,3.58984 c 0,0.84959 0.0847,0.81965 0.11914,0.91992 -0.001,-0.005 -0.009,-0.021 -0.01,-0.0254 z m 60.60156,0 c 0,0.84959 0.0847,0.81965 0.11915,0.91992 -0.001,-0.005 -0.009,-0.021 -0.01,-0.0254 z m -55.27929,2.78125 c 0.0963,-0.10272 0.11658,0.006 -0.125,0.16016 0.0264,-0.03 0.10474,-0.13855 0.125,-0.16016 z m 60.60156,0 c 0.0963,-0.10272 0.11659,0.006 -0.125,0.16016 0.0264,-0.03 0.10474,-0.13855 0.125,-0.16016 z m -139.841796,0.79492 c -0.131559,0.0801 -0.302953,0.16096 -0.410157,0.23243 l 0.396485,-0.23047 c 0.0028,-0.001 0.01079,-5.5e-4 0.01367,-0.002 z m 83.283206,0.65039 0.082,0.11133 c 0.0282,0.0377 0.0301,0.0464 0.0176,0.0215 l 0.10351,0.20508 0.12695,0.1914 c 0.0451,0.0676 0.14373,0.22457 0.27149,0.4375 l 0.43945,0.73047 -0.13672,-0.24805 c 0.20516,0.41031 0.4182,0.74886 0.66211,1.11524 0.003,0.004 0.005,0.009 0.008,0.0137 0.13033,0.21299 0.26968,0.43087 0.41796,0.65625 0.14829,0.24715 0.32419,0.473 0.49219,0.70508 0.0424,0.0745 0.0444,0.10607 0.0801,0.17773 v 1.39063 c 0,0.49633 0.11462,0.78707 0.16992,1.16992 -0.32473,-0.80595 -0.70637,-1.65198 -1.02148,-2.45117 l 0.0684,0.1875 c -0.19827,-0.5948 -0.4427,-1.19542 -0.72852,-1.82422 l 0.0547,0.125 c -0.49359,-1.20179 -0.72303,-1.77421 -1.10742,-2.71485 z m -72.189456,0.80079 c 0.810469,0.90113 1.603812,1.82411 2.5,2.62695 l 0.0293,0.0254 0.03125,0.0273 c 1.068629,0.91597 2.340886,1.96256 3.828125,3.15235 0.321998,0.25878 0.594439,0.54906 0.912109,0.81054 -0.04767,-0.0328 -0.09658,-0.0715 -0.144531,-0.10351 l -5.958985,-3.97266 v 3.19922 c -0.106134,-0.31668 -0.267044,-0.76766 -0.333984,-0.98633 -0.0289,-0.0944 -0.02625,-0.15042 -0.04297,-0.24609 0.101467,-0.22783 0.222657,-0.26664 0.222656,-1.29102 v -0.22851 l -0.0293,-0.22852 c -0.168633,-1.34906 -0.556266,-2.02454 -1.013672,-2.78515 z m 81.453126,0.11718 c 0.73122,0.80883 1.43671,1.67037 2.2207,2.36914 l 0.002,0.002 h 0.002 c 0.93854,0.83425 2.05232,1.7713 3.35351,2.82226 h 0.002 l 0.002,0.002 c 0.73429,0.59171 0.72062,0.64928 1.37891,1.18945 l -5.90235,-3.93555 v 2.97071 c -0.12214,-0.45985 -0.2562,-0.87878 -0.30273,-1.02149 0.1,-0.22373 0.2207,-0.26287 0.2207,-1.27344 v -0.22851 l -0.0293,-0.22852 c -0.16016,-1.28115 -0.52235,-1.95377 -0.94726,-2.66797 z m 25.50976,0.85157 c -0.0144,0.0136 -0.0362,0.18903 -0.29882,0.36132 0.15016,-0.1822 0.31975,-0.38109 0.29882,-0.36132 z M 56.314453,141.7168 c 0.02614,0.0871 0.08723,0.2071 0.117188,0.30273 -2.3e-4,-2.3e-4 -0.02863,-0.0405 -0.02734,-0.0371 z m 4.015625,1.23437 c 0.03592,0.008 0.08677,-0.0343 -0.02734,0.0391 0.01083,-0.0146 0.01645,-0.0244 0.02734,-0.0391 z m 0.933594,1.6543 c -0.188093,0.031 -0.126864,0.10937 -0.388672,0.10937 l -0.197266,-0.0215 c 0.216503,-0.0125 0.391056,-0.0515 0.585938,-0.0879 z m 36.701172,1.17383 c 0.412336,0.0579 0.796663,0.0791 1.201172,0.12695 L 98.375,146.01953 c -0.09795,-0.0946 -0.294045,-0.15012 -0.410156,-0.24023 z m 62.691406,1.90039 0.46484,0.39258 c -0.0497,-0.0497 -0.11339,-0.086 -0.16406,-0.13477 -0.10441,-0.0806 -0.19332,-0.18105 -0.30078,-0.25781 z m -39.49219,0.99609 -0.0781,0.0801 c 0.0227,-0.0228 0.0293,-0.0385 0.0508,-0.0606 0.008,-0.008 0.0195,-0.0112 0.0273,-0.0195 z m 10.12696,0.43164 c -0.0522,0.61452 -0.12722,1.4915 -0.42383,3.2793 -0.20855,1.18779 -0.34994,1.64443 -0.53907,2.59375 -1.19682,-1.63759 -2.37778,-3.19974 -3.62304,-5.0918 z m -19.57618,3.3418 c 0.34764,0.5859 0.65436,1.10361 1.02539,1.72851 l 0.0156,0.0274 0.0156,0.0254 c 3.81384,6.18775 6.76062,10.34165 9.4043,13.51172 -2.6614,0.8832 -5.05568,2.20598 -7.13281,3.91211 -0.14095,-0.26884 -0.25378,-0.52024 -0.41016,-0.83008 -1.64803,-3.481 -3.77152,-8.90906 -6.2832,-16.1543 -0.23198,-0.68047 -0.33314,-0.97796 -0.5293,-1.55469 z m -17.330074,0.94531 0.101562,0.36719 c -0.01728,-0.0778 -0.05195,-0.10022 -0.07031,-0.17383 -0.01788,-0.0613 -0.01135,-0.13364 -0.03125,-0.19336 z m -40.544922,1.28125 0.648437,0.19141 c -0.149354,-0.0597 -0.300893,-0.0763 -0.451172,-0.125 -0.06536,-0.0151 -0.132331,-0.0534 -0.197265,-0.0664 z m 40.710937,1.12305 c 4.47e-4,10e-4 0.0015,0.003 0.002,0.004 l 0.0098,0.0293 0.0098,0.0273 c 2.063648,5.87728 3.40448,9.36155 4.876953,13.28321 -1.874191,-1.66862 -4.523457,-3.96935 -7.884766,-6.85156 1.595008,-2.16015 2.766715,-4.11961 2.986328,-6.49219 z m 81.109379,1.9375 c 2.71023,4.23861 5.06873,7.54953 7.11718,10.00586 -0.93831,0.31138 -1.8334,0.69177 -2.70507,1.10937 -1.7125,-2.41759 -4.00071,-4.66861 -6.91993,-6.82226 1.09266,-1.38369 2.08311,-2.75172 2.50782,-4.29297 z m -138.500004,0.59961 c 0.279657,0 0.71669,0.0822 1.1875,0.26172 -0.139535,-0.0248 -0.245879,-0.059 -0.416015,-0.0703 -0.259138,-0.0719 -0.243821,-0.1914 -0.771485,-0.1914 z m 0.921875,0.22851 0.283203,0.0449 c 0.002,7.8e-4 0.0039,0.003 0.0059,0.004 -0.11402,-0.01 -0.157535,-0.0474 -0.289063,-0.0488 z m 119.185549,1.49024 0.17383,0.14843 0.26757,0.16016 c 2.05581,1.23348 4.14608,1.3761 6.73047,1.38672 l -0.90625,1.8125 1.88086,1.88086 c 0.4955,0.49549 0.37452,0.32882 0.43555,0.375 0.061,0.0462 0.11275,0.0845 0.17383,0.12891 0.12216,0.0888 0.27342,0.19732 0.46875,0.33593 0.38664,0.2744 0.94381,0.66493 1.66797,1.17188 1.46195,1.03555 2.62823,2.04045 3.65039,3.01562 -2.25448,-1.90928 -4.22392,-3.45321 -5.93946,-4.45117 l -0.0117,-0.008 c -0.93552,-0.55277 -1.24068,-0.97534 -2.93554,-1.25781 l -1.875,-0.3125 -1.85352,1.85546 c -0.0466,-0.12209 -0.11057,-0.33626 -0.15625,-0.45312 -0.57219,-1.46375 -0.8414,-2.35797 -1.83594,-3.58203 l -0.0137,-0.0176 -0.0117,-0.0137 c 0.0964,-0.35969 0.19336,-0.7084 0.19336,-1.37305 0,-0.36664 -0.0758,-0.52439 -0.10351,-0.80273 z m -81.203127,0.11914 c 1.05834,0.67089 2.048627,1.00169 3.023438,1.12695 l 1.355468,1.1543 -3.001953,2.06836 c -0.3296,-1.06015 -0.488845,-1.55433 -0.878906,-2.81446 -0.200729,-0.67562 -0.304582,-0.89282 -0.498047,-1.53515 z m 79.847657,0.80078 0.125,0.10547 c -0.006,-0.005 0.0205,0.0385 0.0156,0.0332 -0.0515,-0.0435 -0.0875,-0.0961 -0.14062,-0.13867 z m -104.410157,0.70898 0.203125,0.0332 c 0.06317,0.0105 0.07279,0.0186 0.04102,0.006 l 0.314453,0.12695 0.21875,0.043 0.287109,0.14453 0.484375,0.0977 c 0.151198,0.0302 0.229562,0.0583 0.142578,0.0293 l 0.134766,0.0449 0.136719,0.0332 c 0.07851,0.0196 0.233316,0.0231 0.3125,0.043 L 54.419922,162.5 h 0.599609 c 0.201684,0 0.29854,-0.10004 0.478516,-0.125 0.178378,0.24563 0.330928,0.55053 0.521484,0.73242 0.61763,0.58956 1.245252,0.86912 1.876953,1.16016 -0.314275,-0.16153 -0.506725,-0.36914 -1.632812,-0.36914 -0.230343,0 -0.356386,0.0852 -0.554688,0.11523 -0.533867,-0.63281 -1.151317,-1.17229 -1.677734,-1.40625 l 1.111328,0.76172 -0.607422,-0.60547 -0.701172,-0.28125 c -0.835945,-0.33594 -1.533188,-0.50526 -2.332031,-0.79883 z m 13.441406,0.9043 c 0.387224,0.80358 0.589894,1.24976 1.027344,2.15039 l 2.953125,6.08008 -0.160156,0.33008 c -0.05338,0.10649 -0.08413,0.12058 -0.136719,0.2207 l -0.06641,-0.0566 -0.0078,-0.006 c -2.662031,-2.30279 -5.619216,-4.36002 -8.83789,-6.19141 l 0.30664,0.12305 0.392578,0.0644 c 0.244812,0.0408 0.452109,0.0879 0.935547,0.0879 0.241719,1e-5 0.531179,0.0404 1.25,-0.19921 0.359411,-0.11982 0.880208,-0.31763 1.464844,-0.90235 0.396855,-0.39691 0.688979,-1.04033 0.878906,-1.70117 z m 73.117191,1.35156 c 0.50453,1.17768 1.21355,2.82946 1.625,3.79102 -1.15216,-0.25132 -2.30177,-0.4908 -3.43164,-0.6543 0.63145,-1.01471 1.28399,-2.00572 1.80664,-3.13672 z m 60.60156,0 c 0.50453,1.17768 1.21355,2.82946 1.625,3.79102 -1.15216,-0.25132 -2.30177,-0.4908 -3.43164,-0.6543 0.63145,-1.01471 1.28399,-2.00572 1.80664,-3.13672 z m -27.34375,0.5 0.002,0.01 -0.61133,0.84765 c 0.35204,-0.35208 0.4658,-0.6001 0.60938,-0.85742 z m -46.62305,2.59375 c -0.0118,0.002 -0.0234,0.008 -0.0352,0.01 -0.009,0.002 -0.0201,1.2e-4 -0.0293,0.002 z m 60.60156,0 c -0.0118,0.002 -0.0234,0.008 -0.0352,0.01 -0.009,0.002 -0.0201,1.2e-4 -0.0293,0.002 z m -133.433589,0.44336 c -0.0013,0.003 -0.0026,0.013 -0.0039,0.0156 -0.0084,0.0175 -0.01895,0.0312 -0.02734,0.0488 z m 70.708989,0.10352 c -0.009,0.003 -0.0166,0.007 -0.0254,0.01 -0.0144,0.005 -0.0286,0.007 -0.043,0.0117 z m 60.60156,0 c -0.009,0.003 -0.0166,0.007 -0.0254,0.01 -0.0144,0.005 -0.0286,0.007 -0.043,0.0117 z m -38.18555,1.47851 0.25,0.0723 c -0.0611,-0.02 -0.11864,-0.0252 -0.17969,-0.0449 -0.0284,-0.007 -0.0411,-0.02 -0.0703,-0.0273 z m 60.59961,0 0.25195,0.0723 c -0.0631,-0.0206 -0.12247,-0.0265 -0.18554,-0.0469 -0.0268,-0.007 -0.0389,-0.0185 -0.0664,-0.0254 z m -35.43945,3.62305 c -0.0531,0 -0.13625,0.0227 -0.18946,0.0234 -0.0383,0.008 0.10094,-0.0244 0.004,-0.0195 z m -20.38867,1.67578 1.92578,4.01953 c -0.15441,0.35013 -0.43728,0.58569 -0.6211,0.9043 -0.20986,0.16551 -0.42339,0.32875 -0.62695,0.49805 -1.73498,-1.10023 -3.5906,-2.07452 -5.55469,-2.9336 l 4.87696,0.8125 z m 60.60156,0 1.92578,4.01953 c -0.25971,0.58891 -0.69962,1.01765 -1.04492,1.52149 -1.7917,-1.15168 -3.7191,-2.16102 -5.75782,-3.05274 l 4.87696,0.8125 z m -58.56836,3.82813 -0.043,0.0996 c -0.006,0.0145 -0.0191,0.0227 -0.0254,0.0371 z m 60.60156,0 -0.043,0.0996 c -0.006,0.0145 -0.0191,0.0227 -0.0254,0.0371 z m -107.92578,3.30078 c 0.15986,0.29013 0.30588,0.60154 0.5,0.88476 0.18343,0.26763 0.37638,0.54379 0.76953,0.91211 0.29802,0.27919 0.90063,0.68075 1.82422,0.90039 0.42824,0.68896 0.56344,0.99591 1.06445,1.78321 l 1.23828,1.95117 c -0.063,0.10834 -0.13173,0.18049 -0.19531,0.28515 l -4.49609,-4.14648 -0.004,-0.004 c -0.91212,-0.84432 -0.64638,-0.60463 -1.50781,-1.40234 z m 50.21094,5.32812 -0.0488,0.0488 c 0.007,-0.007 0.0122,-0.0163 0.0195,-0.0234 0.008,-0.008 0.0209,-0.017 0.0293,-0.0254 z m -105.794924,2.9375 c 0.0037,-0.003 -0.01948,0.0163 -0.01563,0.0137 l -0.105469,0.0605 0.0078,-0.008 c 0.03807,-0.0221 0.0774,-0.0446 0.113282,-0.0664 z"
         id="path1" /><path
         style="color:#000000;-inkscape-font-specification:'a Another Tag, Normal';fill:#000000;fill-opacity:0.923759;stroke-linecap:round;-inkscape-stroke:none;paint-order:stroke fill markers"
         d="m 61.460257,161.66204 q -0.07319,-0.51233 -1.097852,-2.78123 l -1.244232,-2.70803 -0.512331,1.53699 q -0.439141,1.31742 -0.439141,1.90294 0,0.87829 1.610183,1.537 0.14638,0.0732 0.292761,0.14638 0.585521,0.21957 0.951471,0.36595 0.439141,0.0732 0.439141,0 z m -6.440732,-2.85442 q 0.585521,0 1.683373,-6.00159 0.219571,-1.31742 0.219571,-1.75656 0,-1.68338 -1.610183,-4.83055 -0.07319,-0.14638 -0.146381,-0.21957 -0.29276,-0.51233 -0.29276,-0.87828 0,-0.51233 0.439141,-1.31743 0.878281,-1.53699 2.268894,-3.36674 0.805091,-0.87828 1.317422,-0.87828 0.585522,0.14638 0.951472,1.09785 0.219571,0.7319 0.658711,0.51233 0.219571,-0.14638 0.365951,-0.14638 0.658711,0.14638 0.658711,1.90294 0,3.51313 3.879078,12.07638 1.390612,3.00079 3.879077,8.1241 l 3.732697,7.68497 -0.951472,1.97613 q -0.951472,1.90294 -1.902943,3.00079 l -0.878282,1.02467 -3.147176,-2.70804 q -3.805887,-3.29355 -8.490056,-5.9284 -1.097852,-0.58552 -1.390613,-0.58552 -0.36595,0 -1.097852,1.53699 -0.07319,0.14638 -0.07319,0.21957 -3.073986,6.36754 -3.147176,7.09945 0.07319,-0.0732 3.732697,-2.48847 l 3.805888,4.31822 q -5.635641,2.34208 -10.685761,6.80668 -0.21957,0.21957 -0.43914,0.36595 -0.219571,0.21957 -0.439141,0.36595 -0.219571,0.14638 -0.365951,0.29276 -0.21957,0.21957 -0.365951,0.36595 -0.21957,0.14638 -0.36595,0.21958 -0.219571,0.14638 -0.292761,0.21957 -0.14638,0.0732 -0.21957,0.14638 -0.146381,0.0732 -0.292761,0.0732 l -0.07319,0.0732 -0.07319,-0.14638 q 0,-3.0008 1.683373,-7.39221 0.07319,-0.21957 0.14638,-0.36595 1.244233,-3.14717 4.025458,-8.70963 1.463803,-3.14717 1.463803,-3.80588 0,-0.51233 -0.658712,-0.80509 l -0.07319,-0.0732 q -7.831344,-3.14718 -13.027844,-3.51313 -0.14638,0 -0.292761,0 -0.21957,-0.0732 -0.36595,-0.0732 -0.219571,0 -0.365951,0 -0.219571,-0.0732 -0.365951,-0.0732 -0.21957,-0.0732 -0.365951,-0.0732 -0.14638,-0.0732 -0.29276,-0.0732 -0.14638,-0.0732 -0.21957,-0.0732 -0.146381,0 -0.219571,-0.0732 v -0.0732 q 0,-0.58552 2.561655,-4.24503 0.07319,-0.0732 0.07319,-0.14638 l 1.317423,-1.75656 2.927605,0.21957 q 2.781225,0.21957 7.684965,1.82975 0.36595,0.14638 0.805091,0.29276 0.439141,0.0732 0.805092,0.21957 0.36595,0.0732 0.658711,0.21957 0.36595,0.0732 0.585521,0.14638 0.29276,0.0732 0.439141,0.0732 z m 15.95545,19.54177 0.951472,-1.17104 q 0.805091,-0.95147 1.829753,-3.0008 l 1.024662,-1.82975 1.463803,1.4638 -0.951472,1.90294 q -0.951471,1.90295 -1.902943,3.0008 l -0.878282,1.09785 z m 11.271281,-23.27446 q -0.439141,-0.36596 -0.951472,-0.8051 -0.439141,-0.51233 -1.024662,-0.95147 -0.512331,-0.43914 -1.097852,-0.87828 -0.512331,-0.51233 -1.024662,-0.95147 -0.512331,-0.43914 -1.024662,-0.87828 -0.439141,-0.43914 -0.878281,-0.7319 -0.365951,-0.36595 -0.658712,-0.58553 -0.29276,-0.21957 -0.512331,-0.36595 l -0.21957,-0.14638 q 0,0.21957 0.951472,3.22037 1.317422,4.31822 1.976133,4.97693 0.805092,0.58552 3.732697,0.87828 1.756564,0.21957 2.268895,0.21957 0.878281,0 0.951471,-0.29276 -0.07319,-0.43914 -2.488464,-2.70803 z M 67.022707,144.02321 q 0,-0.29276 0.14638,-0.80509 0.146381,-0.51233 0.146381,-0.65871 -0.07319,-0.58552 -0.878282,-1.97613 -0.292761,-0.36595 -0.512331,-0.7319 -0.29276,-0.43914 -0.512331,-0.80509 -0.29276,-0.43915 -0.439141,-0.73191 -0.21957,-0.36595 -0.439141,-0.7319 -0.21957,-0.36595 -0.36595,-0.58552 -0.14638,-0.29276 -0.365951,-0.58552 -0.21957,-0.36595 -0.29276,-0.51233 -0.07319,-0.14638 -0.292761,-0.43914 l -0.14638,-0.29276 -0.878282,-1.68338 0.878282,-1.53699 q 0.805091,-1.31742 1.756563,-2.70803 0.14638,-0.14638 0.292761,-0.29276 0.07319,-0.21957 0.21957,-0.29276 0.07319,-0.14638 0.21957,-0.21957 0.07319,-0.14638 0.219571,-0.21958 0.07319,-0.14638 0.14638,-0.14638 0.07319,-0.0732 0.14638,-0.0732 l 0.07319,-0.0732 q 0.512331,0.14638 2.708036,3.80589 2.561654,4.31822 6.074781,7.4654 1.536993,1.31742 3.732697,3.07398 4.098648,3.29356 7.758155,6.87987 4.171838,4.09865 4.464598,5.41607 0.07319,0.21957 0.07319,0.43915 0,2.04932 -2.708035,5.63564 -0.878282,0.95147 -2.781225,1.24423 11.783612,10.02705 15.077168,13.10103 l 2.41527,2.19571 0.65872,-0.95147 q 0.21957,-0.21958 0.65871,-0.8051 0.58552,-0.80509 0.80509,-1.09785 l 0.7319,-0.87828 1.68337,3.43994 q 1.17105,2.26889 4.24503,7.09944 l 2.41528,3.80589 -0.95148,1.75656 q -0.95147,1.68337 -2.04932,3.0008 l -0.95147,1.17104 -7.53859,-6.95306 q -21.664277,-20.0541 -23.933171,-22.24981 0.439141,1.02467 1.463803,3.22037 1.390613,3.00079 1.610183,3.58632 l 0.951472,2.78122 -0.731902,1.53699 q -1.683373,3.36675 -2.781225,3.43994 -1.097852,0 -2.634845,-4.90374 -0.14638,-0.43914 -0.731901,-2.26889 -0.951472,-3.0008 -2.854416,-9.14877 -3.000795,-10.10024 -4.903739,-15.15036 -1.097852,-3.07398 -1.097852,-3.58632 z m 16.760542,-3.43993 q 0.292761,-0.36595 0.512331,-0.58552 0.14638,-0.29276 0.365951,-0.51233 0.14638,-0.21957 0.29276,-0.36595 l 0.07319,-0.0732 q 0.365951,0 2.781226,0.80509 9.295147,2.70803 16.101833,2.85441 0.58552,0 1.09785,0 8.27048,0 14.8576,-1.39061 0.0732,0 1.31742,-0.21957 0.21957,0 0.21957,0.21957 0,0.95147 -2.56165,4.39141 -0.21958,0.29276 -0.36596,0.43914 -1.17104,1.24423 -3.29355,1.68337 -3.58632,0.65871 -9.14877,1.02466 -0.7319,0.0732 -1.53699,0.14638 -0.80509,0 -1.39061,0.0732 l -0.51234,0.0732 q 0.0732,0.29276 2.2689,6.7335 3.80589,10.97852 6.44073,16.54097 0.95147,1.90294 0.95147,2.63484 0,1.39062 -2.78122,4.68417 -0.80509,0.87828 -1.02466,0.95147 -1.24424,0 -10.393004,-26.05569 -0.731901,-2.1957 -1.536993,-4.46459 -0.439141,-1.46381 -0.951472,-1.61019 -0.29276,-0.0732 -0.658711,-0.0732 h -0.14638 q -2.342085,0 -9.880669,-2.1957 -0.21957,0 -0.36595,-0.0732 -3.073986,-0.87828 -3.147176,-1.4638 0.07319,-0.8051 2.415274,-4.17184 z m 48.085921,22.03023 q 0.95147,0 2.63485,-9.58791 0.58552,-3.51312 0.58552,-4.75736 v -0.7319 q -1.02466,-2.48846 -2.19571,-5.41607 -0.65871,-1.90294 -0.65871,-2.34208 0.0732,-1.09786 1.82976,-3.51313 1.61018,-2.26889 2.1957,-2.34208 0.14638,0.0732 0.21957,0.36595 0,0.14638 3.36675,8.34367 0.36595,0.80509 0.58552,1.4638 5.05012,12.80828 11.71042,26.71441 0.14638,0.29276 0.29276,0.58552 l 3.36675,7.02625 -0.65871,1.31742 q -1.09786,2.56166 -3.07399,4.4646 -0.43914,0.43914 -0.58552,0.43914 -0.29276,-0.0732 -2.04933,-1.17104 -6.6603,-4.53779 -16.3214,-6.44073 -3.58631,-0.65871 -6.51392,-0.65871 -7.53858,0.0732 -12.80827,4.3914 -1.09785,0.87829 -1.39062,0.87829 0,-0.14638 -0.0732,-0.14638 0.0732,-0.73191 1.02467,-2.34209 3.51312,-5.9284 10.31981,-8.05091 0.87828,-0.29276 1.68337,-0.43915 2.1957,-0.43914 4.83055,-0.43914 6.51392,0 13.90612,2.41528 0.29276,0.0732 0.73191,0.29276 0.43914,0.14638 0.80509,0.29276 l 0.43914,0.0732 q 0,-0.0732 -8.41687,-19.68815 l -0.29276,1.82976 q -0.29276,0.0732 -0.80509,2.04932 -1.68337,5.9284 -4.75736,9.80748 -0.29276,0.36595 -0.51233,0.58552 -1.17104,1.17104 -2.04932,1.24423 -1.02467,-0.0732 -2.2689,-1.31742 -3.87908,-3.87908 -11.05171,-15.51631 -1.39061,-2.34208 -2.56165,-4.31822 l -2.41528,-3.95227 q -0.43914,-0.7319 -0.43914,-1.02466 l 0.21957,-0.80509 q 0.95147,-1.97613 2.2689,-3.65951 0.95147,-1.24423 1.31742,-1.24423 0.51233,0 3.22036,4.68417 0.0732,0.0732 0.0732,0.14638 6.36755,11.05171 12.14957,18.37073 1.68337,2.04932 2.12251,2.12251 z m 31.32538,14.63803 q 0.65871,0 2.9276,-0.36595 2.92761,-0.51233 4.02546,-0.51233 1.46381,-0.0732 1.537,-0.58553 -0.14638,-0.65871 -1.75657,-2.12251 -3.6595,-3.14718 -5.9284,-4.4646 -1.24423,-0.7319 -1.68337,-0.80509 l -0.0732,0.0732 q 0.0732,0.21957 0.95147,2.85442 l 0.95147,2.78122 -0.7319,1.53699 q -0.14638,0.36595 -0.36595,0.73191 -0.21957,0.36595 -0.36595,0.58552 l -0.0732,0.21957 q 0.14638,0 0.58552,0.0732 z m 0.65871,-21.88385 q -0.43914,-0.43914 -1.02466,-0.87829 -0.51233,-0.51233 -1.09785,-1.02466 -0.51233,-0.51233 -1.09786,-0.95147 -0.51233,-0.51233 -1.09785,-0.95147 -0.51233,-0.51233 -1.02466,-0.87828 -0.43914,-0.43914 -0.87828,-0.7319 -0.43914,-0.36595 -0.7319,-0.58553 -0.29276,-0.29276 -0.51233,-0.43914 l -0.21957,-0.14638 q 0,0.14638 0.87828,2.70804 1.53699,4.83055 2.56165,5.70883 1.46381,0.87828 5.12331,0.87828 h 0.21957 q 1.09785,0 1.17104,-0.29276 -0.0732,-0.36595 -2.26889,-2.41527 z m -15.44312,-11.34448 q 0,-0.29276 0.14638,-0.80509 0.14638,-0.51233 0.14638,-0.65871 -0.0732,-0.58552 -0.87828,-1.97613 -0.29276,-0.36595 -0.51233,-0.7319 -0.29276,-0.43914 -0.51233,-0.80509 -0.29276,-0.43915 -0.43914,-0.73191 -0.21957,-0.36595 -0.43914,-0.7319 -0.21957,-0.36595 -0.36595,-0.58552 -0.14638,-0.29276 -0.36595,-0.58552 -0.21957,-0.36595 -0.29277,-0.51233 -0.0732,-0.14638 -0.21957,-0.43914 l -0.21957,-0.29276 -0.95147,-1.68338 0.95147,-1.53699 q 0.14638,-0.21957 0.43914,-0.80509 1.82976,-3.22037 2.41528,-3.22037 0.65871,0.0732 2.56165,3.29356 2.85442,4.83055 6.22117,7.83135 1.31742,1.17104 3.22036,2.70803 7.53859,6.07478 9.73429,8.41687 3.14718,3.36674 3.22037,5.34288 0,2.12251 -2.92761,5.48926 -0.21957,0.29276 -0.43914,0.58552 -0.21957,0.21957 -0.36595,0.43914 -0.14638,0.21957 -0.29276,0.43914 -0.0732,0.14638 -0.14638,0.21957 l -0.0732,0.14638 q 0.0732,0.0732 2.26889,1.61018 5.26969,3.7327 7.53859,7.4654 0.7319,1.24423 0.7319,1.97613 0,1.82975 -2.78123,5.48926 -0.87828,1.09785 -1.61018,1.82975 -0.80509,0.73191 -3.07399,0.95148 -0.65871,0 -1.4638,0.0732 -10.97852,0.80509 -15.51631,3.07398 -3.36674,1.75657 -6.51392,6.36754 -0.7319,1.09786 -0.95147,1.39062 l -1.02466,1.31742 v -1.09785 q 0.0732,-1.02466 1.4638,-4.02546 2.63484,-5.34288 8.9292,-9.22196 1.24423,-0.80509 3.14717,-1.90294 0,-0.0732 -1.68337,-5.48926 -2.19571,-6.87987 -3.14718,-8.05092 -0.36595,-0.43914 -0.7319,-0.7319 -0.58552,-0.51233 -0.65871,-0.80509 0,-0.21957 0.29276,-0.87828 0.43914,-0.95147 0.43914,-1.31742 0,-0.58552 -0.7319,-2.70804 -1.09785,-3.80589 -3.51313,-10.61257 -1.02466,-2.70803 -1.02466,-3.51313 z m 44.06046,18.5903 q 0.95148,0 2.63485,-9.58791 0.58552,-3.51312 0.58552,-4.75736 v -0.7319 q -1.02466,-2.48846 -2.1957,-5.41607 -0.65872,-1.90294 -0.65872,-2.34208 0.0732,-1.09786 1.82976,-3.51313 1.61018,-2.26889 2.1957,-2.34208 0.14638,0.0732 0.21957,0.36595 0,0.14638 3.36675,8.34367 0.36595,0.80509 0.58552,1.4638 5.05012,12.80828 11.71042,26.71441 0.14638,0.29276 0.29276,0.58552 l 3.36675,7.02625 -0.65871,1.31742 q -1.09785,2.56166 -3.07399,4.4646 -0.43914,0.43914 -0.58552,0.43914 -0.29276,-0.0732 -2.04932,-1.17104 -6.66031,-4.53779 -16.3214,-6.44073 -3.58632,-0.65871 -6.51393,-0.65871 -7.53858,0.0732 -12.80827,4.3914 -1.09785,0.87829 -1.39061,0.87829 0,-0.14638 -0.0732,-0.14638 0.0732,-0.73191 1.02466,-2.34209 3.51313,-5.9284 10.31981,-8.05091 0.87828,-0.29276 1.68337,-0.43915 2.19571,-0.43914 4.83055,-0.43914 6.51392,0 13.90613,2.41528 0.29276,0.0732 0.7319,0.29276 0.43914,0.14638 0.80509,0.29276 l 0.43914,0.0732 q 0,-0.0732 -8.41686,-19.68815 l -0.29277,1.82976 q -0.29276,0.0732 -0.80509,2.04932 -1.68337,5.9284 -4.75736,9.80748 -0.29276,0.36595 -0.51233,0.58552 -1.17104,1.17104 -2.04932,1.24423 -1.02466,-0.0732 -2.2689,-1.31742 -3.87907,-3.87908 -11.05171,-15.51631 -1.39061,-2.34208 -2.56165,-4.31822 l -2.41528,-3.95227 q -0.43914,-0.7319 -0.43914,-1.02466 l 0.21957,-0.80509 q 0.95148,-1.97613 2.2689,-3.65951 0.95147,-1.24423 1.31742,-1.24423 0.51233,0 3.22037,4.68417 0.0732,0.0732 0.0732,0.14638 6.36754,11.05171 12.14956,18.37073 1.68337,2.04932 2.12251,2.12251 z"
         id="path2" /></g><path
       d="m 53.998621,148.46094 q -0.09975,-0.69825 -1.496236,-3.79047 l -1.695733,-3.69071 -0.698243,2.09473 q -0.598494,1.79548 -0.598494,2.59347 0,1.19699 2.194478,2.09473 0.199498,0.0998 0.398996,0.1995 0.797992,0.29925 1.296737,0.49875 0.598495,0.0998 0.598495,0 z m -8.777914,-3.89022 q 0.797992,0 2.294227,-8.17941 0.299247,-1.79549 0.299247,-2.39398 0,-2.29423 -2.194478,-6.58344 -0.09975,-0.19949 -0.199498,-0.29924 -0.398996,-0.69825 -0.398996,-1.19699 0,-0.69825 0.598494,-1.79548 1.196988,-2.09473 3.092219,-4.58846 1.09724,-1.19699 1.795483,-1.19699 0.797992,0.1995 1.296737,1.49624 0.299247,0.99749 0.897741,0.69824 0.299247,-0.1995 0.498745,-0.1995 0.897742,0.1995 0.897742,2.59348 0,4.78795 5.286698,16.45859 1.895231,4.08971 5.286698,11.07214 l 5.0872,10.47364 -1.296737,2.69323 q -1.296738,2.59347 -2.593475,4.08971 l -1.196988,1.39648 -4.289208,-3.69071 q -5.186949,-4.48871 -11.570887,-8.07967 -1.496235,-0.79799 -1.895231,-0.79799 -0.498745,0 -1.496235,2.09473 -0.09975,0.19949 -0.09975,0.29924 -4.189459,8.67817 -4.289208,9.67566 0.09975,-0.0998 5.0872,-3.39147 l 5.186949,5.88519 q -7.680675,3.19197 -14.563357,9.27666 -0.299247,0.29925 -0.598494,0.49875 -0.299247,0.29925 -0.598494,0.49874 -0.299247,0.1995 -0.498745,0.399 -0.299248,0.29925 -0.498746,0.49874 -0.299247,0.1995 -0.498745,0.29925 -0.299247,0.1995 -0.398996,0.29925 -0.199498,0.0998 -0.299247,0.1995 -0.199498,0.0998 -0.398996,0.0998 l -0.09975,0.0998 -0.09975,-0.1995 q 0,-4.08971 2.294228,-10.07465 0.09975,-0.29925 0.199498,-0.49875 1.695733,-4.28921 5.486196,-11.87013 1.99498,-4.28921 1.99498,-5.18695 0,-0.69824 -0.897741,-1.09724 l -0.09975,-0.0998 q -10.673145,-4.28921 -17.755326,-4.78795 -0.199498,0 -0.398996,0 -0.299247,-0.0998 -0.498745,-0.0998 -0.299247,0 -0.498745,0 -0.299247,-0.0998 -0.498745,-0.0998 -0.299247,-0.0998 -0.498745,-0.0998 -0.199498,-0.0998 -0.398996,-0.0998 -0.199498,-0.0998 -0.299247,-0.0998 -0.199499,0 -0.299248,-0.0998 v -0.0998 q 0,-0.79799 3.491216,-5.78544 0.09975,-0.0998 0.09975,-0.1995 l 1.795483,-2.39397 3.98996,0.29924 q 3.790463,0.29925 10.473648,2.49373 0.498745,0.1995 1.097239,0.39899 0.598494,0.0998 1.097239,0.29925 0.498745,0.0998 0.897741,0.29925 0.498745,0.0998 0.797992,0.1995 0.398997,0.0998 0.598495,0.0998 z m 21.745286,26.63299 1.296738,-1.59598 q 1.097239,-1.29674 2.493725,-4.08971 l 1.396486,-2.49373 1.994981,1.99498 -1.296737,2.59348 q -1.296738,2.59347 -2.593475,4.08971 l -1.196988,1.49623 z m 15.36135,-31.72019 q -0.598494,-0.49874 -1.296738,-1.09723 -0.598494,-0.69825 -1.396486,-1.29674 -0.698243,-0.5985 -1.496235,-1.19699 -0.698243,-0.69824 -1.396487,-1.29674 -0.698243,-0.59849 -1.396486,-1.19699 -0.598494,-0.59849 -1.196988,-0.99749 -0.498745,-0.49874 -0.897741,-0.79799 -0.398996,-0.29924 -0.698243,-0.49874 l -0.299247,-0.1995 q 0,0.29925 1.296737,4.38896 1.795482,5.88519 2.693223,6.78293 1.09724,0.79799 5.0872,1.19699 2.393977,0.29924 3.09222,0.29924 1.196988,0 1.296737,-0.39899 -0.09975,-0.5985 -3.391466,-3.69072 z m -3.291718,36.50815 1.296737,-1.59599 q 1.097239,-1.29674 2.493726,-4.08971 l 1.396486,-2.49372 1.097239,3.19197 -1.296737,2.49372 q -1.296737,2.59348 -2.593475,4.08971 l -1.196988,1.49624 z M 61.579546,124.42142 q 0,-0.39899 0.199498,-1.09724 0.199498,-0.69824 0.199498,-0.89774 -0.09975,-0.79799 -1.196988,-2.69322 -0.398996,-0.49875 -0.698243,-0.99749 -0.398996,-0.5985 -0.698243,-1.09724 -0.398996,-0.59849 -0.598494,-0.99749 -0.299247,-0.49875 -0.598494,-0.99749 -0.299248,-0.49875 -0.498746,-0.79799 -0.199498,-0.399 -0.498745,-0.798 -0.299247,-0.49874 -0.398996,-0.69824 -0.09975,-0.1995 -0.398996,-0.59849 l -0.199498,-0.399 -1.196988,-2.29423 1.196988,-2.09473 q 1.097239,-1.79548 2.393977,-3.69071 0.199498,-0.1995 0.398996,-0.399 0.09975,-0.29924 0.299247,-0.39899 0.09975,-0.1995 0.299247,-0.29925 0.09975,-0.1995 0.299247,-0.29925 0.09975,-0.19949 0.199498,-0.19949 0.09975,-0.0998 0.199498,-0.0998 l 0.09975,-0.0998 q 0.698243,0.1995 3.690714,5.18695 3.491216,5.88519 8.279169,10.1744 2.094729,1.79548 5.0872,4.18946 5.585945,4.4887 10.573396,9.3764 5.685694,5.58595 6.08469,7.38143 0.09975,0.29925 0.09975,0.5985 0,2.79297 -3.690714,7.68067 -1.196988,1.29674 -3.790462,1.69573 16.05959,13.66562 20.5483,17.85508 l 3.29172,2.99247 0.89774,-1.29674 q 0.29924,-0.29925 0.89774,-1.09724 0.79799,-1.09724 1.09724,-1.49623 l 0.99749,-1.19699 2.29423,4.6882 q 1.59598,3.09222 5.78544,9.67566 l 3.29172,5.18695 -1.29674,2.39397 q -1.29674,2.29423 -2.79297,4.08971 l -1.29674,1.59599 -10.27415,-9.47616 q -29.525711,-27.33123 -32.61793,-30.3237 0.598494,1.39648 1.99498,4.38896 1.895231,4.08971 2.194479,4.8877 l 1.296737,3.79046 -0.99749,2.09473 q -2.294228,4.58845 -3.790463,4.6882 -1.496236,0 -3.590965,-6.68318 -0.199498,-0.59849 -0.99749,-3.09222 -1.296737,-4.08971 -3.890212,-12.46863 -4.08971,-13.76536 -6.683184,-20.64805 -1.496236,-4.18945 -1.496236,-4.8877 z m 22.942273,-4.6882 q 0.398996,-0.49875 0.698243,-0.79799 0.199498,-0.399 0.498745,-0.69825 0.199498,-0.29924 0.398996,-0.49874 l 0.09975,-0.0998 q 0.498745,0 3.790463,1.09724 12.668125,3.69071 21.944785,3.89021 0.79799,0 1.49623,0 11.27164,0 20.24906,-1.89523 0.0998,0 1.79548,-0.29925 0.29925,0 0.29925,0.29925 0,1.29674 -3.49122,5.98494 -0.29925,0.399 -0.49875,0.59849 -1.59598,1.69574 -4.4887,2.29423 -4.8877,0.89774 -12.46863,1.39649 -0.99749,0.0998 -2.09473,0.1995 -1.09724,0 -1.89523,0.0998 l -0.69824,0.0997 q 0.0998,0.399 3.09222,9.17691 5.18695,14.96236 8.77791,22.54328 1.29674,2.59348 1.29674,3.59097 0,1.89523 -3.79047,6.38393 -1.09723,1.19699 -1.39648,1.29674 -1.69573,0 -14.16436,-35.51065 -0.99749,-2.99247 -2.09473,-6.08469 -0.5985,-1.99498 -1.29674,-2.19448 -0.399,-0.0998 -0.89774,-0.0998 h -0.199498 q -3.191969,0 -13.466118,-2.99247 -0.299247,0 -0.498745,-0.0998 -4.189459,-1.19699 -4.289208,-1.99498 0.09975,-1.09724 3.291718,-5.68569 z m 34.612911,58.55267 1.19699,-1.49623 q 1.29673,-1.49624 2.59347,-4.08971 l 1.29674,-2.59348 1.19699,3.19197 -1.39649,2.59348 q -1.39649,2.89272 -2.49372,4.08971 l -1.29674,1.49623 z m 0,-75.51001 q -3.39147,-0.79799 -6.18444,-1.59598 -0.79799,-0.1995 -1.19699,-0.1995 -0.89774,0 -3.19197,2.39398 -0.1995,0.29925 -0.29924,0.399 l -2.09473,2.19447 -9.376412,0.399 q -18.254071,0.89774 -18.453569,1.69573 0,0.89774 14.663106,2.39398 5.984942,0.69824 9.974905,0.79799 0.0998,0 0.69824,0 3.98996,0.0998 7.28168,0.0998 10.47365,0 18.95231,-0.79799 9.87516,-1.09724 10.07465,-1.69573 0,-0.798 -13.76536,-4.38896 -4.08971,-1.09724 -7.08218,-1.69574 z M 99.68367,93.10023 q 11.17189,0.797992 29.72521,5.186949 3.98996,0.897741 6.58343,1.695733 8.57842,2.593478 10.67315,4.588458 0.49874,0.69824 0.49874,1.39648 -0.0998,1.29674 -2.19447,3.69072 -2.79298,3.29172 -6.18444,4.38895 -0.29925,0 -0.49875,0.0998 -9.57591,2.49373 -28.92722,2.89273 -1.69573,0 -3.29171,0 -19.949807,0 -31.321196,-2.79298 -3.391466,-0.79799 -4.388956,-1.69573 -0.299248,-0.49875 -0.398997,-0.79799 0.09975,-0.89774 1.595985,-2.99247 3.092219,-3.89022 6.583435,-5.18695 4.987451,-1.79549 25.236499,-2.99247 l 0.0998,-0.0998 h 0.0998 0.0998 0.0998 0.0998 0.0998 0.0998 0.0998 l 2.49372,-0.0998 -5.88519,-0.897743 q -7.28168,-1.097239 -16.558339,-1.097239 -11.17189,0 -16.558337,1.695732 -1.196988,0.29925 -1.196988,0 0.09975,-0.997489 3.590964,-4.289207 0.797993,-0.698243 1.296738,-0.99749 3.291717,-2.094729 17.655576,-2.094729 6.683185,0 10.673146,0.398996 z m 50.27351,56.65744 q 1.29674,0 3.59096,-13.06712 0.798,-4.78795 0.798,-6.48368 v -0.99749 q -1.39649,-3.39147 -2.99247,-7.38143 -0.89775,-2.59348 -0.89775,-3.19197 0.0998,-1.49624 2.49373,-4.78795 2.19448,-3.09222 2.99247,-3.19197 0.1995,0.0998 0.29925,0.49874 0,0.1995 4.58845,11.37139 0.49875,1.09724 0.79799,1.99498 6.88269,17.45608 15.95985,36.40839 0.1995,0.399 0.39899,0.798 l 4.58846,9.5759 -0.89774,1.79548 q -1.49624,3.49122 -4.18946,6.0847 -0.5985,0.59849 -0.79799,0.59849 -0.399,-0.0998 -2.79298,-1.59598 -9.07716,-6.18444 -22.24403,-8.77792 -4.8877,-0.89774 -8.87766,-0.89774 -10.27415,0.0998 -17.45608,5.98494 -1.49623,1.19699 -1.89523,1.19699 0,-0.1995 -0.0998,-0.1995 0.0998,-0.99749 1.39649,-3.19197 4.78795,-8.07967 14.06461,-10.97239 1.19699,-0.399 2.29423,-0.59849 2.99247,-0.5985 6.58343,-0.5985 8.87766,0 18.95232,3.29172 0.39899,0.0998 0.99749,0.399 0.59849,0.19949 1.09723,0.39899 l 0.5985,0.0998 q 0,-0.0998 -11.47114,-26.83249 l -0.39899,2.49373 q -0.399,0.0998 -1.09724,2.79297 -2.29423,8.07967 -6.48369,13.36637 -0.399,0.49875 -0.69824,0.79799 -1.59599,1.59599 -2.79298,1.69574 -1.39648,-0.0998 -3.09222,-1.79549 -5.28669,-5.28669 -15.0621,-21.14679 -1.89523,-3.19197 -3.49121,-5.88519 l -3.29172,-5.38645 q -0.5985,-0.99749 -0.5985,-1.39648 l 0.29925,-1.09724 q 1.29674,-2.69323 3.09222,-4.98745 1.29674,-1.69574 1.79548,-1.69574 0.69825,0 4.38896,6.38394 0.0998,0.0998 0.0998,0.1995 8.67816,15.0621 16.55834,25.037 2.29422,2.79297 2.89272,2.89272 z m 4.18946,-41.49559 -1.19699,1.49624 q -1.29674,1.49623 -2.59348,4.08971 l -1.29673,2.59347 -1.19699,-3.19197 1.39649,-2.69322 q 1.39648,-2.89272 2.49372,-4.08971 l 1.29674,-1.39649 z m 39.60036,50.47301 q -1.69574,-0.99749 -2.29423,-1.09724 l -0.0998,0.0998 q 0.0998,0.29924 1.29674,3.89021 l 1.29673,3.79046 -0.99749,2.09473 q -0.19949,0.49874 -0.49874,0.99749 -0.29925,0.49875 -0.49875,0.79799 l -0.0998,0.29925 q 0.0998,0 0.399,0.0998 0.49875,0 2.79297,-0.399 3.69072,-0.79799 6.78294,-0.79799 2.29422,-0.0998 2.39397,-0.79799 -0.1995,-0.89774 -2.39397,-2.89272 -4.98745,-4.28921 -8.07967,-6.08469 z m -0.49875,-19.25157 q -0.59849,-0.49874 -1.29674,-1.09723 -0.69824,-0.69825 -1.39648,-1.29674 -0.69825,-0.5985 -1.49624,-1.19699 -0.69824,-0.69824 -1.39648,-1.29674 -0.69825,-0.59849 -1.39649,-1.19699 -0.5985,-0.59849 -1.19699,-0.99749 -0.59849,-0.49874 -0.99749,-0.79799 -0.399,-0.29924 -0.69824,-0.49874 l -0.29925,-0.1995 q 0,0.0998 1.39649,4.38896 1.79548,5.88519 2.69322,6.78293 1.09724,0.79799 5.0872,1.19699 2.39398,0.29924 2.99247,0.29924 1.29674,0 1.39649,-0.39899 -0.0998,-0.5985 -3.39147,-3.69072 z m -20.7478,-15.0621 q 0,-0.39899 0.1995,-1.09724 0.1995,-0.69824 0.1995,-0.89774 -0.0998,-0.79799 -1.19699,-2.69322 -0.39899,-0.49875 -0.69824,-0.99749 -0.399,-0.5985 -0.69824,-1.09724 -0.399,-0.59849 -0.5985,-0.99749 -0.29925,-0.49875 -0.59849,-0.99749 -0.29925,-0.49875 -0.49875,-0.79799 -0.1995,-0.399 -0.49874,-0.798 -0.29925,-0.49874 -0.399,-0.69824 -0.0998,-0.1995 -0.29925,-0.59849 l -0.29924,-0.399 -1.29674,-2.29423 1.29674,-2.09473 q 1.69573,-2.79297 2.69322,-3.98996 1.09724,-1.49623 1.59598,-1.49623 0.49875,0.0998 3.09222,4.4887 3.79047,6.38394 8.57842,10.5734 2.09473,1.89523 5.2867,4.48871 5.48619,4.4887 10.27415,9.07716 5.68569,5.58594 6.28419,7.58092 0.0997,0.5985 0.0997,0.99749 -0.0997,1.39649 -1.19698,3.39147 -1.29674,2.49373 -3.29172,5.0872 -0.1995,0.1995 -0.49875,0.59849 -0.19949,0.29925 -0.39899,0.5985 -0.1995,0.29924 -0.29925,0.49874 l -0.0998,0.1995 q 0.0998,0.0998 3.09222,2.19448 7.18193,5.0872 10.27415,10.1744 0.99749,1.69573 0.99749,2.69322 0,2.49373 -3.79046,7.48118 -1.19699,1.49624 -2.19448,2.49373 -1.09724,0.99749 -4.18946,1.29673 -0.89774,0 -1.99498,0.0998 -14.36386,1.09724 -22.24403,4.68821 -0.79799,0.39899 -1.49624,0.69824 -2.39397,1.19699 -3.49121,2.89272 -0.399,0.69824 -0.89774,1.49624 -1.69574,2.99247 -3.19197,4.98745 l -1.39649,1.79548 v -1.49624 q 0.0998,-1.29673 1.99498,-5.58594 4.68821,-8.97741 13.26662,-13.26662 l 3.19197,-1.79548 q 0,-0.0998 -2.29423,-7.48118 -2.99247,-9.37641 -4.28921,-10.97239 -0.49874,-0.5985 -0.99749,-0.99749 -0.79799,-0.69825 -0.89774,-1.09724 0,-0.29925 0.399,-1.19699 0.59849,-1.39649 0.59849,-1.99498 -0.0998,-0.79799 -0.99749,-3.89021 -0.89774,1.79548 -2.39397,3.79046 l -1.29674,1.49624 -1.99498,-1.99498 0.399,-0.29925 q 0,-0.0998 3.39146,-5.2867 l 0.69824,-1.49624 q -0.39899,-1.39648 -3.59096,-10.27414 -1.39649,-3.69072 -1.39649,-4.78796 z m -3.89021,17.85508 1.19699,-1.59599 q 1.39649,-1.59598 2.59347,-3.98996 l 1.29674,-2.59347 2.09473,1.99498 -1.39648,2.59347 q -1.39649,2.89272 -2.49373,4.08971 l -1.29674,1.49624 z m 63.93912,7.48117 q 1.29674,0 3.59097,-13.06712 0.79799,-4.78795 0.79799,-6.48368 v -0.99749 q -1.39648,-3.39147 -2.99247,-7.38143 -0.89774,-2.59348 -0.89774,-3.19197 0.0998,-1.49624 2.49373,-4.78795 2.19447,-3.09222 2.99247,-3.19197 0.19949,0.0998 0.29924,0.49874 0,0.1995 4.58846,11.37139 0.49874,1.09724 0.79799,1.99498 6.88268,17.45608 15.95984,36.40839 0.1995,0.399 0.399,0.798 l 4.58845,9.5759 -0.89774,1.79548 q -1.49623,3.49122 -4.18946,6.0847 -0.59849,0.59849 -0.79799,0.59849 -0.39899,-0.0998 -2.79297,-1.59598 -9.07716,-6.18444 -22.24403,-8.77792 -4.8877,-0.89774 -8.87766,-0.89774 -10.27415,0.0998 -17.45608,5.98494 -1.49624,1.19699 -1.89523,1.19699 0,-0.1995 -0.0998,-0.1995 0.0998,-0.99749 1.39648,-3.19197 4.78796,-8.07967 14.06461,-10.97239 1.19699,-0.399 2.29423,-0.59849 2.99247,-0.5985 6.58344,-0.5985 8.87766,0 18.95231,3.29172 0.399,0.0998 0.99749,0.399 0.5985,0.19949 1.09724,0.39899 l 0.59849,0.0998 q 0,-0.0998 -11.47113,-26.83249 l -0.399,2.49373 q -0.39899,0.0998 -1.09724,2.79297 -2.29423,8.07967 -6.48368,13.36637 -0.399,0.49875 -0.69825,0.79799 -1.59598,1.59599 -2.79297,1.69574 -1.39649,-0.0998 -3.09222,-1.79549 -5.2867,-5.28669 -15.0621,-21.14679 -1.89523,-3.19197 -3.49122,-5.88519 l -3.29172,-5.38645 q -0.59849,-0.99749 -0.59849,-1.39648 l 0.29925,-1.09724 q 1.29673,-2.69323 3.09222,-4.98745 1.29673,-1.69574 1.79548,-1.69574 0.69824,0 4.38896,6.38394 0.0998,0.0998 0.0998,0.1995 8.67816,15.0621 16.55833,25.037 2.29423,2.79297 2.89272,2.89272 z m 4.18946,-41.49559 -1.19698,1.49624 q -1.29674,1.49623 -2.59348,4.08971 l -1.29674,2.59347 -1.19698,-3.19197 1.39648,-2.69322 q 1.39649,-2.89272 2.49373,-4.08971 l 1.29673,-1.39649 z"
       id="text1"
       style="-inkscape-font-specification:'a Another Tag, Normal';stroke-width:4.22615;stroke-linecap:round;stroke-linejoin:bevel;fill:#cbdaed;fill-opacity:1;filter:url(#filter2)"
       aria-label="ARTYBY" /></g></svg>
