<?xml version="1.0" encoding="UTF-8" standalone="no"?>
<svg
   viewBox="0 0 14 14"
   version="1.1"
   id="svg1"
   sodipodi:docname="webDeveloping.svg"
   inkscape:version="1.3.2 (091e20e, 2023-11-25, custom)"
   xmlns:inkscape="http://www.inkscape.org/namespaces/inkscape"
   xmlns:sodipodi="http://sodipodi.sourceforge.net/DTD/sodipodi-0.dtd"
   xmlns="http://www.w3.org/2000/svg"
   xmlns:svg="http://www.w3.org/2000/svg">
  <defs
     id="defs1" />
  <sodipodi:namedview
     id="namedview1"
     pagecolor="#ffffff"
     bordercolor="#000000"
     borderopacity="0.25"
     inkscape:showpageshadow="2"
     inkscape:pageopacity="0.0"
     inkscape:pagecheckerboard="0"
     inkscape:deskcolor="#d1d1d1"
     inkscape:zoom="72"
     inkscape:cx="8.75"
     inkscape:cy="3.2222222"
     inkscape:window-width="1366"
     inkscape:window-height="745"
     inkscape:window-x="-8"
     inkscape:window-y="-8"
     inkscape:window-maximized="1"
     inkscape:current-layer="svg1" />
  <g
     fill="none"
     stroke="#0284c7"
     stroke-linecap="round"
     stroke-linejoin="round"
     id="g1"
     transform="matrix(0.90873016,0,0,0.90873016,0.63888888,1.1111111)">
    <path
       d="m 1.5,13.5 a 1,1 0 0 1 -1,-1 v -11 a 1,1 0 0 1 1,-1 h 11 a 1,1 0 0 1 1,1 v 11 a 1,1 0 0 1 -1,1 m -12,-10 h 13 M 7,6.5 V 8 M 3.97,8.25 5.27,9 M 3.97,11.75 5.27,11 M 7,13.5 V 12 M 10.03,11.75 8.73,11 M 10.03,8.25 8.73,9"
       id="path1" />
    <circle
       cx="7"
       cy="10"
       r="2"
       id="circle1" />
  </g>
</svg>
