<?xml version="1.0" encoding="UTF-8" standalone="no"?>
<svg
   width="258"
   height="258"
   viewBox="0 0 48 48"
   version="1.1"
   id="svg2"
   sodipodi:docname="webStyling.svg"
   inkscape:version="1.3.2 (091e20e, 2023-11-25, custom)"
   xmlns:inkscape="http://www.inkscape.org/namespaces/inkscape"
   xmlns:sodipodi="http://sodipodi.sourceforge.net/DTD/sodipodi-0.dtd"
   xmlns:xlink="http://www.w3.org/1999/xlink"
   xmlns="http://www.w3.org/2000/svg"
   xmlns:svg="http://www.w3.org/2000/svg">
  <defs
     id="defs2">
    <clipPath
       clipPathUnits="userSpaceOnUse"
       id="clipPath23">
      <rect
         style="fill:#ff0000;stroke:none;stroke-width:3;stroke-linecap:square;stroke-linejoin:miter;paint-order:stroke markers fill;stop-color:#000000"
         id="rect23"
         width="78"
         height="45.033199"
         x="763.61322"
         y="452.82422" />
    </clipPath>
    <inkscape:path-effect
       effect="spiro"
       id="path-effect19"
       is_visible="true"
       lpeversion="1" />
    <inkscape:path-effect
       effect="spiro"
       id="path-effect18"
       is_visible="true"
       lpeversion="1" />
    <pattern
       inkscape:collect="always"
       xlink:href="#pattern6-7"
       preserveAspectRatio="xMidYMid"
       id="pattern18"
       patternTransform="matrix(0.6,0,0,0.6,190,350)"
       x="0"
       y="0" />
    <pattern
       patternUnits="userSpaceOnUse"
       width="29"
       height="20"
       patternTransform="translate(190,350)"
       preserveAspectRatio="xMidYMid"
       style="fill:#000000"
       id="pattern6-7"
       inkscape:label="Abstracto 1"
       inkscape:collect="always"
       inkscape:isstock="true">
      <path
         style="fill:none;stroke:#000000;stroke-width:10;stroke-linecap:butt;stroke-dasharray:none;paint-order:stroke markers fill;stop-color:#000000"
         d="M 0,5 C 19,5 10,15 29,15"
         id="path4-2"
         sodipodi:nodetypes="cc" />
    </pattern>
    <clipPath
       clipPathUnits="userSpaceOnUse"
       id="clipPath25">
      <rect
         style="fill:#ff0000;stroke:none;stroke-width:3;stroke-linecap:square;stroke-linejoin:miter;paint-order:stroke markers fill;stop-color:#000000"
         id="rect25-8"
         width="78"
         height="45.033199"
         x="763.61322"
         y="452.82422" />
    </clipPath>
    <clipPath
       clipPathUnits="userSpaceOnUse"
       id="clipPath33">
      <rect
         style="fill:#000000;stroke:none;stroke-width:0.999995;stroke-linecap:butt;stroke-linejoin:bevel;paint-order:stroke markers fill;stop-color:#000000"
         id="rect33"
         width="46.19186"
         height="80.006783"
         x="74.999985"
         y="399.99661" />
    </clipPath>
    <linearGradient
       id="linearGradient8"
       inkscape:collect="always">
      <stop
         style="stop-color:#fdd900;stop-opacity:0.99215698;"
         offset="0"
         id="stop8" />
      <stop
         style="stop-color:#fd0000;stop-opacity:1;"
         offset="1"
         id="stop9" />
    </linearGradient>
    <linearGradient
       id="linearGradient6"
       inkscape:collect="always">
      <stop
         style="stop-color:#fdff00;stop-opacity:0.99215698;"
         offset="0"
         id="stop6" />
      <stop
         style="stop-color:#fdff00;stop-opacity:0;"
         offset="1"
         id="stop7" />
    </linearGradient>
    <linearGradient
       id="linearGradient4"
       inkscape:collect="always">
      <stop
         style="stop-color:#ffffff;stop-opacity:0.91475409;"
         offset="0"
         id="stop4" />
      <stop
         style="stop-color:#ffffff;stop-opacity:0;"
         offset="1"
         id="stop5" />
    </linearGradient>
    <linearGradient
       inkscape:collect="always"
       xlink:href="#linearGradient4"
       id="linearGradient5"
       x1="256.11227"
       y1="215.55591"
       x2="279.96857"
       y2="200.48422"
       gradientUnits="userSpaceOnUse" />
    <linearGradient
       inkscape:collect="always"
       xlink:href="#linearGradient6"
       id="linearGradient7"
       x1="256.11227"
       y1="215.55591"
       x2="281.1725"
       y2="201.26948"
       gradientUnits="userSpaceOnUse" />
    <linearGradient
       inkscape:collect="always"
       xlink:href="#linearGradient8"
       id="linearGradient9"
       x1="214.93884"
       y1="178.29848"
       x2="232.54584"
       y2="151.79262"
       gradientUnits="userSpaceOnUse" />
  </defs>
  <sodipodi:namedview
     id="namedview2"
     pagecolor="#ffffff"
     bordercolor="#000000"
     borderopacity="0.25"
     inkscape:showpageshadow="2"
     inkscape:pageopacity="0.0"
     inkscape:pagecheckerboard="0"
     inkscape:deskcolor="#d1d1d1"
     inkscape:zoom="0.97674419"
     inkscape:cx="-51.190476"
     inkscape:cy="6.1428571"
     inkscape:window-width="1366"
     inkscape:window-height="745"
     inkscape:window-x="-8"
     inkscape:window-y="-8"
     inkscape:window-maximized="1"
     inkscape:current-layer="svg2" />
  <circle
     cx="20.663"
     cy="20.439"
     r="15.439"
     fill="none"
     stroke="#0284c7"
     stroke-linecap="round"
     stroke-linejoin="round"
     id="circle1" />
  <ellipse
     cx="20.663"
     cy="20.439"
     fill="none"
     stroke="#0284c7"
     stroke-linecap="round"
     stroke-linejoin="round"
     rx="6.433"
     ry="15.021"
     id="ellipse1" />
  <path
     fill="none"
     stroke="#0284c7"
     stroke-linecap="round"
     stroke-linejoin="round"
     d="m 29.231847,10.082102 a 3.8168913,3.5625666 0 0 1 5.363595,-4.5155861 v 0 L 37.946361,1.942145 a 1.4364726,1.3407585 0 0 1 2.030661,1.8968801 l -3.883109,3.1268796 v 0 A 3.8168913,3.5625666 0 0 1 31.256786,11.972116 L 33.764865,9.6372572 33.424787,8.0585569 31.734204,7.7411389 Z"
     id="path2"
     style="fill:#0b0019;fill-opacity:0.992157;stroke:#0284c7;stroke-width:0.789792;stroke-opacity:1" />
  <path
     fill="none"
     stroke="#0284c7"
     stroke-linecap="round"
     stroke-linejoin="round"
     d="M6.109 15.292h29.107M6.109 25.585h29.107"
     id="path1" />
  <g
     id="g19"
     transform="matrix(1.1008165,0,0,1.1008165,-15.041751,-8.7628584)">
    <path
       style="display:inline;fill:#fd9e00;fill-opacity:0.992157;stroke:#ffffff;stroke-width:1.94977;stroke-linecap:square;stroke-miterlimit:2.9;stroke-dashoffset:2.3079;stroke-opacity:0;paint-order:markers stroke fill"
       d="m 38.98512,40.161458 c -0.01531,-0.0074 -0.0269,-0.02208 -0.03051,-0.03869 -0.0025,-0.0114 -0.0013,-0.02359 0.0035,-0.03425 0.0048,-0.01066 0.01306,-0.01972 0.02332,-0.02527 0.01058,-0.0057 0.02297,-0.0077 0.03497,-0.0067 0.01243,0.001 0.02448,0.005 0.03572,0.01042 0.0092,0.0044 0.0182,0.01008 0.02381,0.0186 0.0018,0.0027 0.0032,0.0057 0.0052,0.0082 0.0014,0.0018 0.0031,0.0034 0.0045,0.0052 0.0031,0.0041 0.0044,0.0094 0.0045,0.01452 6.8e-5,0.0051 -0.001,0.01024 -0.0023,0.01524 -0.0011,0.0045 -0.0024,0.009 -0.0037,0.0134 -0.0019,0.0065 -0.0039,0.01293 -0.006,0.01935 -6.2e-5,7.8e-4 -3.2e-4,0.0015 -7.44e-4,0.0022 -5.83e-4,9.04e-4 -0.0015,0.0016 -0.0024,0.0021 -9.2e-4,5.57e-4 -0.0019,0.001 -0.0028,0.0016 -0.0023,0.0014 -0.0041,0.0033 -0.006,0.0052 -7.25e-4,7.42e-4 -0.0015,0.0015 -0.0022,0.0022 -0.0077,0.0074 -0.01757,0.01262 -0.02809,0.01465 -0.01051,0.002 -0.02164,8.44e-4 -0.03143,-0.0035 -0.0083,-0.0037 -0.01557,-0.0095 -0.02158,-0.01637 -0.0095,-0.01077 -0.01611,-0.02437 -0.01712,-0.03869 -3.65e-4,-0.0052 3e-6,-0.01042 0,-0.01563 -2e-6,-0.0042 -2.47e-4,-0.0084 0,-0.01265 8.05e-4,-0.01373 0.0071,-0.02707 0.01712,-0.03646"
       id="path19"
       inkscape:path-effect="#path-effect19"
       inkscape:original-d="m 38.98512,40.161458 c -0.01728,-0.0035 -0.03182,-0.0045 -0.03051,-0.03869 7.44e-4,-0.02174 0.01194,-0.04361 0.02679,-0.05952 0.0081,-0.0087 0.02325,-0.0049 0.03497,-0.0067 0.01261,-0.002 0.0253,0.0048 0.03572,0.01042 0.0065,0.0035 0.01937,0.01267 0.02381,0.0186 0.0019,0.0026 0.0033,0.0056 0.0052,0.0082 0.0013,0.0019 0.0035,0.0031 0.0045,0.0052 0.0025,0.0052 0.0031,0.02348 0.0022,0.02976 -5.58e-4,0.0044 -0.0028,0.0089 -0.0037,0.0134 -0.0028,0.01386 3.72e-4,0.0031 -0.006,0.01935 -3.72e-4,7.44e-4 -1.86e-4,0.0017 -7.44e-4,0.0022 -0.0015,0.0015 -0.0035,0.0024 -0.0052,0.0037 -0.0021,0.0017 -0.004,0.0034 -0.006,0.0052 -7.44e-4,7.45e-4 -0.0013,0.0017 -0.0022,0.0022 -0.01827,0.0098 -0.03865,0.01812 -0.05952,0.01116 -0.01003,-0.0033 -0.01373,-0.0085 -0.02158,-0.01637 -0.01021,-0.01021 -0.0162,-0.02426 -0.01712,-0.03869 -3.72e-4,-0.0052 0,-0.01042 0,-0.01563 0,-0.0042 -3.72e-4,-0.0084 0,-0.01265 5.58e-4,-0.0074 0.0081,-0.03646 0.01712,-0.03646" />
    <path
       fill="#0284c7"
       d="m 39.033062,40.143628 v -2.370199 l 13.203907,-13.193478 2.35977,2.35977 -13.193478,13.203907 z m 12.868286,-11.845309 1.35291,-1.352909 -1.022978,-1.022978 -1.35291,1.352909 z m 0.185824,9.00107 q 0,-0.816297 -0.549886,-1.450562 -0.549887,-0.634266 -1.601307,-1.050473 l -0.724333,0.724333 q 0.910157,0.310022 1.419275,0.767945 0.509119,0.457922 0.508171,1.008757 0,0.800179 -1.038147,1.348169 -1.038147,0.54799 -2.754172,0.54799 v 0.94808 q 1.935979,0 3.338189,-0.748983 1.40221,-0.748983 1.403158,-2.095256 m -12.473885,-3.296474 0.692098,-0.711059 q -0.642798,-0.262619 -0.958509,-0.566952 -0.31571,-0.304334 -0.314762,-0.639954 0,-0.448442 0.54799,-0.862753 0.54799,-0.41431 1.972006,-1.021081 1.772909,-0.756568 2.470696,-1.387989 0.697786,-0.631421 0.697786,-1.468576 0,-1.059005 -0.817244,-1.715076 -0.818193,-0.655123 -2.264015,-0.655123 -0.860856,0 -1.806092,0.402934 -0.945235,0.402934 -1.539681,1.074174 l 0.611511,0.635214 q 0.537561,-0.555575 1.300765,-0.859909 0.762257,-0.304333 1.433497,-0.304333 1.023926,0 1.579501,0.392505 0.553679,0.391557 0.553679,1.029614 0,0.495846 -0.509119,0.895936 -0.510067,0.400089 -2.086724,1.087447 -1.761532,0.791647 -2.427084,1.3823 -0.665552,0.590654 -0.665552,1.374716 0,0.578329 0.385868,1.061849 0.385869,0.483521 1.144333,0.856116"
       id="path1-4"
       style="stroke-width:0.94808" />
    <path
       style="fill:url(#linearGradient9);fill-opacity:0.992157;stroke:#ffffff;stroke-width:2.68238;stroke-linecap:square;stroke-miterlimit:2.9;stroke-dashoffset:2.3079;stroke-opacity:0;paint-order:markers stroke fill"
       d="m 211.05309,181.53423 c -2.21206,-1.30122 -4.39066,-3.49733 -5.29347,-5.33602 -0.65153,-1.32695 -0.74176,-1.79092 -0.74176,-3.81428 0,-1.99776 0.0939,-2.49483 0.7075,-3.74425 1.8088,-3.68323 6.32269,-6.6731 18.06447,-11.96538 8.82474,-3.97751 11.56111,-6.2801 11.55696,-9.7249 -0.002,-1.88895 -0.46363,-3.07601 -1.71574,-4.41462 -1.38005,-1.47538 -3.13783,-2.39151 -5.58194,-2.90923 -5.80935,-1.23055 -12.53025,0.48022 -17.43372,4.43766 l -1.56913,1.2664 -1.43831,-1.45348 c -0.79107,-0.79941 -1.43831,-1.5852 -1.43831,-1.7462 0,-0.33825 2.12266,-2.17163 3.92291,-3.38828 1.77187,-1.19748 5.05801,-2.6859 7.72433,-3.49866 2.0882,-0.63653 2.6709,-0.70153 6.26943,-0.69936 4.44167,0.003 6.59113,0.42562 9.41966,1.85346 5.71553,2.88519 8.23432,9.36789 5.72406,14.7322 -1.73944,3.7171 -5.89483,6.62679 -15.58886,10.91565 -8.08541,3.57717 -11.74456,5.7502 -13.10065,7.77999 -0.39738,0.5948 -0.66131,1.42417 -0.73465,2.30852 -0.0955,1.15214 -0.004,1.56835 0.55272,2.51867 0.74511,1.27143 2.36878,2.56404 4.58026,3.64635 l 1.47456,0.72166 -1.72365,1.73696 c -0.94801,0.95533 -1.78695,1.73696 -1.86431,1.73696 -0.0774,0 -0.87493,-0.43192 -1.77236,-0.95982 z"
       id="path3"
       transform="scale(0.18604651)" />
    <path
       style="fill:url(#linearGradient7);fill-opacity:0.992157;stroke:url(#linearGradient5);stroke-width:2.68238;stroke-linecap:square;stroke-miterlimit:2.9;stroke-dashoffset:2.3079;stroke-opacity:0;paint-order:markers stroke fill"
       d="m 254.54459,213.30432 5e-5,-2.33557 0.79985,-0.15997 c 0.43992,-0.088 1.44773,-0.16225 2.23959,-0.16504 5.38506,-0.019 11.69879,-2.11461 14.73722,-4.89156 1.99669,-1.82486 2.55635,-2.96626 2.55635,-5.21349 0,-1.98983 -0.49152,-3.21271 -1.96999,-4.90129 -1.10966,-1.26734 -3.98705,-3.11701 -6.28266,-4.03868 l -1.86678,-0.7495 1.84945,-1.86187 1.84944,-1.86187 2.45828,1.26273 c 5.49087,2.82047 8.38876,6.44142 8.86349,11.07504 0.2395,2.33763 -0.4084,5.08163 -1.6554,7.01097 -3.22905,4.99597 -11.19586,8.50237 -20.44348,8.99771 l -3.13547,0.16795 z"
       id="path4"
       transform="scale(0.18604651)" />
    <path
       style="fill:url(#pattern18);fill-opacity:1;stroke:#ffffff;stroke-width:2.68238;stroke-linecap:square;stroke-miterlimit:2.9;stroke-dashoffset:2.3079;stroke-opacity:0;paint-order:markers stroke fill"
       d="m 210.00893,209.43269 v -6.33517 l 35.38657,-35.38588 35.38657,-35.38587 6.22321,6.2271 6.22321,6.2271 -35.36743,35.49394 -35.36742,35.49395 h -6.24236 -6.24235 z m 73.52207,-67.44051 -2.8772,-2.87721 -3.58434,3.57748 c -1.97139,1.96761 -3.58434,3.69232 -3.58434,3.83268 0,0.14036 1.23694,1.49599 2.74876,3.01251 l 2.74876,2.75731 3.71279,-3.71278 3.71278,-3.71278 z"
       id="path9"
       transform="scale(0.18604651)" />
    <path
       style="fill:#fd9e00;fill-opacity:0.992157;stroke:#ffffff;stroke-width:1.94977;stroke-linecap:square;stroke-miterlimit:2.9;stroke-dashoffset:2.3079;stroke-opacity:0;paint-order:markers stroke fill"
       d="m 39.033062,40.143628 -0.0075,-0.0027 c 0.0011,-1.24e-4 0.0021,-1.24e-4 0.0032,0 0.0023,2.71e-4 0.0046,0.0012 0.0064,0.0027 0.0018,0.0015 0.0031,0.0037 0.0033,0.006 2.78e-4,0.0023 -4.84e-4,0.0048 -0.0021,0.0064 -8.32e-4,8.25e-4 -0.0019,0.0014 -0.003,0.0017 -0.0011,3.09e-4 -0.0023,3.08e-4 -0.0035,-2.4e-5 -7.63e-4,-2.25e-4 -0.0015,-6.01e-4 -0.0021,-0.0011 -0.0023,-8.77e-4 -0.0044,-0.0025 -0.0058,-0.0045 -0.0014,-0.0021 -0.0022,-0.0045 -0.0022,-0.007 0,-0.0025 7.79e-4,-0.005 0.0022,-0.007 0.0014,-0.0021 0.0035,-0.0037 0.0058,-0.0045 0.0024,-8.89e-4 0.0051,-0.001 0.0074,0 0.0016,6.86e-4 0.0029,0.0019 0.0036,0.0035 3.36e-4,7.89e-4 4.93e-4,0.0017 4.31e-4,0.0025 -6.2e-5,8.55e-4 -3.47e-4,0.0017 -8.38e-4,0.0024 -5.5e-4,7.86e-4 -0.0014,0.0014 -0.0023,0.0017 -9.11e-4,3.03e-4 -0.0019,3.06e-4 -0.0028,7e-6 z"
       id="path18"
       inkscape:path-effect="#path-effect18"
       inkscape:original-d="m 39.033062,40.143628 c -0.0022,0.0013 -0.0099,0.0022 -0.0075,-0.0027 5.58e-4,-9.3e-4 0.0022,-3.72e-4 0.0032,0 0.0066,0.0028 0.01338,0.01889 0.0011,0.01684 -7.44e-4,-1.28e-4 -0.0017,-3.72e-4 -0.0021,-0.0011 -0.0026,-0.0035 -0.0038,-0.02029 0,-0.02315 5.58e-4,-3.72e-4 0.0071,-1.25e-4 0.0074,0 0.0015,5.58e-4 0.0048,0.0069 0.0032,0.0084 -0.0013,0.0013 -0.0034,0.0011 -0.0051,0.0017 z" />
  </g>
  <path
     style="fill:#0284c7;fill-opacity:1;stroke:#0284c7;stroke-width:1.09247;stroke-linecap:square;stroke-miterlimit:2.9;stroke-dashoffset:2.3079;stroke-opacity:0;paint-order:markers stroke fill"
     d="m 7.8508803,2.7792728 c 2.4002817,1.987142 0.617609,3.2777496 1.8004085,4.5874154 1.0066172,0.839914 2.3446432,0.112551 2.5766582,-1.059349 C 12.601316,3.8087382 9.3987808,3.0154961 7.8508803,2.7792728 Z"
     id="path25"
     sodipodi:nodetypes="cccc" />
  <path
     style="fill:#0284c7;fill-opacity:1;stroke:#0284c7;stroke-width:0.866236;stroke-linecap:square;stroke-miterlimit:2.9;stroke-dashoffset:2.3079;stroke-opacity:0;paint-order:markers stroke fill"
     d="M 5.8726674,4.6349357 C 6.9579953,6.0469715 9.0279955,6.1781514 9.1133157,8.2219742 9.0805681,9.2750167 7.8200689,9.6469406 7.0610678,9.0392304 5.8211988,7.6778474 6.4550079,6.5450068 5.8726674,4.6349357 Z"
     id="path26"
     sodipodi:nodetypes="cccc" />
  <path
     style="fill:#0284c7;fill-opacity:1;stroke:#0284c7;stroke-width:1.05686;stroke-linecap:square;stroke-miterlimit:2.9;stroke-dashoffset:2.3079;stroke-opacity:0;paint-order:markers stroke fill"
     d="m 3.9709654,7.6684153 c 1.6366314,0.2941969 3.278262,2.5971027 3.334739,4.2335467 -0.067334,1.799841 -1.6981076,1.790343 -2.503867,0.997102 -1.0933195,-1.832889 0.4590513,-2.334021 -0.830872,-5.2306487 z"
     id="path27"
     sodipodi:nodetypes="cccc" />
  <path
     style="fill:#fff2f6;fill-opacity:1;stroke:#0284c7;stroke-width:0.08930233;stroke-linecap:square;stroke-miterlimit:2.9;stroke-dashoffset:2.3079;stroke-opacity:0;paint-order:markers stroke fill;stroke-dasharray:none"
     d="m 11.662506,6.6785612 c 0,0 0.179888,0.1445354 0.341057,-0.1096819 0.132993,-0.209774 0.153935,-0.9510332 -0.203135,-1.3397203 5.22e-4,0.6110274 -0.403702,1.0182811 -0.137922,1.4494022 z"
     id="path29"
     sodipodi:nodetypes="cscc" />
  <path
     style="fill:#fff2f6;fill-opacity:1;stroke:#0284c7;stroke-width:0.103412;stroke-linecap:square;stroke-miterlimit:2.9;stroke-dasharray:none;stroke-dashoffset:2.3079;stroke-opacity:1;paint-order:markers stroke fill"
     d="m 6.8206826,11.743227 c 0,0 0.2197124,0.09117 0.2440803,-0.319995 0.020106,-0.33929 -0.2950994,-1.302358 -0.7769765,-1.6140482 0.2751294,0.7845242 0.1104784,1.5199142 0.5329029,1.9340542 z"
     id="path30"
     sodipodi:nodetypes="cscc" />
  <path
     style="fill:#fff2f6;fill-opacity:1;stroke:#0284c7;stroke-width:0.0893023;stroke-linecap:square;stroke-miterlimit:2.9;stroke-dasharray:none;stroke-dashoffset:2.3079;stroke-opacity:0;paint-order:markers stroke fill"
     d="m 8.6846399,8.2146416 c 0,0 0.2174852,0.077139 0.2858187,-0.2160038 C 9.026846,7.7567437 8.8022036,7.0500333 8.3369416,6.8008187 8.5389067,7.3775031 8.291571,7.8952652 8.6846399,8.2146416 Z"
     id="path31"
     sodipodi:nodetypes="cscc" />
  <g
     id="g34"
     transform="matrix(1.2358771,0,0,1.2358771,-9.5983034,-5.409421)">
    <path
       style="fill:#0284c7;fill-opacity:1;stroke:#0284c7;stroke-width:1.09247;stroke-linecap:square;stroke-miterlimit:2.9;stroke-dashoffset:2.3079;stroke-opacity:0;paint-order:markers stroke fill"
       d="m 43.108996,15.323339 c -2.751528,1.462595 -3.176661,-0.61178 -4.838094,-0.0169 -1.159984,0.610878 -0.99702,2.125082 -0.0018,2.785926 2.168106,1.296816 4.680767,-1.933695 5.488703,-3.274978 z"
       id="path28"
       sodipodi:nodetypes="ccccc" />
    <path
       style="fill:#fff2f6;fill-opacity:1;stroke:#0284c7;stroke-width:0.0893023;stroke-linecap:square;stroke-miterlimit:2.9;stroke-dasharray:none;stroke-dashoffset:2.3079;stroke-opacity:1;paint-order:markers stroke fill"
       d="m 38.480283,16.856151 c 0,0 0.03034,-0.373819 0.384284,-0.261637 0,0 -0.182212,0.336117 -0.384284,0.261637 z"
       id="path32" />
    <path
       style="fill:#fff2f6;fill-opacity:1;stroke:#0284c7;stroke-width:0.0893023;stroke-linecap:square;stroke-miterlimit:2.9;stroke-dasharray:none;stroke-dashoffset:2.3079;stroke-opacity:1;paint-order:markers stroke fill"
       d="m 37.841239,17.278273 c 0,0 0.07365,-0.367746 0.412128,-0.215125 0,0 -0.2201,0.312621 -0.412128,0.215125 z"
       id="path33" />
    <path
       style="fill:#fff2f6;fill-opacity:1;stroke:#0284c7;stroke-width:0.0893023;stroke-linecap:square;stroke-miterlimit:2.9;stroke-dasharray:none;stroke-dashoffset:2.3079;stroke-opacity:1;paint-order:markers stroke fill"
       d="m 38.433036,17.619047 c 0,0 0.793153,0.369048 0.75744,-0.547618"
       id="path34" />
  </g>
  <path
     style="fill:#0284c7;fill-opacity:1;stroke:#0284c7;stroke-width:0.0893023;stroke-linecap:square;stroke-miterlimit:2.9;stroke-dasharray:none;stroke-dashoffset:2.3079;stroke-opacity:1;paint-order:markers stroke fill"
     d="M 4.8323919,38.448444 C 3.3457371,37.359857 40.48747,35.798707 41.265227,37.258727 42.344016,39.28385 5.2274966,39.904885 4.8323919,38.448444 Z"
     id="path35"
     sodipodi:nodetypes="csc" />
</svg>
