<?xml version="1.0" encoding="UTF-8" standalone="no"?>
<svg
   width="258"
   height="258"
   viewBox="0 0 48 48"
   version="1.1"
   id="svg1"
   sodipodi:docname="Bible.svg"
   inkscape:version="1.3.2 (091e20e, 2023-11-25, custom)"
   xmlns:inkscape="http://www.inkscape.org/namespaces/inkscape"
   xmlns:sodipodi="http://sodipodi.sourceforge.net/DTD/sodipodi-0.dtd"
   xmlns="http://www.w3.org/2000/svg"
   xmlns:svg="http://www.w3.org/2000/svg">
  <defs
     id="defs1" />
  <sodipodi:namedview
     id="namedview1"
     pagecolor="#000053"
     bordercolor="#000000"
     borderopacity="0.25"
     inkscape:showpageshadow="2"
     inkscape:pageopacity="0.0"
     inkscape:pagecheckerboard="0"
     inkscape:deskcolor="#d1d1d1"
     inkscape:zoom="3.2868217"
     inkscape:cx="129"
     inkscape:cy="129"
     inkscape:window-width="1920"
     inkscape:window-height="1046"
     inkscape:window-x="-11"
     inkscape:window-y="-11"
     inkscape:window-maximized="1"
     inkscape:current-layer="svg1" />
  <g
     fill="none"
     stroke="#ffffff"
     stroke-width="4"
     id="g5"
     transform="matrix(0.52829493,0,0,0.51374077,12.748903,10.395549)"
     style="display:inline;opacity:0.417">
    <path
       stroke-linecap="round"
       stroke-linejoin="round"
       d="M 14.54,20.019 Q 12.008,16.906 9.786,18.682 C 7.563,20.458 6.925,26.65 8.713,32.11 c 1.788,5.46 5.267,12.893 12.289,12.893 7.022,0 8.682,-7.481 11.546,-12.003 2.865,-4.522 4.38,-8.885 1.573,-14.318"
       id="path1-0" />
    <path
       stroke-linecap="round"
       d="M 11,18.037 A 643,643 0 0 0 7,12 C 5.554,9.855 9.251,7.082 11,8.968 q 1.749,1.887 4.647,5.557"
       id="path2" />
    <path
       stroke-linecap="round"
       stroke-linejoin="round"
       d="m 15.024,25.64 q -0.727,-9.096 1.182,-11.845 c 1.91,-2.75 5.457,-3.792 8.798,-3.792 q 2.983,0 5.448,2.541"
       id="path3" />
    <path
       d="m 41,12.613 c 0.586,2.036 -0.37,3.897 -3.316,4.318 -2.946,0.421 -5.153,1.902 -6.745,3.148 -1.592,1.246 -4.44,5.026 -5.003,6.923 -0.563,1.897 -3.776,0.153 -4.639,-0.605 -0.863,-0.757 -1.712,-2.416 0,-4.151 1.712,-1.735 1.341,-2.081 1.341,-3.84 0,-1.76 9.362,-7.58 14.635,-8.112 1.172,-0.068 3.142,0.282 3.727,2.319 z"
       clip-rule="evenodd"
       id="path4" />
    <path
       stroke-linecap="round"
       d="m 23.008,4 v 5.263 m -2.701,1.455 q -4.527,-5.69 -7.3,-6.35 m 3.997,2.661 0.99,-4.067 m 17.619,7.756 q -0.483,1.656 0,3.106 0.484,1.45 2.071,3.107"
       id="path5" />
  </g>
  <path
     fill="none"
     stroke="#ffffff"
     stroke-linecap="round"
     stroke-linejoin="round"
     d="m 4.5,42.534226 h 39 M 24,37.390226 V 6.2582264 m -9.533,8.3449996 h 19.066 m -12.553,26.231 -16.027,-0.788 0.615,-4.542 z m -2.565,-2.99 -9.86,-5.599 m 18.465,8.589 16.028,-0.788 -0.615,-4.542 z m 2.565,-2.99 9.86,-5.599"
     id="path1"
     sodipodi:insensitive="true" />
</svg>
