<?xml version="1.0" encoding="UTF-8" standalone="no"?>
<!-- Created with Inkscape (http://www.inkscape.org/) -->

<svg
   width="1080"
   height="1080"
   viewBox="0 0 285.74999 285.75"
   version="1.1"
   id="svg1"
   xml:space="preserve"
   inkscape:version="1.3.2 (091e20e, 2023-11-25, custom)"
   sodipodi:docname="NormalLogo.svg"
   xmlns:inkscape="http://www.inkscape.org/namespaces/inkscape"
   xmlns:sodipodi="http://sodipodi.sourceforge.net/DTD/sodipodi-0.dtd"
   xmlns:xlink="http://www.w3.org/1999/xlink"
   xmlns="http://www.w3.org/2000/svg"
   xmlns:svg="http://www.w3.org/2000/svg"><sodipodi:namedview
     id="namedview1"
     pagecolor="#ffffff"
     bordercolor="#660000"
     borderopacity="0.24705882"
     inkscape:showpageshadow="2"
     inkscape:pageopacity="0.0"
     inkscape:pagecheckerboard="0"
     inkscape:deskcolor="#0e0025"
     inkscape:document-units="px"
     inkscape:zoom="0.55104752"
     inkscape:cx="304.87389"
     inkscape:cy="544.41766"
     inkscape:window-width="1920"
     inkscape:window-height="1046"
     inkscape:window-x="-11"
     inkscape:window-y="-11"
     inkscape:window-maximized="1"
     inkscape:current-layer="g1" /><defs
     id="defs1"><linearGradient
       id="linearGradient34"
       inkscape:collect="always"><stop
         style="stop-color:#000000;stop-opacity:1;"
         offset="0"
         id="stop34" /><stop
         style="stop-color:#000000;stop-opacity:0;"
         offset="1"
         id="stop35" /></linearGradient><linearGradient
       id="linearGradient32"
       inkscape:collect="always"><stop
         style="stop-color:#04c2b2;stop-opacity:1;"
         offset="0.26824817"
         id="stop32" /><stop
         style="stop-color:#160fa6;stop-opacity:1;"
         offset="1"
         id="stop33" /></linearGradient><linearGradient
       id="linearGradient31"
       inkscape:collect="always"><stop
         style="stop-color:#04c2b2;stop-opacity:1;"
         offset="0"
         id="stop30" /><stop
         style="stop-color:#160fa6;stop-opacity:1;"
         offset="0.59306568"
         id="stop31" /></linearGradient><linearGradient
       id="linearGradient27"
       inkscape:collect="always"><stop
         style="stop-color:#000000;stop-opacity:0;"
         offset="0"
         id="stop28" /><stop
         style="stop-color:#000000;stop-opacity:0;"
         offset="1"
         id="stop29" /></linearGradient><linearGradient
       id="linearGradient6-1"><stop
         style="stop-color:#ff0000;stop-opacity:0.81233931;"
         offset="0.21715327"
         id="stop24" /><stop
         style="stop-color:#9fa3b6;stop-opacity:1;"
         offset="1"
         id="stop25" /></linearGradient><linearGradient
       id="linearGradient6"><stop
         style="stop-color:#ff0000;stop-opacity:0.81233931;"
         offset="0.21715327"
         id="stop22" /><stop
         style="stop-color:#9fa3b6;stop-opacity:1;"
         offset="1"
         id="stop23" /></linearGradient><linearGradient
       id="linearGradient4"
       inkscape:collect="always"><stop
         style="stop-color:#04c2b2;stop-opacity:1;"
         offset="0"
         id="stop5" /><stop
         style="stop-color:#160fa6;stop-opacity:1;"
         offset="1"
         id="stop6" /></linearGradient><linearGradient
       id="linearGradient3"
       inkscape:collect="always"><stop
         style="stop-color:#04c2b2;stop-opacity:1;"
         offset="0"
         id="stop3" /><stop
         style="stop-color:#160fa6;stop-opacity:1;"
         offset="1"
         id="stop4" /></linearGradient><linearGradient
       id="linearGradient1"
       inkscape:collect="always"><stop
         style="stop-color:#0000c0;stop-opacity:1;"
         offset="0"
         id="stop1" /><stop
         style="stop-color:#04c2b2;stop-opacity:1;"
         offset="1"
         id="stop2" /></linearGradient><inkscape:path-effect
       effect="spiro"
       id="path-effect10"
       is_visible="true"
       lpeversion="1" /><inkscape:path-effect
       effect="spiro"
       id="path-effect12"
       is_visible="true"
       lpeversion="1" /><linearGradient
       inkscape:collect="always"
       xlink:href="#linearGradient1"
       id="linearGradient2"
       x1="132.99267"
       y1="143.97904"
       x2="155.44004"
       y2="143.97904"
       gradientUnits="userSpaceOnUse" /><radialGradient
       inkscape:collect="always"
       xlink:href="#linearGradient3"
       id="radialGradient4"
       cx="545.24894"
       cy="544.75787"
       fx="545.24894"
       fy="544.75787"
       r="13.942805"
       gradientTransform="matrix(0.26458333,0,0,0.32485891,-0.24670074,-32.859537)"
       gradientUnits="userSpaceOnUse" /><radialGradient
       inkscape:collect="always"
       xlink:href="#linearGradient4"
       id="radialGradient6"
       cx="545.24894"
       cy="544.75787"
       fx="545.24894"
       fy="544.75787"
       r="13.942805"
       gradientTransform="matrix(0.26458333,0,0,0.32485891,-0.24670074,-32.859537)"
       gradientUnits="userSpaceOnUse" /><linearGradient
       inkscape:collect="always"
       xlink:href="#linearGradient27"
       id="linearGradient8"
       x1="133.22949"
       y1="139.62563"
       x2="133.22948"
       y2="139.62563"
       gradientUnits="userSpaceOnUse" /><linearGradient
       inkscape:collect="always"
       xlink:href="#linearGradient31"
       id="linearGradient10"
       x1="133.47658"
       y1="121.24013"
       x2="133.22949"
       y2="139.62563"
       gradientUnits="userSpaceOnUse" /><linearGradient
       inkscape:collect="always"
       xlink:href="#linearGradient32"
       id="linearGradient33"
       x1="133.28128"
       y1="121.16328"
       x2="133.20041"
       y2="139.61148"
       gradientUnits="userSpaceOnUse" /><linearGradient
       inkscape:collect="always"
       xlink:href="#linearGradient34"
       id="linearGradient35"
       x1="131.18757"
       y1="130.43085"
       x2="135.1471"
       y2="130.43085"
       gradientUnits="userSpaceOnUse" /></defs><g
     inkscape:label="fondo"
     inkscape:groupmode="layer"
     id="layer1" /><g
     inkscape:groupmode="layer"
     id="layer3"
     inkscape:label="Marco"><g
       id="g55"
       transform="translate(-57.399953,5.7312764)"><g
         id="g1"
         transform="matrix(3.5415389,0,0,3.4692171,-311.16838,-362.63911)"><g
           id="path2-0"
           transform="matrix(-1.0118881,0.13239182,-0.12906683,-1.0448534,332.36849,296.43297)"
           style="display:inline;opacity:1;fill:#04c2b2;fill-opacity:1;stroke-width:0.0740833;stroke-dasharray:none"><path
             style="color:#000000;fill:#04c2b2;fill-opacity:1;stroke-width:0.0743552;stroke-linecap:round;stroke-dasharray:none;paint-order:stroke fill markers"
             d="m 173.014,146.00494 c -7.19771,0.42669 -13.35572,4.5498 -16.10194,10.54883 -3.11994,6.8154 -3.65862,9.48784 -2.73739,9.87206 0.922,0.38348 2.10255,-5.54631 6.07425,-8.48339 1.95957,-4.63775 7.01865,-7.99819 12.97954,-8.35156 5.96089,-0.35337 11.82301,2.78328 14.51448,7.17673 0.51941,0.84782 1.35903,0.72753 2.21312,0.21194 0.85405,-0.51562 1.27278,-1.02067 0.7534,-1.86852 -3.48355,-5.68641 -10.49775,-9.53278 -17.69546,-9.10609 z"
             id="path3-7"
             sodipodi:nodetypes="ssccssscs" /></g><g
           id="path2"
           transform="translate(-20.360395,-24.968534)"
           style="fill:#160fa6;fill-opacity:1;stroke-width:0.0740833;stroke-dasharray:none"><path
             style="color:#000000;fill:#160fa6;fill-opacity:1;stroke-width:0.0743552;stroke-linecap:round;stroke-dasharray:none;paint-order:stroke fill markers"
             d="m 173.014,146.00494 c -7.19771,0.42669 -13.35572,4.5498 -16.10194,10.54883 -3.11994,6.8154 -3.65862,9.48784 -2.73739,9.87206 0.922,0.38348 2.10255,-5.54631 6.07425,-8.48339 1.95957,-4.63775 7.01865,-7.99819 12.97954,-8.35156 5.96089,-0.35337 11.82301,2.78328 14.51448,7.17673 0.51941,0.84782 1.35903,0.72753 2.21312,0.21194 0.85405,-0.51562 1.27278,-1.02067 0.7534,-1.86852 -3.48355,-5.68641 -10.49775,-9.53278 -17.69546,-9.10609 z"
             id="path3"
             sodipodi:nodetypes="ssccssscs" /></g><path
           style="fill:#000000;fill-opacity:0;stroke:#04c2b2;stroke-width:3.4599;stroke-linecap:round;stroke-dasharray:none;stroke-opacity:1;paint-order:stroke fill markers"
           id="path9"
           sodipodi:type="arc"
           sodipodi:cx="135.1254"
           sodipodi:cy="144.35681"
           sodipodi:rx="19.103834"
           sodipodi:ry="21.409056"
           sodipodi:start="2.3841571"
           sodipodi:end="4.6188973"
           sodipodi:open="true"
           sodipodi:arc-type="arc"
           d="m 121.24454,159.06613 a 19.103834,21.409056 0 0 1 -3.9988,-22.24987 19.103834,21.409056 0 0 1 16.09621,-13.77501" /><path
           style="fill:url(#linearGradient8);fill-opacity:1;stroke:url(#linearGradient10);stroke-width:3.52795;stroke-linecap:square;stroke-dasharray:none;stroke-opacity:1;paint-order:stroke fill markers"
           d="m 133.34195,123.04125 -0.34928,14.77921"
           id="path10"
           inkscape:path-effect="#path-effect10"
           inkscape:original-d="m 133.34195,123.04125 -0.34928,14.77921"
           transform="matrix(0.86074762,0,0.00884288,1.1976655,18.891047,-23.893811)" /><path
           style="fill:#000000;fill-opacity:0;stroke:#160fa6;stroke-width:3.29694;stroke-linecap:round;stroke-dasharray:none;stroke-opacity:1;paint-order:stroke fill markers"
           id="path12"
           sodipodi:type="arc"
           sodipodi:cx="-169.95808"
           sodipodi:cy="-124.88064"
           sodipodi:rx="17.793736"
           sodipodi:ry="20.871235"
           sodipodi:start="2.2401997"
           sodipodi:end="4.6188973"
           sodipodi:open="true"
           sodipodi:arc-type="arc"
           d="m -180.99942,-108.51358 a 17.793736,20.871235 0 0 1 -6.01977,-22.29434 17.793736,20.871235 0 0 1 15.39996,-14.8528"
           transform="matrix(-0.99277727,-0.11997207,0.10937647,-0.9940004,0,0)" /><path
           style="fill:#000000;fill-opacity:0;stroke:#7d00c0;stroke-width:0.248863;stroke-linecap:round;stroke-dasharray:none;stroke-opacity:1;paint-order:stroke fill markers"
           d="m 144.10662,134.93802 c 0,0 -1.39118,9.61848 7.70239,9.29092"
           id="path13" /><path
           style="fill:#000000;fill-opacity:0;stroke:#0000c0;stroke-width:0.254472;stroke-linecap:round;stroke-dasharray:none;stroke-opacity:1;paint-order:stroke fill markers"
           d="m 135.83814,144.3332 c 0,0 9.44527,0.2784 8.12569,-9.39258"
           id="path14" /><path
           style="fill:#000000;fill-opacity:0;stroke:#0000c0;stroke-width:0.236836;stroke-linecap:round;stroke-dasharray:none;stroke-opacity:1;paint-order:stroke fill markers"
           d="m 151.81503,144.24347 c 0,0 -8.35139,-0.77008 -7.63652,8.73181"
           id="path15" /><path
           style="fill:#000000;fill-opacity:0;stroke:#7d00c0;stroke-width:0.242591;stroke-linecap:round;stroke-dasharray:none;stroke-opacity:1;paint-order:stroke fill markers"
           d="m 144.17838,152.97087 c 0,0 0.35881,-9.96708 -7.9853,-8.61192"
           id="path16" /><path
           style="fill:url(#radialGradient6);stroke:url(#radialGradient4);stroke-width:0;stroke-linecap:round;stroke-dasharray:none;stroke-opacity:0.354582;paint-order:stroke fill markers"
           d="m 143.83767,148.54995 c -0.008,-0.0549 -0.0228,-0.24857 -0.032,-0.43036 -0.009,-0.18178 -0.0375,-0.4006 -0.063,-0.48626 -0.0407,-0.13714 -0.0612,-0.16253 -0.171,-0.2124 -0.0686,-0.0311 -0.15324,-0.0569 -0.18805,-0.0573 -0.0688,-7.9e-4 -0.10052,-0.0935 -0.10052,-0.29366 0,-0.22295 -0.30669,-0.71966 -0.44435,-0.71966 -0.0498,0 -0.1434,-0.1704 -0.18196,-0.33113 -0.0406,-0.16925 -0.14335,-0.2816 -0.30061,-0.32872 -0.14771,-0.0443 -0.18732,-0.0923 -0.24639,-0.29887 -0.054,-0.18867 -0.13874,-0.26983 -0.33377,-0.31946 -0.29138,-0.0742 -0.38614,-0.10891 -0.41147,-0.15093 -0.015,-0.0249 -0.0686,-0.0854 -0.11913,-0.13455 -0.0505,-0.0492 -0.10945,-0.1235 -0.13092,-0.16522 -0.0579,-0.1125 -0.12471,-0.14244 -0.42713,-0.19135 -0.15081,-0.0244 -0.285,-0.0614 -0.2982,-0.0822 -0.0132,-0.0208 -0.0243,-0.10482 -0.0248,-0.18673 -5.3e-4,-0.0819 -0.009,-0.19739 -0.0186,-0.25663 l -0.0178,-0.1077 0.1894,-0.0322 c 0.10417,-0.0177 0.24108,-0.039 0.30424,-0.0473 0.14534,-0.0191 0.25246,-0.0888 0.29707,-0.19326 0.0646,-0.15129 0.2366,-0.32033 0.34759,-0.34167 0.0573,-0.011 0.1959,-0.0549 0.30792,-0.0976 0.22053,-0.084 0.30011,-0.171 0.33673,-0.36818 0.0211,-0.11348 0.13262,-0.23821 0.21317,-0.23839 0.11081,-2.4e-4 0.23692,-0.11283 0.28899,-0.25798 0.0792,-0.22083 0.17454,-0.39716 0.21472,-0.39716 0.0635,0 0.23884,-0.17544 0.29069,-0.29077 0.0275,-0.0612 0.0758,-0.15823 0.10728,-0.21556 0.0315,-0.0573 0.0573,-0.15283 0.0573,-0.21221 3e-5,-0.0594 0.008,-0.14854 0.0181,-0.19813 0.0161,-0.0802 0.0329,-0.0924 0.15267,-0.11036 0.26142,-0.0392 0.32737,-0.18007 0.35582,-0.76002 0.021,-0.42698 0.0507,-0.56056 0.0828,-0.3723 0.0756,0.44285 0.0684,0.42713 0.30214,0.66313 0.13566,0.13699 0.22034,0.24693 0.2203,0.28602 -3e-5,0.0349 0.0213,0.17954 0.0473,0.32136 0.056,0.30528 0.11111,0.37305 0.34614,0.42592 l 0.15767,0.0355 0.0226,0.20628 c 0.0285,0.2596 0.0874,0.34396 0.27293,0.39068 0.19224,0.0484 0.21581,0.0748 0.23999,0.26832 0.0228,0.18211 0.13585,0.33656 0.24644,0.33656 0.0653,0 0.23259,0.19387 0.32001,0.37084 0.0667,0.13496 0.17973,0.19051 0.39359,0.19338 0.13246,0.002 0.1872,0.0536 0.1872,0.17741 0,0.11274 0.0973,0.26799 0.19773,0.31567 0.0918,0.0436 0.41584,0.0933 0.72558,0.11135 l 0.13402,0.008 v 0.31273 0.31273 l -0.16381,0.007 c -0.26715,0.0118 -0.63263,0.0694 -0.71726,0.11319 -0.0869,0.045 -0.17626,0.20599 -0.17626,0.31773 0,0.11929 -0.0612,0.16417 -0.24803,0.18192 -0.22414,0.0213 -0.30705,0.0774 -0.34901,0.23617 -0.0406,0.15357 -0.19138,0.32026 -0.28973,0.32026 -0.11798,0 -0.23904,0.14898 -0.26205,0.3225 -0.0232,0.17456 -0.0681,0.22482 -0.24225,0.2712 -0.0689,0.0183 -0.14545,0.0535 -0.17014,0.0782 -0.0554,0.0553 -0.10617,0.23131 -0.107,0.3705 -7.9e-4,0.1421 -0.0239,0.16711 -0.1721,0.18645 -0.15527,0.0203 -0.26753,0.0895 -0.30504,0.1882 -0.0154,0.0405 -0.044,0.19382 -0.0636,0.34064 -0.0282,0.21152 -0.0467,0.27049 -0.0891,0.28395 -0.0636,0.0202 -0.23365,0.21918 -0.23365,0.27338 0,0.0208 -0.0131,0.0379 -0.0291,0.0379 -0.063,0 -0.12583,0.15724 -0.16839,0.42165 -0.0245,0.15243 -0.0496,0.28212 -0.0557,0.2882 -0.006,0.006 -0.0179,-0.0339 -0.0263,-0.0888 z"
           id="path17" /><path
           style="fill:url(#linearGradient35);fill-opacity:1;stroke:url(#linearGradient33);stroke-width:3.52795;stroke-linecap:square;stroke-dasharray:none;stroke-opacity:1;paint-order:stroke fill markers"
           d="m 133.34195,123.04125 c -0.0924,3.91038 -0.18486,7.82076 -0.27724,11.73114 -0.024,1.01602 -0.048,2.03205 -0.072,3.04807"
           id="path11"
           inkscape:path-effect="#path-effect12"
           inkscape:original-d="m 133.34195,123.04125 -0.27724,11.73114 -0.072,3.04807"
           transform="matrix(0.87302796,0,0.00896904,1.1846211,36.153632,1.6409653)"
           sodipodi:nodetypes="ccc" /><path
           style="fill:#000000;fill-opacity:0;stroke:url(#linearGradient2);stroke-width:3.56321;stroke-linecap:round;stroke-dasharray:none;stroke-opacity:1;paint-order:stroke fill markers"
           id="path1"
           sodipodi:type="arc"
           sodipodi:cx="144.21622"
           sodipodi:cy="143.97914"
           sodipodi:rx="9.4408779"
           sodipodi:ry="10.749072"
           sodipodi:start="2.995179"
           sodipodi:end="2.9677492"
           sodipodi:arc-type="arc"
           d="m 134.87635,145.54734 a 9.4408779,10.749072 0 0 1 7.89851,-12.19126 9.4408779,10.749072 0 0 1 10.76146,8.90917 9.4408779,10.749072 0 0 1 -7.75092,12.31345 9.4408779,10.749072 0 0 1 -10.86776,-8.7403"
           sodipodi:open="true" /></g></g></g></svg>
